%TF.GenerationSoftware,KiCad,Pcbnew,(6.0.7)*%
%TF.CreationDate,2023-11-07T16:40:30+11:00*%
%TF.ProjectId,Ekoplasm Kicad,456b6f70-6c61-4736-9d20-4b696361642e,rev?*%
%TF.SameCoordinates,Original*%
%TF.FileFunction,Profile,NP*%
%FSLAX46Y46*%
G04 Gerber Fmt 4.6, Leading zero omitted, Abs format (unit mm)*
G04 Created by KiCad (PCBNEW (6.0.7)) date 2023-11-07 16:40:30*
%MOMM*%
%LPD*%
G01*
G04 APERTURE LIST*
%TA.AperFunction,Profile*%
%ADD10C,0.200000*%
%TD*%
G04 APERTURE END LIST*
D10*
X245926000Y-168992000D02*
G75*
G03*
X242926000Y-171992000I1J-3000001D01*
G01*
X242926000Y-257125200D02*
X242926000Y-171992000D01*
X242926000Y-257125200D02*
G75*
G03*
X245926000Y-260125200I3000001J1D01*
G01*
X372766000Y-260125200D02*
X245926000Y-260125200D01*
X372766000Y-260125200D02*
G75*
G03*
X375766000Y-257125200I0J3000000D01*
G01*
X375766000Y-171992000D02*
X375766000Y-257125200D01*
X375766000Y-171992000D02*
G75*
G03*
X372766000Y-168992000I-3000000J0D01*
G01*
X245926000Y-168992000D02*
X372766000Y-168992000D01*
X265225000Y-235150400D02*
X265225000Y-253250400D01*
X252375000Y-235150400D02*
X265225000Y-235150400D01*
X252375000Y-253250400D02*
X252375000Y-235150400D01*
X265225000Y-253250400D02*
X252375000Y-253250400D01*
X335583000Y-204975200D02*
X335583000Y-223075200D01*
X322733000Y-204975200D02*
X335583000Y-204975200D01*
X322733000Y-223075200D02*
X322733000Y-204975200D01*
X335583000Y-223075200D02*
X322733000Y-223075200D01*
X335583000Y-235150400D02*
X335583000Y-253250400D01*
X322733000Y-235150400D02*
X335583000Y-235150400D01*
X322733000Y-253250400D02*
X322733000Y-235150400D01*
X335583000Y-253250400D02*
X322733000Y-253250400D01*
X363642000Y-244200400D02*
G75*
G03*
X363642000Y-244200400I-3750000J0D01*
G01*
X363642000Y-214025200D02*
G75*
G03*
X363642000Y-214025200I-3750000J0D01*
G01*
X363642000Y-183850000D02*
G75*
G03*
X363642000Y-183850000I-3750000J0D01*
G01*
X292134000Y-244200400D02*
G75*
G03*
X292134000Y-244200400I-2600000J0D01*
G01*
X312123800Y-244149600D02*
G75*
G03*
X312123800Y-244149600I-2600000J0D01*
G01*
X312174600Y-214076000D02*
G75*
G03*
X312174600Y-214076000I-2600000J0D01*
G01*
X275767000Y-183850000D02*
G75*
G03*
X275767000Y-183850000I-1600000J0D01*
G01*
X293284000Y-214025200D02*
G75*
G03*
X293284000Y-214025200I-3750000J0D01*
G01*
X262550000Y-214025200D02*
G75*
G03*
X262550000Y-214025200I-3750000J0D01*
G01*
X293284000Y-183850000D02*
G75*
G03*
X293284000Y-183850000I-3750000J0D01*
G01*
X262550000Y-183850000D02*
G75*
G03*
X262550000Y-183850000I-3750000J0D01*
G01*
X275437000Y-252049000D02*
G75*
G03*
X275437000Y-252049000I-1270000J0D01*
G01*
X345795000Y-252125200D02*
G75*
G03*
X345795000Y-252125200I-1270000J0D01*
G01*
X252196000Y-176992000D02*
G75*
G03*
X252196000Y-176992000I-1270000J0D01*
G01*
X369036000Y-176992000D02*
G75*
G03*
X369036000Y-176992000I-1270000J0D01*
G01*
M02*
