%TF.GenerationSoftware,KiCad,Pcbnew,(6.0.7)*%
%TF.CreationDate,2023-11-07T16:40:30+11:00*%
%TF.ProjectId,Ekoplasm Kicad,456b6f70-6c61-4736-9d20-4b696361642e,rev?*%
%TF.SameCoordinates,Original*%
%TF.FileFunction,Copper,L2,Bot*%
%TF.FilePolarity,Positive*%
%FSLAX46Y46*%
G04 Gerber Fmt 4.6, Leading zero omitted, Abs format (unit mm)*
G04 Created by KiCad (PCBNEW (6.0.7)) date 2023-11-07 16:40:30*
%MOMM*%
%LPD*%
G01*
G04 APERTURE LIST*
%ADD10C,0.200000*%
%TA.AperFunction,NonConductor*%
%ADD11C,0.200000*%
%TD*%
%TA.AperFunction,ComponentPad*%
%ADD12C,3.500000*%
%TD*%
G04 APERTURE END LIST*
D10*
D11*
X284271428Y-255661904D02*
X284271428Y-256233333D01*
X284200000Y-256347619D01*
X284057142Y-256423809D01*
X283842857Y-256461904D01*
X283700000Y-256461904D01*
X285700000Y-256461904D02*
X284985714Y-256461904D01*
X284985714Y-255661904D01*
X287057142Y-256385714D02*
X286985714Y-256423809D01*
X286771428Y-256461904D01*
X286628571Y-256461904D01*
X286414285Y-256423809D01*
X286271428Y-256347619D01*
X286200000Y-256271428D01*
X286128571Y-256119047D01*
X286128571Y-256004761D01*
X286200000Y-255852380D01*
X286271428Y-255776190D01*
X286414285Y-255700000D01*
X286628571Y-255661904D01*
X286771428Y-255661904D01*
X286985714Y-255700000D01*
X287057142Y-255738095D01*
X288128571Y-255661904D02*
X288128571Y-256233333D01*
X288057142Y-256347619D01*
X287914285Y-256423809D01*
X287700000Y-256461904D01*
X287557142Y-256461904D01*
X289557142Y-256461904D02*
X288842857Y-256461904D01*
X288842857Y-255661904D01*
X290914285Y-256385714D02*
X290842857Y-256423809D01*
X290628571Y-256461904D01*
X290485714Y-256461904D01*
X290271428Y-256423809D01*
X290128571Y-256347619D01*
X290057142Y-256271428D01*
X289985714Y-256119047D01*
X289985714Y-256004761D01*
X290057142Y-255852380D01*
X290128571Y-255776190D01*
X290271428Y-255700000D01*
X290485714Y-255661904D01*
X290628571Y-255661904D01*
X290842857Y-255700000D01*
X290914285Y-255738095D01*
X291985714Y-255661904D02*
X291985714Y-256233333D01*
X291914285Y-256347619D01*
X291771428Y-256423809D01*
X291557142Y-256461904D01*
X291414285Y-256461904D01*
X293414285Y-256461904D02*
X292700000Y-256461904D01*
X292700000Y-255661904D01*
X294771428Y-256385714D02*
X294700000Y-256423809D01*
X294485714Y-256461904D01*
X294342857Y-256461904D01*
X294128571Y-256423809D01*
X293985714Y-256347619D01*
X293914285Y-256271428D01*
X293842857Y-256119047D01*
X293842857Y-256004761D01*
X293914285Y-255852380D01*
X293985714Y-255776190D01*
X294128571Y-255700000D01*
X294342857Y-255661904D01*
X294485714Y-255661904D01*
X294700000Y-255700000D01*
X294771428Y-255738095D01*
X295842857Y-255661904D02*
X295842857Y-256233333D01*
X295771428Y-256347619D01*
X295628571Y-256423809D01*
X295414285Y-256461904D01*
X295271428Y-256461904D01*
X297271428Y-256461904D02*
X296557142Y-256461904D01*
X296557142Y-255661904D01*
X298628571Y-256385714D02*
X298557142Y-256423809D01*
X298342857Y-256461904D01*
X298200000Y-256461904D01*
X297985714Y-256423809D01*
X297842857Y-256347619D01*
X297771428Y-256271428D01*
X297700000Y-256119047D01*
X297700000Y-256004761D01*
X297771428Y-255852380D01*
X297842857Y-255776190D01*
X297985714Y-255700000D01*
X298200000Y-255661904D01*
X298342857Y-255661904D01*
X298557142Y-255700000D01*
X298628571Y-255738095D01*
D12*
%TO.P,H2,1,1*%
%TO.N,GND*%
X367766000Y-176992000D03*
%TD*%
%TO.P,H2,1,1*%
%TO.N,GND*%
X250926000Y-176992000D03*
%TD*%
%TO.P,H2,1,1*%
%TO.N,GND*%
X274167000Y-252049000D03*
%TD*%
%TO.P,H2,1,1*%
%TO.N,GND*%
X344525000Y-252125200D03*
%TD*%
%TA.AperFunction,Conductor*%
%TO.N,GND*%
G36*
X372746242Y-169194466D02*
G01*
X372751811Y-169194476D01*
X372765641Y-169197656D01*
X372779481Y-169194524D01*
X372793670Y-169194549D01*
X372793669Y-169195161D01*
X372801608Y-169194500D01*
X372951047Y-169202892D01*
X373072384Y-169209706D01*
X373086416Y-169211287D01*
X373381972Y-169261504D01*
X373395743Y-169264647D01*
X373683820Y-169347641D01*
X373697151Y-169352306D01*
X373974125Y-169467032D01*
X373986848Y-169473159D01*
X374098841Y-169535056D01*
X374249228Y-169618172D01*
X374261192Y-169625689D01*
X374505691Y-169799170D01*
X374516738Y-169807980D01*
X374740269Y-170007740D01*
X374750260Y-170017731D01*
X374950020Y-170241262D01*
X374958830Y-170252309D01*
X375132311Y-170496808D01*
X375139828Y-170508772D01*
X375284839Y-170771148D01*
X375290970Y-170783879D01*
X375405692Y-171060843D01*
X375410359Y-171074180D01*
X375493353Y-171362257D01*
X375496496Y-171376028D01*
X375544235Y-171656998D01*
X375546712Y-171671579D01*
X375548294Y-171685620D01*
X375563469Y-171955825D01*
X375562803Y-171963621D01*
X375563549Y-171963622D01*
X375563524Y-171977813D01*
X375560344Y-171991641D01*
X375563475Y-172005480D01*
X375563467Y-172010311D01*
X375565500Y-172028504D01*
X375565500Y-257088120D01*
X375563534Y-257105442D01*
X375563524Y-257111011D01*
X375560344Y-257124841D01*
X375563476Y-257138681D01*
X375563451Y-257152870D01*
X375562839Y-257152869D01*
X375563500Y-257160808D01*
X375548294Y-257431580D01*
X375546713Y-257445616D01*
X375496497Y-257741168D01*
X375493353Y-257754943D01*
X375410359Y-258043020D01*
X375405692Y-258056357D01*
X375290970Y-258333321D01*
X375284839Y-258346052D01*
X375139828Y-258608428D01*
X375132311Y-258620392D01*
X374958830Y-258864891D01*
X374950020Y-258875938D01*
X374750260Y-259099469D01*
X374740269Y-259109460D01*
X374516738Y-259309220D01*
X374505691Y-259318030D01*
X374261192Y-259491511D01*
X374249228Y-259499028D01*
X374234987Y-259506899D01*
X373986848Y-259644041D01*
X373974125Y-259650168D01*
X373697151Y-259764894D01*
X373683820Y-259769559D01*
X373395743Y-259852553D01*
X373381972Y-259855696D01*
X373086416Y-259905913D01*
X373072384Y-259907494D01*
X372802172Y-259922669D01*
X372794379Y-259922003D01*
X372794378Y-259922749D01*
X372780187Y-259922724D01*
X372766359Y-259919544D01*
X372752520Y-259922675D01*
X372747689Y-259922667D01*
X372729496Y-259924700D01*
X245963080Y-259924700D01*
X245945758Y-259922734D01*
X245940189Y-259922724D01*
X245926359Y-259919544D01*
X245912519Y-259922676D01*
X245898330Y-259922651D01*
X245898331Y-259922039D01*
X245890392Y-259922700D01*
X245740953Y-259914308D01*
X245619616Y-259907494D01*
X245605584Y-259905913D01*
X245310028Y-259855696D01*
X245296257Y-259852553D01*
X245008180Y-259769559D01*
X244994849Y-259764894D01*
X244717875Y-259650168D01*
X244705152Y-259644041D01*
X244457013Y-259506899D01*
X244442772Y-259499028D01*
X244430808Y-259491511D01*
X244186309Y-259318030D01*
X244175262Y-259309220D01*
X243951731Y-259109460D01*
X243941740Y-259099469D01*
X243741980Y-258875938D01*
X243733170Y-258864891D01*
X243559689Y-258620392D01*
X243552172Y-258608428D01*
X243407161Y-258346052D01*
X243401030Y-258333321D01*
X243286308Y-258056357D01*
X243281641Y-258043020D01*
X243198647Y-257754943D01*
X243195503Y-257741168D01*
X243145287Y-257445616D01*
X243143706Y-257431580D01*
X243128548Y-257161656D01*
X243130382Y-257140097D01*
X243129227Y-257139964D01*
X243130043Y-257132874D01*
X243131655Y-257125918D01*
X243131656Y-257125200D01*
X243129654Y-257116425D01*
X243127186Y-257094500D01*
X283185215Y-257094500D01*
X299214786Y-257094500D01*
X299214786Y-255105500D01*
X283185215Y-255105500D01*
X283185215Y-257094500D01*
X243127186Y-257094500D01*
X243126500Y-257088410D01*
X243126500Y-235196057D01*
X252169644Y-235196057D01*
X252174500Y-235196057D01*
X252174500Y-253244508D01*
X252174455Y-253295963D01*
X252180597Y-253308754D01*
X252181713Y-253313667D01*
X252184350Y-253321217D01*
X252186532Y-253325751D01*
X252189688Y-253339585D01*
X252198529Y-253350680D01*
X252200875Y-253355554D01*
X252204546Y-253361406D01*
X252207912Y-253365638D01*
X252214052Y-253378424D01*
X252225131Y-253387284D01*
X252228265Y-253391224D01*
X252233916Y-253396885D01*
X252237852Y-253400027D01*
X252246695Y-253411124D01*
X252259477Y-253417289D01*
X252263704Y-253420663D01*
X252269547Y-253424342D01*
X252274410Y-253426693D01*
X252285492Y-253435556D01*
X252299320Y-253438736D01*
X252303851Y-253440926D01*
X252311397Y-253443576D01*
X252316307Y-253444700D01*
X252329087Y-253450865D01*
X252352155Y-253450885D01*
X252352153Y-253452910D01*
X252352219Y-253452926D01*
X252352219Y-253450900D01*
X252369108Y-253450900D01*
X252420563Y-253450945D01*
X252420559Y-253455750D01*
X252420657Y-253455756D01*
X252420657Y-253450900D01*
X265219108Y-253450900D01*
X265256374Y-253450933D01*
X265256376Y-253450933D01*
X265270563Y-253450945D01*
X265283354Y-253444803D01*
X265288267Y-253443687D01*
X265295817Y-253441050D01*
X265300351Y-253438868D01*
X265314185Y-253435712D01*
X265325280Y-253426871D01*
X265330154Y-253424525D01*
X265336006Y-253420854D01*
X265340238Y-253417488D01*
X265353024Y-253411348D01*
X265361884Y-253400269D01*
X265365824Y-253397135D01*
X265371485Y-253391484D01*
X265374627Y-253387548D01*
X265385724Y-253378705D01*
X265391889Y-253365923D01*
X265395263Y-253361696D01*
X265398942Y-253355853D01*
X265401293Y-253350990D01*
X265410156Y-253339908D01*
X265413336Y-253326080D01*
X265415526Y-253321549D01*
X265418176Y-253314003D01*
X265419300Y-253309093D01*
X265425465Y-253296313D01*
X265425485Y-253273245D01*
X265427510Y-253273247D01*
X265427526Y-253273181D01*
X265425500Y-253273181D01*
X265425500Y-253256292D01*
X265425545Y-253204837D01*
X265430350Y-253204841D01*
X265430356Y-253204743D01*
X265425500Y-253204743D01*
X265425500Y-252012949D01*
X272691900Y-252012949D01*
X272693118Y-252034067D01*
X272705820Y-252254355D01*
X272706955Y-252259392D01*
X272706956Y-252259398D01*
X272748267Y-252442709D01*
X272758980Y-252490247D01*
X272760924Y-252495033D01*
X272760925Y-252495038D01*
X272848010Y-252709501D01*
X272849954Y-252714288D01*
X272976298Y-252920462D01*
X273134619Y-253103233D01*
X273320665Y-253257692D01*
X273529440Y-253379690D01*
X273755337Y-253465952D01*
X273760403Y-253466983D01*
X273760404Y-253466983D01*
X273866255Y-253488518D01*
X273992290Y-253514160D01*
X274128396Y-253519151D01*
X274228771Y-253522832D01*
X274228775Y-253522832D01*
X274233935Y-253523021D01*
X274239055Y-253522365D01*
X274239057Y-253522365D01*
X274468654Y-253492953D01*
X274468655Y-253492953D01*
X274473782Y-253492296D01*
X274567741Y-253464107D01*
X274700437Y-253424296D01*
X274705390Y-253422810D01*
X274922540Y-253316430D01*
X274983081Y-253273247D01*
X275115196Y-253179010D01*
X275119399Y-253176012D01*
X275290680Y-253005327D01*
X275431785Y-252808959D01*
X275538922Y-252592183D01*
X275609216Y-252360818D01*
X275613200Y-252330555D01*
X275640341Y-252124402D01*
X275640342Y-252124396D01*
X275640778Y-252121080D01*
X275642540Y-252049000D01*
X275622727Y-251808006D01*
X275563819Y-251573484D01*
X275467398Y-251351732D01*
X275369811Y-251200885D01*
X275338863Y-251153046D01*
X275338861Y-251153043D01*
X275336055Y-251148706D01*
X275173316Y-250969858D01*
X274983551Y-250819991D01*
X274771858Y-250703130D01*
X274631190Y-250653317D01*
X274548795Y-250624139D01*
X274548791Y-250624138D01*
X274543920Y-250622413D01*
X274538827Y-250621506D01*
X274538824Y-250621505D01*
X274310950Y-250580914D01*
X274310944Y-250580913D01*
X274305861Y-250580008D01*
X274226039Y-250579033D01*
X274069242Y-250577117D01*
X274069240Y-250577117D01*
X274064072Y-250577054D01*
X273825047Y-250613630D01*
X273595205Y-250688754D01*
X273380720Y-250800408D01*
X273376587Y-250803511D01*
X273376584Y-250803513D01*
X273248880Y-250899396D01*
X273187350Y-250945594D01*
X273020290Y-251120413D01*
X272884025Y-251320169D01*
X272881851Y-251324852D01*
X272881849Y-251324856D01*
X272785071Y-251533348D01*
X272782216Y-251539499D01*
X272717596Y-251772511D01*
X272717047Y-251777648D01*
X272703668Y-251902838D01*
X272691900Y-252012949D01*
X265425500Y-252012949D01*
X265425500Y-244112285D01*
X286730138Y-244112285D01*
X286730233Y-244115915D01*
X286730233Y-244115917D01*
X286732445Y-244200400D01*
X286736985Y-244373752D01*
X286738592Y-244435137D01*
X286784098Y-244754877D01*
X286866053Y-245067269D01*
X286983369Y-245368170D01*
X287005306Y-245409601D01*
X287109320Y-245606049D01*
X287134493Y-245653593D01*
X287136545Y-245656578D01*
X287136550Y-245656587D01*
X287315364Y-245916763D01*
X287315370Y-245916770D01*
X287317421Y-245919755D01*
X287319809Y-245922492D01*
X287485413Y-246112328D01*
X287529728Y-246163128D01*
X287768601Y-246380486D01*
X288030874Y-246568948D01*
X288313070Y-246726016D01*
X288611448Y-246849608D01*
X288614942Y-246850603D01*
X288614944Y-246850604D01*
X288918554Y-246937090D01*
X288918559Y-246937091D01*
X288922055Y-246938087D01*
X289141264Y-246973984D01*
X289237192Y-246989693D01*
X289237196Y-246989693D01*
X289240772Y-246990279D01*
X289244398Y-246990450D01*
X289559749Y-247005321D01*
X289559750Y-247005321D01*
X289563376Y-247005492D01*
X289575707Y-247004651D01*
X289881960Y-246983774D01*
X289881968Y-246983773D01*
X289885591Y-246983526D01*
X289889167Y-246982863D01*
X289889169Y-246982863D01*
X290199580Y-246925332D01*
X290199584Y-246925331D01*
X290203145Y-246924671D01*
X290511830Y-246829707D01*
X290744884Y-246727403D01*
X290804232Y-246701351D01*
X290804236Y-246701349D01*
X290807555Y-246699892D01*
X290847410Y-246676603D01*
X291083259Y-246538784D01*
X291083261Y-246538783D01*
X291086399Y-246536949D01*
X291154059Y-246486149D01*
X291341761Y-246345219D01*
X291341765Y-246345216D01*
X291344668Y-246343036D01*
X291578936Y-246120723D01*
X291786101Y-245872957D01*
X291817646Y-245824934D01*
X291961427Y-245606049D01*
X291961432Y-245606040D01*
X291963414Y-245603023D01*
X292079060Y-245373087D01*
X292106900Y-245317734D01*
X292106903Y-245317726D01*
X292108527Y-245314498D01*
X292197765Y-245070646D01*
X292218269Y-245014616D01*
X292218270Y-245014612D01*
X292219517Y-245011205D01*
X292220362Y-245007683D01*
X292220365Y-245007675D01*
X292294064Y-244700695D01*
X292294065Y-244700691D01*
X292294911Y-244697166D01*
X292300631Y-244649895D01*
X292333374Y-244379322D01*
X292333374Y-244379316D01*
X292333710Y-244376543D01*
X292339246Y-244200400D01*
X292339085Y-244197604D01*
X292331236Y-244061485D01*
X306719938Y-244061485D01*
X306720033Y-244065115D01*
X306720033Y-244065117D01*
X306722245Y-244149600D01*
X306726785Y-244322952D01*
X306728392Y-244384337D01*
X306773898Y-244704077D01*
X306855853Y-245016469D01*
X306973169Y-245317370D01*
X306998272Y-245364782D01*
X307099120Y-245555249D01*
X307124293Y-245602793D01*
X307126345Y-245605778D01*
X307126350Y-245605787D01*
X307305164Y-245865963D01*
X307305170Y-245865970D01*
X307307221Y-245868955D01*
X307519528Y-246112328D01*
X307758401Y-246329686D01*
X308020674Y-246518148D01*
X308302870Y-246675216D01*
X308601248Y-246798808D01*
X308604742Y-246799803D01*
X308604744Y-246799804D01*
X308908354Y-246886290D01*
X308908359Y-246886291D01*
X308911855Y-246887287D01*
X309131064Y-246923184D01*
X309226992Y-246938893D01*
X309226996Y-246938893D01*
X309230572Y-246939479D01*
X309234198Y-246939650D01*
X309549549Y-246954521D01*
X309549550Y-246954521D01*
X309553176Y-246954692D01*
X309565507Y-246953851D01*
X309871760Y-246932974D01*
X309871768Y-246932973D01*
X309875391Y-246932726D01*
X309878967Y-246932063D01*
X309878969Y-246932063D01*
X310189380Y-246874532D01*
X310189384Y-246874531D01*
X310192945Y-246873871D01*
X310501630Y-246778907D01*
X310734684Y-246676603D01*
X310794032Y-246650551D01*
X310794036Y-246650549D01*
X310797355Y-246649092D01*
X310931477Y-246570718D01*
X311073059Y-246487984D01*
X311073061Y-246487983D01*
X311076199Y-246486149D01*
X311079108Y-246483965D01*
X311331561Y-246294419D01*
X311331565Y-246294416D01*
X311334468Y-246292236D01*
X311568736Y-246069923D01*
X311775901Y-245822157D01*
X311795598Y-245792171D01*
X311951227Y-245555249D01*
X311951232Y-245555240D01*
X311953214Y-245552223D01*
X312044165Y-245371388D01*
X312096700Y-245266934D01*
X312096703Y-245266926D01*
X312098327Y-245263698D01*
X312164192Y-245083715D01*
X312208069Y-244963816D01*
X312208070Y-244963812D01*
X312209317Y-244960405D01*
X312210162Y-244956883D01*
X312210165Y-244956875D01*
X312283864Y-244649895D01*
X312283865Y-244649891D01*
X312284711Y-244646366D01*
X312286982Y-244627600D01*
X312323174Y-244328522D01*
X312323174Y-244328516D01*
X312323510Y-244325743D01*
X312326582Y-244228015D01*
X312328958Y-244152396D01*
X312329046Y-244149600D01*
X312327104Y-244115917D01*
X312310664Y-243830793D01*
X312310663Y-243830788D01*
X312310455Y-243827173D01*
X312263794Y-243559820D01*
X312255552Y-243512593D01*
X312255550Y-243512586D01*
X312254928Y-243509020D01*
X312230665Y-243427107D01*
X312179282Y-243253642D01*
X312163202Y-243199357D01*
X312036492Y-242902289D01*
X311876477Y-242621754D01*
X311829520Y-242557829D01*
X311687422Y-242364386D01*
X311687420Y-242364383D01*
X311685279Y-242361469D01*
X311667817Y-242342677D01*
X311467899Y-242127540D01*
X311465432Y-242124885D01*
X311398215Y-242067476D01*
X311293998Y-241978467D01*
X311219849Y-241915138D01*
X310951786Y-241735007D01*
X310864163Y-241689781D01*
X310668016Y-241588542D01*
X310664796Y-241586880D01*
X310362683Y-241472721D01*
X310359162Y-241471837D01*
X310359157Y-241471835D01*
X310189939Y-241429331D01*
X310049451Y-241394043D01*
X310029605Y-241391430D01*
X309732855Y-241352362D01*
X309732847Y-241352361D01*
X309729251Y-241351888D01*
X309594881Y-241349777D01*
X309409970Y-241346872D01*
X309409966Y-241346872D01*
X309406328Y-241346815D01*
X309402713Y-241347176D01*
X309402708Y-241347176D01*
X309174932Y-241369911D01*
X309084963Y-241378891D01*
X308862763Y-241427339D01*
X308782481Y-241444843D01*
X308769414Y-241447692D01*
X308765987Y-241448865D01*
X308765981Y-241448867D01*
X308467295Y-241551130D01*
X308467290Y-241551132D01*
X308463864Y-241552305D01*
X308460596Y-241553864D01*
X308460588Y-241553867D01*
X308335698Y-241613437D01*
X308172362Y-241691344D01*
X307898774Y-241862966D01*
X307895940Y-241865236D01*
X307895935Y-241865240D01*
X307754605Y-241978467D01*
X307646724Y-242064896D01*
X307644171Y-242067476D01*
X307440299Y-242273495D01*
X307419554Y-242294458D01*
X307220274Y-242548608D01*
X307218381Y-242551697D01*
X307218379Y-242551700D01*
X307168906Y-242632433D01*
X307051527Y-242823979D01*
X306915548Y-243116920D01*
X306914408Y-243120367D01*
X306820268Y-243405021D01*
X306814140Y-243423549D01*
X306748648Y-243739801D01*
X306719938Y-244061485D01*
X292331236Y-244061485D01*
X292320864Y-243881593D01*
X292320863Y-243881588D01*
X292320655Y-243877973D01*
X292265128Y-243559820D01*
X292250081Y-243509020D01*
X292174434Y-243253642D01*
X292173402Y-243250157D01*
X292153221Y-243202842D01*
X292048114Y-242956423D01*
X292046692Y-242953089D01*
X291886677Y-242672554D01*
X291884533Y-242669635D01*
X291697622Y-242415186D01*
X291697620Y-242415183D01*
X291695479Y-242412269D01*
X291650984Y-242364386D01*
X291478099Y-242178340D01*
X291475632Y-242175685D01*
X291413396Y-242122530D01*
X291304198Y-242029267D01*
X291230049Y-241965938D01*
X290961986Y-241785807D01*
X290874363Y-241740581D01*
X290678216Y-241639342D01*
X290674996Y-241637680D01*
X290372883Y-241523521D01*
X290369362Y-241522637D01*
X290369357Y-241522635D01*
X290175754Y-241474006D01*
X290059651Y-241444843D01*
X290039805Y-241442230D01*
X289743055Y-241403162D01*
X289743047Y-241403161D01*
X289739451Y-241402688D01*
X289605081Y-241400577D01*
X289420170Y-241397672D01*
X289420166Y-241397672D01*
X289416528Y-241397615D01*
X289412913Y-241397976D01*
X289412908Y-241397976D01*
X289185132Y-241420711D01*
X289095163Y-241429691D01*
X288779614Y-241498492D01*
X288776187Y-241499665D01*
X288776181Y-241499667D01*
X288477495Y-241601930D01*
X288477490Y-241601932D01*
X288474064Y-241603105D01*
X288470796Y-241604664D01*
X288470788Y-241604667D01*
X288398091Y-241639342D01*
X288182562Y-241742144D01*
X287908974Y-241913766D01*
X287906140Y-241916036D01*
X287906135Y-241916040D01*
X287840914Y-241968292D01*
X287656924Y-242115696D01*
X287429754Y-242345258D01*
X287230474Y-242599408D01*
X287228581Y-242602497D01*
X287228579Y-242602500D01*
X287204293Y-242642132D01*
X287061727Y-242874779D01*
X286925748Y-243167720D01*
X286924608Y-243171167D01*
X286841141Y-243423549D01*
X286824340Y-243474349D01*
X286758848Y-243790601D01*
X286730138Y-244112285D01*
X265425500Y-244112285D01*
X265425500Y-235196057D01*
X322527644Y-235196057D01*
X322532500Y-235196057D01*
X322532500Y-253244508D01*
X322532455Y-253295963D01*
X322538597Y-253308754D01*
X322539713Y-253313667D01*
X322542350Y-253321217D01*
X322544532Y-253325751D01*
X322547688Y-253339585D01*
X322556529Y-253350680D01*
X322558875Y-253355554D01*
X322562546Y-253361406D01*
X322565912Y-253365638D01*
X322572052Y-253378424D01*
X322583131Y-253387284D01*
X322586265Y-253391224D01*
X322591916Y-253396885D01*
X322595852Y-253400027D01*
X322604695Y-253411124D01*
X322617477Y-253417289D01*
X322621704Y-253420663D01*
X322627547Y-253424342D01*
X322632410Y-253426693D01*
X322643492Y-253435556D01*
X322657320Y-253438736D01*
X322661851Y-253440926D01*
X322669397Y-253443576D01*
X322674307Y-253444700D01*
X322687087Y-253450865D01*
X322710155Y-253450885D01*
X322710153Y-253452910D01*
X322710219Y-253452926D01*
X322710219Y-253450900D01*
X322727108Y-253450900D01*
X322778563Y-253450945D01*
X322778559Y-253455750D01*
X322778657Y-253455756D01*
X322778657Y-253450900D01*
X335577108Y-253450900D01*
X335614374Y-253450933D01*
X335614376Y-253450933D01*
X335628563Y-253450945D01*
X335641354Y-253444803D01*
X335646267Y-253443687D01*
X335653817Y-253441050D01*
X335658351Y-253438868D01*
X335672185Y-253435712D01*
X335683280Y-253426871D01*
X335688154Y-253424525D01*
X335694006Y-253420854D01*
X335698238Y-253417488D01*
X335711024Y-253411348D01*
X335719884Y-253400269D01*
X335723824Y-253397135D01*
X335729485Y-253391484D01*
X335732627Y-253387548D01*
X335743724Y-253378705D01*
X335749889Y-253365923D01*
X335753263Y-253361696D01*
X335756942Y-253355853D01*
X335759293Y-253350990D01*
X335768156Y-253339908D01*
X335771336Y-253326080D01*
X335773526Y-253321549D01*
X335776176Y-253314003D01*
X335777300Y-253309093D01*
X335783465Y-253296313D01*
X335783485Y-253273245D01*
X335785510Y-253273247D01*
X335785526Y-253273181D01*
X335783500Y-253273181D01*
X335783500Y-253256292D01*
X335783545Y-253204837D01*
X335788350Y-253204841D01*
X335788356Y-253204743D01*
X335783500Y-253204743D01*
X335783500Y-252089149D01*
X343049900Y-252089149D01*
X343051118Y-252110267D01*
X343063820Y-252330555D01*
X343064955Y-252335592D01*
X343064956Y-252335598D01*
X343098401Y-252484005D01*
X343116980Y-252566447D01*
X343118924Y-252571233D01*
X343118925Y-252571238D01*
X343206010Y-252785701D01*
X343207954Y-252790488D01*
X343334298Y-252996662D01*
X343492619Y-253179433D01*
X343678665Y-253333892D01*
X343887440Y-253455890D01*
X343892265Y-253457732D01*
X343892266Y-253457733D01*
X343971246Y-253487892D01*
X344113337Y-253542152D01*
X344118403Y-253543183D01*
X344118404Y-253543183D01*
X344224255Y-253564718D01*
X344350290Y-253590360D01*
X344486396Y-253595351D01*
X344586771Y-253599032D01*
X344586775Y-253599032D01*
X344591935Y-253599221D01*
X344597055Y-253598565D01*
X344597057Y-253598565D01*
X344826654Y-253569153D01*
X344826655Y-253569153D01*
X344831782Y-253568496D01*
X344925741Y-253540307D01*
X345058437Y-253500496D01*
X345063390Y-253499010D01*
X345280540Y-253392630D01*
X345296098Y-253381533D01*
X345473196Y-253255210D01*
X345477399Y-253252212D01*
X345648680Y-253081527D01*
X345789785Y-252885159D01*
X345872058Y-252718692D01*
X345894628Y-252673025D01*
X345894629Y-252673023D01*
X345896922Y-252668383D01*
X345967216Y-252437018D01*
X345981232Y-252330555D01*
X345998341Y-252200602D01*
X345998342Y-252200596D01*
X345998778Y-252197280D01*
X346000540Y-252125200D01*
X345980727Y-251884206D01*
X345921819Y-251649684D01*
X345825398Y-251427932D01*
X345755683Y-251320169D01*
X345696863Y-251229246D01*
X345696861Y-251229243D01*
X345694055Y-251224906D01*
X345531316Y-251046058D01*
X345341551Y-250896191D01*
X345129858Y-250779330D01*
X345006374Y-250735602D01*
X344906795Y-250700339D01*
X344906791Y-250700338D01*
X344901920Y-250698613D01*
X344896827Y-250697706D01*
X344896824Y-250697705D01*
X344668950Y-250657114D01*
X344668944Y-250657113D01*
X344663861Y-250656208D01*
X344584039Y-250655233D01*
X344427242Y-250653317D01*
X344427240Y-250653317D01*
X344422072Y-250653254D01*
X344183047Y-250689830D01*
X343953205Y-250764954D01*
X343948613Y-250767344D01*
X343948614Y-250767344D01*
X343852283Y-250817491D01*
X343738720Y-250876608D01*
X343734587Y-250879711D01*
X343734584Y-250879713D01*
X343549485Y-251018689D01*
X343545350Y-251021794D01*
X343378290Y-251196613D01*
X343242025Y-251396369D01*
X343239851Y-251401052D01*
X343239849Y-251401056D01*
X343173269Y-251544491D01*
X343140216Y-251615699D01*
X343138832Y-251620691D01*
X343086885Y-251808006D01*
X343075596Y-251848711D01*
X343075047Y-251853848D01*
X343054191Y-252049000D01*
X343049900Y-252089149D01*
X335783500Y-252089149D01*
X335783500Y-244186592D01*
X355936447Y-244186592D01*
X355936597Y-244189774D01*
X355937098Y-244200400D01*
X355954595Y-244571424D01*
X355955301Y-244586397D01*
X355955773Y-244589554D01*
X355955773Y-244589556D01*
X355964791Y-244649895D01*
X356014462Y-244982249D01*
X356015248Y-244985331D01*
X356015248Y-244985333D01*
X356100704Y-245320588D01*
X356113323Y-245370096D01*
X356250872Y-245745967D01*
X356425701Y-246106014D01*
X356636021Y-246446550D01*
X356637964Y-246449083D01*
X356637966Y-246449085D01*
X356851528Y-246727403D01*
X356879677Y-246764088D01*
X357154174Y-247055378D01*
X357156579Y-247057462D01*
X357156585Y-247057467D01*
X357189481Y-247085962D01*
X357456704Y-247317437D01*
X357784167Y-247547582D01*
X357835119Y-247576175D01*
X358110042Y-247730455D01*
X358133211Y-247743457D01*
X358136126Y-247744724D01*
X358136129Y-247744726D01*
X358171586Y-247760143D01*
X358500263Y-247903056D01*
X358881565Y-248024744D01*
X359094336Y-248069582D01*
X359270092Y-248106620D01*
X359270097Y-248106621D01*
X359273211Y-248107277D01*
X359671194Y-248149809D01*
X359674382Y-248149826D01*
X359674387Y-248149826D01*
X359855973Y-248150777D01*
X360071437Y-248151905D01*
X360222994Y-248137312D01*
X360466678Y-248113848D01*
X360466683Y-248113847D01*
X360469843Y-248113543D01*
X360472962Y-248112920D01*
X360472967Y-248112919D01*
X360666454Y-248074256D01*
X360862332Y-248035116D01*
X361156118Y-247944736D01*
X361241845Y-247918363D01*
X361241848Y-247918362D01*
X361244887Y-247917427D01*
X361247815Y-247916190D01*
X361247821Y-247916188D01*
X361413986Y-247845996D01*
X361613590Y-247761680D01*
X361616393Y-247760146D01*
X361616398Y-247760143D01*
X361776782Y-247672335D01*
X361964667Y-247569471D01*
X362294522Y-247342768D01*
X362296961Y-247340700D01*
X362296967Y-247340695D01*
X362597338Y-247085962D01*
X362599779Y-247083892D01*
X362601985Y-247081600D01*
X362601991Y-247081594D01*
X362802912Y-246872805D01*
X362877312Y-246795492D01*
X363124280Y-246480522D01*
X363219635Y-246329686D01*
X363284951Y-246226365D01*
X363338153Y-246142208D01*
X363339573Y-246139360D01*
X363339578Y-246139351D01*
X363515323Y-245786859D01*
X363516743Y-245784011D01*
X363658221Y-245409601D01*
X363668733Y-245370096D01*
X363750241Y-245063766D01*
X363761138Y-245022811D01*
X363763563Y-245007675D01*
X363805423Y-244746331D01*
X363824441Y-244627600D01*
X363847481Y-244228015D01*
X363847577Y-244200400D01*
X363847436Y-244197604D01*
X363827488Y-243803837D01*
X363827487Y-243803832D01*
X363827327Y-243800664D01*
X363782699Y-243509020D01*
X363767269Y-243408181D01*
X363767267Y-243408172D01*
X363766785Y-243405021D01*
X363713597Y-243199357D01*
X363667368Y-243020601D01*
X363667365Y-243020593D01*
X363666571Y-243017521D01*
X363660600Y-243001379D01*
X363528820Y-242645129D01*
X363528817Y-242645123D01*
X363527711Y-242642132D01*
X363351626Y-242282698D01*
X363246655Y-242114056D01*
X363141806Y-241945608D01*
X363141798Y-241945597D01*
X363140119Y-241942899D01*
X362994767Y-241754835D01*
X362897308Y-241628737D01*
X362897303Y-241628732D01*
X362895356Y-241626212D01*
X362872313Y-241601930D01*
X362622042Y-241338199D01*
X362622039Y-241338197D01*
X362619843Y-241335882D01*
X362608794Y-241326378D01*
X362318816Y-241076958D01*
X362318813Y-241076956D01*
X362316401Y-241074881D01*
X361988136Y-240845880D01*
X361638410Y-240651225D01*
X361635490Y-240649967D01*
X361635485Y-240649965D01*
X361273738Y-240494172D01*
X361273728Y-240494168D01*
X361270804Y-240492909D01*
X360889080Y-240372552D01*
X360607854Y-240314313D01*
X360500272Y-240292034D01*
X360500269Y-240292034D01*
X360497147Y-240291387D01*
X360191738Y-240259826D01*
X360102175Y-240250570D01*
X360102172Y-240250570D01*
X360099019Y-240250244D01*
X360095852Y-240250238D01*
X360095843Y-240250238D01*
X359898515Y-240249894D01*
X359698771Y-240249545D01*
X359398479Y-240279518D01*
X359303686Y-240288980D01*
X359303684Y-240288980D01*
X359300501Y-240289298D01*
X359297361Y-240289937D01*
X359297360Y-240289937D01*
X358911422Y-240368457D01*
X358911415Y-240368459D01*
X358908288Y-240369095D01*
X358526146Y-240488119D01*
X358523218Y-240489368D01*
X358160919Y-240643901D01*
X358160915Y-240643903D01*
X358157989Y-240645151D01*
X358155210Y-240646685D01*
X358155204Y-240646688D01*
X358112350Y-240670345D01*
X357807586Y-240838584D01*
X357804965Y-240840399D01*
X357804960Y-240840402D01*
X357797049Y-240845880D01*
X357478524Y-241066437D01*
X357174172Y-241326378D01*
X357171972Y-241328680D01*
X357171969Y-241328683D01*
X357101303Y-241402631D01*
X356897648Y-241615744D01*
X356895691Y-241618258D01*
X356895690Y-241618259D01*
X356662744Y-241917492D01*
X356651781Y-241931574D01*
X356650085Y-241934278D01*
X356650082Y-241934282D01*
X356569573Y-242062625D01*
X356439090Y-242270634D01*
X356261751Y-242629451D01*
X356121581Y-243004353D01*
X356020015Y-243391500D01*
X356014439Y-243427107D01*
X355964907Y-243743412D01*
X355958092Y-243786930D01*
X355957921Y-243790092D01*
X355957920Y-243790099D01*
X355943026Y-244065117D01*
X355936447Y-244186592D01*
X335783500Y-244186592D01*
X335783500Y-235156292D01*
X335783545Y-235104837D01*
X335777403Y-235092046D01*
X335776287Y-235087133D01*
X335773650Y-235079583D01*
X335771468Y-235075049D01*
X335768312Y-235061215D01*
X335759471Y-235050120D01*
X335757125Y-235045246D01*
X335753454Y-235039394D01*
X335750088Y-235035162D01*
X335743948Y-235022376D01*
X335732869Y-235013516D01*
X335729735Y-235009576D01*
X335724084Y-235003915D01*
X335720148Y-235000773D01*
X335711305Y-234989676D01*
X335698523Y-234983511D01*
X335694296Y-234980137D01*
X335688453Y-234976458D01*
X335683590Y-234974107D01*
X335672508Y-234965244D01*
X335658680Y-234962064D01*
X335654149Y-234959874D01*
X335646603Y-234957224D01*
X335641693Y-234956100D01*
X335628913Y-234949935D01*
X335605845Y-234949915D01*
X335605847Y-234947890D01*
X335605781Y-234947874D01*
X335605781Y-234949900D01*
X335588892Y-234949900D01*
X335537437Y-234949855D01*
X335537441Y-234945050D01*
X335537343Y-234945044D01*
X335537343Y-234949900D01*
X322738892Y-234949900D01*
X322701626Y-234949867D01*
X322701624Y-234949867D01*
X322687437Y-234949855D01*
X322674646Y-234955997D01*
X322669733Y-234957113D01*
X322662183Y-234959750D01*
X322657649Y-234961932D01*
X322643815Y-234965088D01*
X322632720Y-234973929D01*
X322627846Y-234976275D01*
X322621994Y-234979946D01*
X322617762Y-234983312D01*
X322604976Y-234989452D01*
X322596116Y-235000531D01*
X322592176Y-235003665D01*
X322586515Y-235009316D01*
X322583373Y-235013252D01*
X322572276Y-235022095D01*
X322566111Y-235034877D01*
X322562737Y-235039104D01*
X322559058Y-235044947D01*
X322556707Y-235049810D01*
X322547844Y-235060892D01*
X322544664Y-235074720D01*
X322542474Y-235079251D01*
X322539824Y-235086797D01*
X322538700Y-235091707D01*
X322532535Y-235104487D01*
X322532515Y-235127555D01*
X322530490Y-235127553D01*
X322530474Y-235127619D01*
X322532500Y-235127619D01*
X322532500Y-235144508D01*
X322532455Y-235195963D01*
X322527650Y-235195959D01*
X322527644Y-235196057D01*
X265425500Y-235196057D01*
X265425500Y-235156292D01*
X265425545Y-235104837D01*
X265419403Y-235092046D01*
X265418287Y-235087133D01*
X265415650Y-235079583D01*
X265413468Y-235075049D01*
X265410312Y-235061215D01*
X265401471Y-235050120D01*
X265399125Y-235045246D01*
X265395454Y-235039394D01*
X265392088Y-235035162D01*
X265385948Y-235022376D01*
X265374869Y-235013516D01*
X265371735Y-235009576D01*
X265366084Y-235003915D01*
X265362148Y-235000773D01*
X265353305Y-234989676D01*
X265340523Y-234983511D01*
X265336296Y-234980137D01*
X265330453Y-234976458D01*
X265325590Y-234974107D01*
X265314508Y-234965244D01*
X265300680Y-234962064D01*
X265296149Y-234959874D01*
X265288603Y-234957224D01*
X265283693Y-234956100D01*
X265270913Y-234949935D01*
X265247845Y-234949915D01*
X265247847Y-234947890D01*
X265247781Y-234947874D01*
X265247781Y-234949900D01*
X265230892Y-234949900D01*
X265179437Y-234949855D01*
X265179441Y-234945050D01*
X265179343Y-234945044D01*
X265179343Y-234949900D01*
X252380892Y-234949900D01*
X252343626Y-234949867D01*
X252343624Y-234949867D01*
X252329437Y-234949855D01*
X252316646Y-234955997D01*
X252311733Y-234957113D01*
X252304183Y-234959750D01*
X252299649Y-234961932D01*
X252285815Y-234965088D01*
X252274720Y-234973929D01*
X252269846Y-234976275D01*
X252263994Y-234979946D01*
X252259762Y-234983312D01*
X252246976Y-234989452D01*
X252238116Y-235000531D01*
X252234176Y-235003665D01*
X252228515Y-235009316D01*
X252225373Y-235013252D01*
X252214276Y-235022095D01*
X252208111Y-235034877D01*
X252204737Y-235039104D01*
X252201058Y-235044947D01*
X252198707Y-235049810D01*
X252189844Y-235060892D01*
X252186664Y-235074720D01*
X252184474Y-235079251D01*
X252181824Y-235086797D01*
X252180700Y-235091707D01*
X252174535Y-235104487D01*
X252174515Y-235127555D01*
X252172490Y-235127553D01*
X252172474Y-235127619D01*
X252174500Y-235127619D01*
X252174500Y-235144508D01*
X252174455Y-235195963D01*
X252169650Y-235195959D01*
X252169644Y-235196057D01*
X243126500Y-235196057D01*
X243126500Y-214011392D01*
X254844447Y-214011392D01*
X254844597Y-214014574D01*
X254845098Y-214025200D01*
X254862595Y-214396224D01*
X254863301Y-214411197D01*
X254922462Y-214807049D01*
X254923248Y-214810131D01*
X254923248Y-214810133D01*
X254942792Y-214886805D01*
X255021323Y-215194896D01*
X255040386Y-215246988D01*
X255126260Y-215481649D01*
X255158872Y-215570767D01*
X255160264Y-215573633D01*
X255330804Y-215924847D01*
X255333701Y-215930814D01*
X255544021Y-216271350D01*
X255545964Y-216273883D01*
X255545966Y-216273885D01*
X255775994Y-216573662D01*
X255787677Y-216588888D01*
X256062174Y-216880178D01*
X256064579Y-216882262D01*
X256064585Y-216882267D01*
X256097481Y-216910762D01*
X256364704Y-217142237D01*
X256692167Y-217372382D01*
X256743119Y-217400975D01*
X257018042Y-217555255D01*
X257041211Y-217568257D01*
X257044126Y-217569524D01*
X257044129Y-217569526D01*
X257079586Y-217584943D01*
X257408263Y-217727856D01*
X257789565Y-217849544D01*
X258002336Y-217894382D01*
X258178092Y-217931420D01*
X258178097Y-217931421D01*
X258181211Y-217932077D01*
X258579194Y-217974609D01*
X258582382Y-217974626D01*
X258582387Y-217974626D01*
X258763973Y-217975577D01*
X258979437Y-217976705D01*
X259130994Y-217962112D01*
X259374678Y-217938648D01*
X259374683Y-217938647D01*
X259377843Y-217938343D01*
X259380962Y-217937720D01*
X259380967Y-217937719D01*
X259574454Y-217899056D01*
X259770332Y-217859916D01*
X260064118Y-217769536D01*
X260149845Y-217743163D01*
X260149848Y-217743162D01*
X260152887Y-217742227D01*
X260155815Y-217740990D01*
X260155821Y-217740988D01*
X260321986Y-217670796D01*
X260521590Y-217586480D01*
X260524393Y-217584946D01*
X260524398Y-217584943D01*
X260684782Y-217497135D01*
X260872667Y-217394271D01*
X261202522Y-217167568D01*
X261204961Y-217165500D01*
X261204967Y-217165495D01*
X261505338Y-216910762D01*
X261507779Y-216908692D01*
X261509985Y-216906400D01*
X261509991Y-216906394D01*
X261783105Y-216622585D01*
X261785312Y-216620292D01*
X262032280Y-216305322D01*
X262246153Y-215967008D01*
X262247573Y-215964160D01*
X262247578Y-215964151D01*
X262423323Y-215611659D01*
X262424743Y-215608811D01*
X262566221Y-215234401D01*
X262576733Y-215194896D01*
X262658709Y-214886805D01*
X262669138Y-214847611D01*
X262676140Y-214803901D01*
X262731936Y-214455551D01*
X262732441Y-214452400D01*
X262755481Y-214052815D01*
X262755577Y-214025200D01*
X262754878Y-214011392D01*
X285578447Y-214011392D01*
X285578597Y-214014574D01*
X285579098Y-214025200D01*
X285596595Y-214396224D01*
X285597301Y-214411197D01*
X285656462Y-214807049D01*
X285657248Y-214810131D01*
X285657248Y-214810133D01*
X285676792Y-214886805D01*
X285755323Y-215194896D01*
X285774386Y-215246988D01*
X285860260Y-215481649D01*
X285892872Y-215570767D01*
X285894264Y-215573633D01*
X286064804Y-215924847D01*
X286067701Y-215930814D01*
X286278021Y-216271350D01*
X286279964Y-216273883D01*
X286279966Y-216273885D01*
X286509994Y-216573662D01*
X286521677Y-216588888D01*
X286796174Y-216880178D01*
X286798579Y-216882262D01*
X286798585Y-216882267D01*
X286831481Y-216910762D01*
X287098704Y-217142237D01*
X287426167Y-217372382D01*
X287477119Y-217400975D01*
X287752042Y-217555255D01*
X287775211Y-217568257D01*
X287778126Y-217569524D01*
X287778129Y-217569526D01*
X287813586Y-217584943D01*
X288142263Y-217727856D01*
X288523565Y-217849544D01*
X288736336Y-217894382D01*
X288912092Y-217931420D01*
X288912097Y-217931421D01*
X288915211Y-217932077D01*
X289313194Y-217974609D01*
X289316382Y-217974626D01*
X289316387Y-217974626D01*
X289497973Y-217975577D01*
X289713437Y-217976705D01*
X289864994Y-217962112D01*
X290108678Y-217938648D01*
X290108683Y-217938647D01*
X290111843Y-217938343D01*
X290114962Y-217937720D01*
X290114967Y-217937719D01*
X290308454Y-217899056D01*
X290504332Y-217859916D01*
X290798118Y-217769536D01*
X290883845Y-217743163D01*
X290883848Y-217743162D01*
X290886887Y-217742227D01*
X290889815Y-217740990D01*
X290889821Y-217740988D01*
X291055986Y-217670796D01*
X291255590Y-217586480D01*
X291258393Y-217584946D01*
X291258398Y-217584943D01*
X291418782Y-217497135D01*
X291606667Y-217394271D01*
X291936522Y-217167568D01*
X291938961Y-217165500D01*
X291938967Y-217165495D01*
X292239338Y-216910762D01*
X292241779Y-216908692D01*
X292243985Y-216906400D01*
X292243991Y-216906394D01*
X292517105Y-216622585D01*
X292519312Y-216620292D01*
X292766280Y-216305322D01*
X292980153Y-215967008D01*
X292981573Y-215964160D01*
X292981578Y-215964151D01*
X293157323Y-215611659D01*
X293158743Y-215608811D01*
X293300221Y-215234401D01*
X293310733Y-215194896D01*
X293392709Y-214886805D01*
X293403138Y-214847611D01*
X293410140Y-214803901D01*
X293465936Y-214455551D01*
X293466441Y-214452400D01*
X293489481Y-214052815D01*
X293489577Y-214025200D01*
X293487687Y-213987885D01*
X306770738Y-213987885D01*
X306770833Y-213991515D01*
X306770833Y-213991517D01*
X306773045Y-214076000D01*
X306777585Y-214249352D01*
X306779192Y-214310737D01*
X306824698Y-214630477D01*
X306906653Y-214942869D01*
X306907970Y-214946246D01*
X307019117Y-215231324D01*
X307023969Y-215243770D01*
X307025673Y-215246988D01*
X307149920Y-215481649D01*
X307175093Y-215529193D01*
X307177145Y-215532178D01*
X307177150Y-215532187D01*
X307355964Y-215792363D01*
X307355970Y-215792370D01*
X307358021Y-215795355D01*
X307570328Y-216038728D01*
X307809201Y-216256086D01*
X308071474Y-216444548D01*
X308353670Y-216601616D01*
X308652048Y-216725208D01*
X308655542Y-216726203D01*
X308655544Y-216726204D01*
X308959154Y-216812690D01*
X308959159Y-216812691D01*
X308962655Y-216813687D01*
X309181864Y-216849584D01*
X309277792Y-216865293D01*
X309277796Y-216865293D01*
X309281372Y-216865879D01*
X309284998Y-216866050D01*
X309600349Y-216880921D01*
X309600350Y-216880921D01*
X309603976Y-216881092D01*
X309617383Y-216880178D01*
X309922560Y-216859374D01*
X309922568Y-216859373D01*
X309926191Y-216859126D01*
X309929767Y-216858463D01*
X309929769Y-216858463D01*
X310240180Y-216800932D01*
X310240184Y-216800931D01*
X310243745Y-216800271D01*
X310552430Y-216705307D01*
X310785484Y-216603003D01*
X310844832Y-216576951D01*
X310844836Y-216576949D01*
X310848155Y-216575492D01*
X311126999Y-216412549D01*
X311311683Y-216273885D01*
X311382361Y-216220819D01*
X311382365Y-216220816D01*
X311385268Y-216218636D01*
X311619536Y-215996323D01*
X311826701Y-215748557D01*
X311920453Y-215605833D01*
X312002027Y-215481649D01*
X312002032Y-215481640D01*
X312004014Y-215478623D01*
X312076571Y-215334360D01*
X312147500Y-215193334D01*
X312147503Y-215193326D01*
X312149127Y-215190098D01*
X312238365Y-214946246D01*
X312258869Y-214890216D01*
X312258870Y-214890212D01*
X312260117Y-214886805D01*
X312260962Y-214883283D01*
X312260965Y-214883275D01*
X312334664Y-214576295D01*
X312334665Y-214576291D01*
X312335511Y-214572766D01*
X312335948Y-214569156D01*
X312373974Y-214254922D01*
X312373974Y-214254916D01*
X312374310Y-214252143D01*
X312379846Y-214076000D01*
X312374975Y-213991517D01*
X312361464Y-213757193D01*
X312361463Y-213757188D01*
X312361255Y-213753573D01*
X312305728Y-213435420D01*
X312281465Y-213353507D01*
X312215034Y-213129242D01*
X312214002Y-213125757D01*
X312087292Y-212828689D01*
X311927277Y-212548154D01*
X311925133Y-212545235D01*
X311738222Y-212290786D01*
X311738220Y-212290783D01*
X311736079Y-212287869D01*
X311516232Y-212051285D01*
X311449015Y-211993876D01*
X311273405Y-211843892D01*
X311270649Y-211841538D01*
X311002586Y-211661407D01*
X310914963Y-211616181D01*
X310718816Y-211514942D01*
X310715596Y-211513280D01*
X310413483Y-211399121D01*
X310409962Y-211398237D01*
X310409957Y-211398235D01*
X310260033Y-211360577D01*
X310100251Y-211320443D01*
X310080405Y-211317830D01*
X309783655Y-211278762D01*
X309783647Y-211278761D01*
X309780051Y-211278288D01*
X309645681Y-211276177D01*
X309460770Y-211273272D01*
X309460766Y-211273272D01*
X309457128Y-211273215D01*
X309453513Y-211273576D01*
X309453508Y-211273576D01*
X309225732Y-211296311D01*
X309135763Y-211305291D01*
X308820214Y-211374092D01*
X308816787Y-211375265D01*
X308816781Y-211375267D01*
X308518095Y-211477530D01*
X308518090Y-211477532D01*
X308514664Y-211478705D01*
X308511396Y-211480264D01*
X308511388Y-211480267D01*
X308438691Y-211514942D01*
X308223162Y-211617744D01*
X307949574Y-211789366D01*
X307946740Y-211791636D01*
X307946735Y-211791640D01*
X307881514Y-211843892D01*
X307697524Y-211991296D01*
X307470354Y-212220858D01*
X307271074Y-212475008D01*
X307102327Y-212750379D01*
X306966348Y-213043320D01*
X306965208Y-213046767D01*
X306885687Y-213287217D01*
X306864940Y-213349949D01*
X306799448Y-213666201D01*
X306770738Y-213987885D01*
X293487687Y-213987885D01*
X293487504Y-213984264D01*
X293469488Y-213628637D01*
X293469487Y-213628632D01*
X293469327Y-213625464D01*
X293408785Y-213229821D01*
X293330818Y-212928344D01*
X293309368Y-212845401D01*
X293309365Y-212845393D01*
X293308571Y-212842321D01*
X293303700Y-212829153D01*
X293170820Y-212469929D01*
X293170817Y-212469923D01*
X293169711Y-212466932D01*
X292993626Y-212107498D01*
X292867499Y-211904867D01*
X292783806Y-211770408D01*
X292783798Y-211770397D01*
X292782119Y-211767699D01*
X292558760Y-211478705D01*
X292539308Y-211453537D01*
X292539303Y-211453532D01*
X292537356Y-211451012D01*
X292488113Y-211399121D01*
X292264042Y-211162999D01*
X292264039Y-211162997D01*
X292261843Y-211160682D01*
X292250794Y-211151178D01*
X291960816Y-210901758D01*
X291960813Y-210901756D01*
X291958401Y-210899681D01*
X291630136Y-210670680D01*
X291280410Y-210476025D01*
X291277490Y-210474767D01*
X291277485Y-210474765D01*
X290915738Y-210318972D01*
X290915728Y-210318968D01*
X290912804Y-210317709D01*
X290531080Y-210197352D01*
X290249854Y-210139113D01*
X290142272Y-210116834D01*
X290142269Y-210116834D01*
X290139147Y-210116187D01*
X289833738Y-210084626D01*
X289744175Y-210075370D01*
X289744172Y-210075370D01*
X289741019Y-210075044D01*
X289737852Y-210075038D01*
X289737843Y-210075038D01*
X289540515Y-210074694D01*
X289340771Y-210074345D01*
X289040480Y-210104318D01*
X288945686Y-210113780D01*
X288945684Y-210113780D01*
X288942501Y-210114098D01*
X288939361Y-210114737D01*
X288939360Y-210114737D01*
X288553422Y-210193257D01*
X288553415Y-210193259D01*
X288550288Y-210193895D01*
X288168146Y-210312919D01*
X288165218Y-210314168D01*
X287802919Y-210468701D01*
X287802915Y-210468703D01*
X287799989Y-210469951D01*
X287797210Y-210471485D01*
X287797204Y-210471488D01*
X287754350Y-210495145D01*
X287449586Y-210663384D01*
X287446965Y-210665199D01*
X287446960Y-210665202D01*
X287439049Y-210670680D01*
X287120524Y-210891237D01*
X286816172Y-211151178D01*
X286813972Y-211153480D01*
X286813969Y-211153483D01*
X286699206Y-211273576D01*
X286539648Y-211440544D01*
X286537691Y-211443058D01*
X286537690Y-211443059D01*
X286367711Y-211661407D01*
X286293781Y-211756374D01*
X286292085Y-211759078D01*
X286292082Y-211759082D01*
X286274299Y-211787431D01*
X286081090Y-212095434D01*
X285903751Y-212454251D01*
X285902637Y-212457232D01*
X285902636Y-212457233D01*
X285868642Y-212548154D01*
X285763581Y-212829153D01*
X285662015Y-213216300D01*
X285641086Y-213349949D01*
X285627702Y-213435420D01*
X285600092Y-213611730D01*
X285599921Y-213614892D01*
X285599920Y-213614899D01*
X285599348Y-213625464D01*
X285578447Y-214011392D01*
X262754878Y-214011392D01*
X262753504Y-213984264D01*
X262735488Y-213628637D01*
X262735487Y-213628632D01*
X262735327Y-213625464D01*
X262674785Y-213229821D01*
X262596818Y-212928344D01*
X262575368Y-212845401D01*
X262575365Y-212845393D01*
X262574571Y-212842321D01*
X262569700Y-212829153D01*
X262436820Y-212469929D01*
X262436817Y-212469923D01*
X262435711Y-212466932D01*
X262259626Y-212107498D01*
X262133499Y-211904867D01*
X262049806Y-211770408D01*
X262049798Y-211770397D01*
X262048119Y-211767699D01*
X261824760Y-211478705D01*
X261805308Y-211453537D01*
X261805303Y-211453532D01*
X261803356Y-211451012D01*
X261754113Y-211399121D01*
X261530042Y-211162999D01*
X261530039Y-211162997D01*
X261527843Y-211160682D01*
X261516794Y-211151178D01*
X261226816Y-210901758D01*
X261226813Y-210901756D01*
X261224401Y-210899681D01*
X260896136Y-210670680D01*
X260546410Y-210476025D01*
X260543490Y-210474767D01*
X260543485Y-210474765D01*
X260181738Y-210318972D01*
X260181728Y-210318968D01*
X260178804Y-210317709D01*
X259797080Y-210197352D01*
X259515854Y-210139113D01*
X259408272Y-210116834D01*
X259408269Y-210116834D01*
X259405147Y-210116187D01*
X259099738Y-210084626D01*
X259010175Y-210075370D01*
X259010172Y-210075370D01*
X259007019Y-210075044D01*
X259003852Y-210075038D01*
X259003843Y-210075038D01*
X258806515Y-210074694D01*
X258606771Y-210074345D01*
X258306480Y-210104318D01*
X258211686Y-210113780D01*
X258211684Y-210113780D01*
X258208501Y-210114098D01*
X258205361Y-210114737D01*
X258205360Y-210114737D01*
X257819422Y-210193257D01*
X257819415Y-210193259D01*
X257816288Y-210193895D01*
X257434146Y-210312919D01*
X257431218Y-210314168D01*
X257068919Y-210468701D01*
X257068915Y-210468703D01*
X257065989Y-210469951D01*
X257063210Y-210471485D01*
X257063204Y-210471488D01*
X257020350Y-210495145D01*
X256715586Y-210663384D01*
X256712965Y-210665199D01*
X256712960Y-210665202D01*
X256705049Y-210670680D01*
X256386524Y-210891237D01*
X256082172Y-211151178D01*
X256079972Y-211153480D01*
X256079969Y-211153483D01*
X255965206Y-211273576D01*
X255805648Y-211440544D01*
X255803691Y-211443058D01*
X255803690Y-211443059D01*
X255633711Y-211661407D01*
X255559781Y-211756374D01*
X255558085Y-211759078D01*
X255558082Y-211759082D01*
X255540299Y-211787431D01*
X255347090Y-212095434D01*
X255169751Y-212454251D01*
X255168637Y-212457232D01*
X255168636Y-212457233D01*
X255134642Y-212548154D01*
X255029581Y-212829153D01*
X254928015Y-213216300D01*
X254907086Y-213349949D01*
X254893702Y-213435420D01*
X254866092Y-213611730D01*
X254865921Y-213614892D01*
X254865920Y-213614899D01*
X254865348Y-213625464D01*
X254844447Y-214011392D01*
X243126500Y-214011392D01*
X243126500Y-205020857D01*
X322527644Y-205020857D01*
X322532500Y-205020857D01*
X322532500Y-223069308D01*
X322532455Y-223120763D01*
X322538597Y-223133554D01*
X322539713Y-223138467D01*
X322542350Y-223146017D01*
X322544532Y-223150551D01*
X322547688Y-223164385D01*
X322556529Y-223175480D01*
X322558875Y-223180354D01*
X322562546Y-223186206D01*
X322565912Y-223190438D01*
X322572052Y-223203224D01*
X322583131Y-223212084D01*
X322586265Y-223216024D01*
X322591916Y-223221685D01*
X322595852Y-223224827D01*
X322604695Y-223235924D01*
X322617477Y-223242089D01*
X322621704Y-223245463D01*
X322627547Y-223249142D01*
X322632410Y-223251493D01*
X322643492Y-223260356D01*
X322657320Y-223263536D01*
X322661851Y-223265726D01*
X322669397Y-223268376D01*
X322674307Y-223269500D01*
X322687087Y-223275665D01*
X322710155Y-223275685D01*
X322710153Y-223277710D01*
X322710219Y-223277726D01*
X322710219Y-223275700D01*
X322727108Y-223275700D01*
X322778563Y-223275745D01*
X322778559Y-223280550D01*
X322778657Y-223280556D01*
X322778657Y-223275700D01*
X335577108Y-223275700D01*
X335614374Y-223275733D01*
X335614376Y-223275733D01*
X335628563Y-223275745D01*
X335641354Y-223269603D01*
X335646267Y-223268487D01*
X335653817Y-223265850D01*
X335658351Y-223263668D01*
X335672185Y-223260512D01*
X335683280Y-223251671D01*
X335688154Y-223249325D01*
X335694006Y-223245654D01*
X335698238Y-223242288D01*
X335711024Y-223236148D01*
X335719884Y-223225069D01*
X335723824Y-223221935D01*
X335729485Y-223216284D01*
X335732627Y-223212348D01*
X335743724Y-223203505D01*
X335749889Y-223190723D01*
X335753263Y-223186496D01*
X335756942Y-223180653D01*
X335759293Y-223175790D01*
X335768156Y-223164708D01*
X335771336Y-223150880D01*
X335773526Y-223146349D01*
X335776176Y-223138803D01*
X335777300Y-223133893D01*
X335783465Y-223121113D01*
X335783485Y-223098045D01*
X335785510Y-223098047D01*
X335785526Y-223097981D01*
X335783500Y-223097981D01*
X335783500Y-223081092D01*
X335783545Y-223029637D01*
X335788350Y-223029641D01*
X335788356Y-223029543D01*
X335783500Y-223029543D01*
X335783500Y-214011392D01*
X355936447Y-214011392D01*
X355936597Y-214014574D01*
X355937098Y-214025200D01*
X355954595Y-214396224D01*
X355955301Y-214411197D01*
X356014462Y-214807049D01*
X356015248Y-214810131D01*
X356015248Y-214810133D01*
X356034792Y-214886805D01*
X356113323Y-215194896D01*
X356132386Y-215246988D01*
X356218260Y-215481649D01*
X356250872Y-215570767D01*
X356252264Y-215573633D01*
X356422804Y-215924847D01*
X356425701Y-215930814D01*
X356636021Y-216271350D01*
X356637964Y-216273883D01*
X356637966Y-216273885D01*
X356867994Y-216573662D01*
X356879677Y-216588888D01*
X357154174Y-216880178D01*
X357156579Y-216882262D01*
X357156585Y-216882267D01*
X357189481Y-216910762D01*
X357456704Y-217142237D01*
X357784167Y-217372382D01*
X357835119Y-217400975D01*
X358110042Y-217555255D01*
X358133211Y-217568257D01*
X358136126Y-217569524D01*
X358136129Y-217569526D01*
X358171586Y-217584943D01*
X358500263Y-217727856D01*
X358881565Y-217849544D01*
X359094336Y-217894382D01*
X359270092Y-217931420D01*
X359270097Y-217931421D01*
X359273211Y-217932077D01*
X359671194Y-217974609D01*
X359674382Y-217974626D01*
X359674387Y-217974626D01*
X359855973Y-217975577D01*
X360071437Y-217976705D01*
X360222994Y-217962112D01*
X360466678Y-217938648D01*
X360466683Y-217938647D01*
X360469843Y-217938343D01*
X360472962Y-217937720D01*
X360472967Y-217937719D01*
X360666454Y-217899056D01*
X360862332Y-217859916D01*
X361156118Y-217769536D01*
X361241845Y-217743163D01*
X361241848Y-217743162D01*
X361244887Y-217742227D01*
X361247815Y-217740990D01*
X361247821Y-217740988D01*
X361413986Y-217670796D01*
X361613590Y-217586480D01*
X361616393Y-217584946D01*
X361616398Y-217584943D01*
X361776782Y-217497135D01*
X361964667Y-217394271D01*
X362294522Y-217167568D01*
X362296961Y-217165500D01*
X362296967Y-217165495D01*
X362597338Y-216910762D01*
X362599779Y-216908692D01*
X362601985Y-216906400D01*
X362601991Y-216906394D01*
X362875105Y-216622585D01*
X362877312Y-216620292D01*
X363124280Y-216305322D01*
X363338153Y-215967008D01*
X363339573Y-215964160D01*
X363339578Y-215964151D01*
X363515323Y-215611659D01*
X363516743Y-215608811D01*
X363658221Y-215234401D01*
X363668733Y-215194896D01*
X363750709Y-214886805D01*
X363761138Y-214847611D01*
X363768140Y-214803901D01*
X363823936Y-214455551D01*
X363824441Y-214452400D01*
X363847481Y-214052815D01*
X363847577Y-214025200D01*
X363845504Y-213984264D01*
X363827488Y-213628637D01*
X363827487Y-213628632D01*
X363827327Y-213625464D01*
X363766785Y-213229821D01*
X363688818Y-212928344D01*
X363667368Y-212845401D01*
X363667365Y-212845393D01*
X363666571Y-212842321D01*
X363661700Y-212829153D01*
X363528820Y-212469929D01*
X363528817Y-212469923D01*
X363527711Y-212466932D01*
X363351626Y-212107498D01*
X363225499Y-211904867D01*
X363141806Y-211770408D01*
X363141798Y-211770397D01*
X363140119Y-211767699D01*
X362916760Y-211478705D01*
X362897308Y-211453537D01*
X362897303Y-211453532D01*
X362895356Y-211451012D01*
X362846113Y-211399121D01*
X362622042Y-211162999D01*
X362622039Y-211162997D01*
X362619843Y-211160682D01*
X362608794Y-211151178D01*
X362318816Y-210901758D01*
X362318813Y-210901756D01*
X362316401Y-210899681D01*
X361988136Y-210670680D01*
X361638410Y-210476025D01*
X361635490Y-210474767D01*
X361635485Y-210474765D01*
X361273738Y-210318972D01*
X361273728Y-210318968D01*
X361270804Y-210317709D01*
X360889080Y-210197352D01*
X360607854Y-210139113D01*
X360500272Y-210116834D01*
X360500269Y-210116834D01*
X360497147Y-210116187D01*
X360191738Y-210084626D01*
X360102175Y-210075370D01*
X360102172Y-210075370D01*
X360099019Y-210075044D01*
X360095852Y-210075038D01*
X360095843Y-210075038D01*
X359898515Y-210074694D01*
X359698771Y-210074345D01*
X359398480Y-210104318D01*
X359303686Y-210113780D01*
X359303684Y-210113780D01*
X359300501Y-210114098D01*
X359297361Y-210114737D01*
X359297360Y-210114737D01*
X358911422Y-210193257D01*
X358911415Y-210193259D01*
X358908288Y-210193895D01*
X358526146Y-210312919D01*
X358523218Y-210314168D01*
X358160919Y-210468701D01*
X358160915Y-210468703D01*
X358157989Y-210469951D01*
X358155210Y-210471485D01*
X358155204Y-210471488D01*
X358112350Y-210495145D01*
X357807586Y-210663384D01*
X357804965Y-210665199D01*
X357804960Y-210665202D01*
X357797049Y-210670680D01*
X357478524Y-210891237D01*
X357174172Y-211151178D01*
X357171972Y-211153480D01*
X357171969Y-211153483D01*
X357057206Y-211273576D01*
X356897648Y-211440544D01*
X356895691Y-211443058D01*
X356895690Y-211443059D01*
X356725711Y-211661407D01*
X356651781Y-211756374D01*
X356650085Y-211759078D01*
X356650082Y-211759082D01*
X356632299Y-211787431D01*
X356439090Y-212095434D01*
X356261751Y-212454251D01*
X356260637Y-212457232D01*
X356260636Y-212457233D01*
X356226642Y-212548154D01*
X356121581Y-212829153D01*
X356020015Y-213216300D01*
X355999086Y-213349949D01*
X355985702Y-213435420D01*
X355958092Y-213611730D01*
X355957921Y-213614892D01*
X355957920Y-213614899D01*
X355957348Y-213625464D01*
X355936447Y-214011392D01*
X335783500Y-214011392D01*
X335783500Y-204981092D01*
X335783545Y-204929637D01*
X335777403Y-204916846D01*
X335776287Y-204911933D01*
X335773650Y-204904383D01*
X335771468Y-204899849D01*
X335768312Y-204886015D01*
X335759471Y-204874920D01*
X335757125Y-204870046D01*
X335753454Y-204864194D01*
X335750088Y-204859962D01*
X335743948Y-204847176D01*
X335732869Y-204838316D01*
X335729735Y-204834376D01*
X335724084Y-204828715D01*
X335720148Y-204825573D01*
X335711305Y-204814476D01*
X335698523Y-204808311D01*
X335694296Y-204804937D01*
X335688453Y-204801258D01*
X335683590Y-204798907D01*
X335672508Y-204790044D01*
X335658680Y-204786864D01*
X335654149Y-204784674D01*
X335646603Y-204782024D01*
X335641693Y-204780900D01*
X335628913Y-204774735D01*
X335605845Y-204774715D01*
X335605847Y-204772690D01*
X335605781Y-204772674D01*
X335605781Y-204774700D01*
X335588892Y-204774700D01*
X335537437Y-204774655D01*
X335537441Y-204769850D01*
X335537343Y-204769844D01*
X335537343Y-204774700D01*
X322738892Y-204774700D01*
X322701626Y-204774667D01*
X322701624Y-204774667D01*
X322687437Y-204774655D01*
X322674646Y-204780797D01*
X322669733Y-204781913D01*
X322662183Y-204784550D01*
X322657649Y-204786732D01*
X322643815Y-204789888D01*
X322632720Y-204798729D01*
X322627846Y-204801075D01*
X322621994Y-204804746D01*
X322617762Y-204808112D01*
X322604976Y-204814252D01*
X322596116Y-204825331D01*
X322592176Y-204828465D01*
X322586515Y-204834116D01*
X322583373Y-204838052D01*
X322572276Y-204846895D01*
X322566111Y-204859677D01*
X322562737Y-204863904D01*
X322559058Y-204869747D01*
X322556707Y-204874610D01*
X322547844Y-204885692D01*
X322544664Y-204899520D01*
X322542474Y-204904051D01*
X322539824Y-204911597D01*
X322538700Y-204916507D01*
X322532535Y-204929287D01*
X322532515Y-204952355D01*
X322530490Y-204952353D01*
X322530474Y-204952419D01*
X322532500Y-204952419D01*
X322532500Y-204969308D01*
X322532455Y-205020763D01*
X322527650Y-205020759D01*
X322527644Y-205020857D01*
X243126500Y-205020857D01*
X243126500Y-183836192D01*
X254844447Y-183836192D01*
X254844597Y-183839374D01*
X254845098Y-183850000D01*
X254862595Y-184221024D01*
X254863301Y-184235997D01*
X254922462Y-184631849D01*
X255021323Y-185019696D01*
X255095703Y-185222950D01*
X255154409Y-185383370D01*
X255158872Y-185395567D01*
X255237347Y-185557180D01*
X255279477Y-185643943D01*
X255333701Y-185755614D01*
X255544021Y-186096150D01*
X255545964Y-186098683D01*
X255545966Y-186098685D01*
X255570089Y-186130122D01*
X255787677Y-186413688D01*
X256062174Y-186704978D01*
X256064579Y-186707062D01*
X256064585Y-186707067D01*
X256097481Y-186735562D01*
X256364704Y-186967037D01*
X256692167Y-187197182D01*
X256743119Y-187225775D01*
X257018042Y-187380055D01*
X257041211Y-187393057D01*
X257044126Y-187394324D01*
X257044129Y-187394326D01*
X257079586Y-187409743D01*
X257408263Y-187552656D01*
X257789565Y-187674344D01*
X258002336Y-187719182D01*
X258178092Y-187756220D01*
X258178097Y-187756221D01*
X258181211Y-187756877D01*
X258579194Y-187799409D01*
X258582382Y-187799426D01*
X258582387Y-187799426D01*
X258763973Y-187800377D01*
X258979437Y-187801505D01*
X259130994Y-187786912D01*
X259374678Y-187763448D01*
X259374683Y-187763447D01*
X259377843Y-187763143D01*
X259380962Y-187762520D01*
X259380967Y-187762519D01*
X259574454Y-187723856D01*
X259770332Y-187684716D01*
X260064118Y-187594336D01*
X260149845Y-187567963D01*
X260149848Y-187567962D01*
X260152887Y-187567027D01*
X260155815Y-187565790D01*
X260155821Y-187565788D01*
X260321986Y-187495596D01*
X260521590Y-187411280D01*
X260524393Y-187409746D01*
X260524398Y-187409743D01*
X260684782Y-187321935D01*
X260872667Y-187219071D01*
X261202522Y-186992368D01*
X261204961Y-186990300D01*
X261204967Y-186990295D01*
X261505338Y-186735562D01*
X261507779Y-186733492D01*
X261509985Y-186731200D01*
X261509991Y-186731194D01*
X261783105Y-186447385D01*
X261785312Y-186445092D01*
X262032280Y-186130122D01*
X262246153Y-185791808D01*
X262247573Y-185788960D01*
X262247578Y-185788951D01*
X262423323Y-185436459D01*
X262424743Y-185433611D01*
X262535377Y-185140828D01*
X262565097Y-185062176D01*
X262565098Y-185062173D01*
X262566221Y-185059201D01*
X262576733Y-185019696D01*
X262668317Y-184675496D01*
X262669138Y-184672411D01*
X262676140Y-184628701D01*
X262731936Y-184280351D01*
X262732441Y-184277200D01*
X262740021Y-184145749D01*
X262751444Y-183947625D01*
X262755481Y-183877615D01*
X262755577Y-183850000D01*
X262755418Y-183846850D01*
X262753183Y-183802736D01*
X272362070Y-183802736D01*
X272362698Y-183815807D01*
X272374909Y-184070041D01*
X272427118Y-184332512D01*
X272517549Y-184584383D01*
X272519765Y-184588507D01*
X272587982Y-184715465D01*
X272644215Y-184820121D01*
X272647010Y-184823864D01*
X272647012Y-184823867D01*
X272801542Y-185030807D01*
X272804335Y-185034547D01*
X272807642Y-185037825D01*
X272807647Y-185037831D01*
X272991074Y-185219663D01*
X272994390Y-185222950D01*
X273210205Y-185381192D01*
X273214340Y-185383368D01*
X273214344Y-185383370D01*
X273343918Y-185451542D01*
X273447039Y-185505797D01*
X273451458Y-185507340D01*
X273695273Y-185592484D01*
X273695279Y-185592486D01*
X273699690Y-185594026D01*
X273962606Y-185643943D01*
X274089616Y-185648933D01*
X274225345Y-185654266D01*
X274225350Y-185654266D01*
X274230013Y-185654449D01*
X274325943Y-185643943D01*
X274491382Y-185625825D01*
X274491387Y-185625824D01*
X274496035Y-185625315D01*
X274611567Y-185594898D01*
X274750309Y-185558370D01*
X274754829Y-185557180D01*
X274879501Y-185503617D01*
X274996407Y-185453391D01*
X274996410Y-185453389D01*
X275000710Y-185451542D01*
X275004690Y-185449079D01*
X275004694Y-185449077D01*
X275224302Y-185313179D01*
X275224306Y-185313176D01*
X275228275Y-185310720D01*
X275302293Y-185248059D01*
X275428960Y-185140828D01*
X275428961Y-185140827D01*
X275432526Y-185137809D01*
X275538816Y-185016609D01*
X275605894Y-184940122D01*
X275605898Y-184940117D01*
X275608976Y-184936607D01*
X275620344Y-184918933D01*
X275751219Y-184715465D01*
X275751222Y-184715460D01*
X275753747Y-184711534D01*
X275863661Y-184467534D01*
X275917341Y-184277200D01*
X275935032Y-184214473D01*
X275935033Y-184214470D01*
X275936302Y-184209969D01*
X275954103Y-184070041D01*
X275969677Y-183947625D01*
X275969677Y-183947621D01*
X275970075Y-183944495D01*
X275972549Y-183850000D01*
X275971523Y-183836192D01*
X285578447Y-183836192D01*
X285578597Y-183839374D01*
X285579098Y-183850000D01*
X285596595Y-184221024D01*
X285597301Y-184235997D01*
X285656462Y-184631849D01*
X285755323Y-185019696D01*
X285829703Y-185222950D01*
X285888409Y-185383370D01*
X285892872Y-185395567D01*
X285971347Y-185557180D01*
X286013477Y-185643943D01*
X286067701Y-185755614D01*
X286278021Y-186096150D01*
X286279964Y-186098683D01*
X286279966Y-186098685D01*
X286304089Y-186130122D01*
X286521677Y-186413688D01*
X286796174Y-186704978D01*
X286798579Y-186707062D01*
X286798585Y-186707067D01*
X286831481Y-186735562D01*
X287098704Y-186967037D01*
X287426167Y-187197182D01*
X287477119Y-187225775D01*
X287752042Y-187380055D01*
X287775211Y-187393057D01*
X287778126Y-187394324D01*
X287778129Y-187394326D01*
X287813586Y-187409743D01*
X288142263Y-187552656D01*
X288523565Y-187674344D01*
X288736336Y-187719182D01*
X288912092Y-187756220D01*
X288912097Y-187756221D01*
X288915211Y-187756877D01*
X289313194Y-187799409D01*
X289316382Y-187799426D01*
X289316387Y-187799426D01*
X289497973Y-187800377D01*
X289713437Y-187801505D01*
X289864994Y-187786912D01*
X290108678Y-187763448D01*
X290108683Y-187763447D01*
X290111843Y-187763143D01*
X290114962Y-187762520D01*
X290114967Y-187762519D01*
X290308454Y-187723856D01*
X290504332Y-187684716D01*
X290798118Y-187594336D01*
X290883845Y-187567963D01*
X290883848Y-187567962D01*
X290886887Y-187567027D01*
X290889815Y-187565790D01*
X290889821Y-187565788D01*
X291055986Y-187495596D01*
X291255590Y-187411280D01*
X291258393Y-187409746D01*
X291258398Y-187409743D01*
X291418782Y-187321935D01*
X291606667Y-187219071D01*
X291936522Y-186992368D01*
X291938961Y-186990300D01*
X291938967Y-186990295D01*
X292239338Y-186735562D01*
X292241779Y-186733492D01*
X292243985Y-186731200D01*
X292243991Y-186731194D01*
X292517105Y-186447385D01*
X292519312Y-186445092D01*
X292766280Y-186130122D01*
X292980153Y-185791808D01*
X292981573Y-185788960D01*
X292981578Y-185788951D01*
X293157323Y-185436459D01*
X293158743Y-185433611D01*
X293269377Y-185140828D01*
X293299097Y-185062176D01*
X293299098Y-185062173D01*
X293300221Y-185059201D01*
X293310733Y-185019696D01*
X293402317Y-184675496D01*
X293403138Y-184672411D01*
X293410140Y-184628701D01*
X293465936Y-184280351D01*
X293466441Y-184277200D01*
X293474021Y-184145749D01*
X293485444Y-183947625D01*
X293489481Y-183877615D01*
X293489577Y-183850000D01*
X293489418Y-183846850D01*
X293488878Y-183836192D01*
X355936447Y-183836192D01*
X355936597Y-183839374D01*
X355937098Y-183850000D01*
X355954595Y-184221024D01*
X355955301Y-184235997D01*
X356014462Y-184631849D01*
X356113323Y-185019696D01*
X356187703Y-185222950D01*
X356246409Y-185383370D01*
X356250872Y-185395567D01*
X356329347Y-185557180D01*
X356371477Y-185643943D01*
X356425701Y-185755614D01*
X356636021Y-186096150D01*
X356637964Y-186098683D01*
X356637966Y-186098685D01*
X356662089Y-186130122D01*
X356879677Y-186413688D01*
X357154174Y-186704978D01*
X357156579Y-186707062D01*
X357156585Y-186707067D01*
X357189481Y-186735562D01*
X357456704Y-186967037D01*
X357784167Y-187197182D01*
X357835119Y-187225775D01*
X358110042Y-187380055D01*
X358133211Y-187393057D01*
X358136126Y-187394324D01*
X358136129Y-187394326D01*
X358171586Y-187409743D01*
X358500263Y-187552656D01*
X358881565Y-187674344D01*
X359094336Y-187719182D01*
X359270092Y-187756220D01*
X359270097Y-187756221D01*
X359273211Y-187756877D01*
X359671194Y-187799409D01*
X359674382Y-187799426D01*
X359674387Y-187799426D01*
X359855973Y-187800377D01*
X360071437Y-187801505D01*
X360222994Y-187786912D01*
X360466678Y-187763448D01*
X360466683Y-187763447D01*
X360469843Y-187763143D01*
X360472962Y-187762520D01*
X360472967Y-187762519D01*
X360666454Y-187723856D01*
X360862332Y-187684716D01*
X361156118Y-187594336D01*
X361241845Y-187567963D01*
X361241848Y-187567962D01*
X361244887Y-187567027D01*
X361247815Y-187565790D01*
X361247821Y-187565788D01*
X361413986Y-187495596D01*
X361613590Y-187411280D01*
X361616393Y-187409746D01*
X361616398Y-187409743D01*
X361776782Y-187321935D01*
X361964667Y-187219071D01*
X362294522Y-186992368D01*
X362296961Y-186990300D01*
X362296967Y-186990295D01*
X362597338Y-186735562D01*
X362599779Y-186733492D01*
X362601985Y-186731200D01*
X362601991Y-186731194D01*
X362875105Y-186447385D01*
X362877312Y-186445092D01*
X363124280Y-186130122D01*
X363338153Y-185791808D01*
X363339573Y-185788960D01*
X363339578Y-185788951D01*
X363515323Y-185436459D01*
X363516743Y-185433611D01*
X363627377Y-185140828D01*
X363657097Y-185062176D01*
X363657098Y-185062173D01*
X363658221Y-185059201D01*
X363668733Y-185019696D01*
X363760317Y-184675496D01*
X363761138Y-184672411D01*
X363768140Y-184628701D01*
X363823936Y-184280351D01*
X363824441Y-184277200D01*
X363832021Y-184145749D01*
X363843444Y-183947625D01*
X363847481Y-183877615D01*
X363847577Y-183850000D01*
X363847418Y-183846850D01*
X363827488Y-183453437D01*
X363827487Y-183453432D01*
X363827327Y-183450264D01*
X363775568Y-183112017D01*
X363767269Y-183057781D01*
X363767267Y-183057772D01*
X363766785Y-183054621D01*
X363743908Y-182966162D01*
X363667368Y-182670201D01*
X363667365Y-182670193D01*
X363666571Y-182667121D01*
X363660600Y-182650979D01*
X363528820Y-182294729D01*
X363528817Y-182294723D01*
X363527711Y-182291732D01*
X363351626Y-181932298D01*
X363246655Y-181763656D01*
X363141806Y-181595208D01*
X363141798Y-181595197D01*
X363140119Y-181592499D01*
X362895356Y-181275812D01*
X362619843Y-180985482D01*
X362608794Y-180975978D01*
X362318816Y-180726558D01*
X362318813Y-180726556D01*
X362316401Y-180724481D01*
X361988136Y-180495480D01*
X361638410Y-180300825D01*
X361635490Y-180299567D01*
X361635485Y-180299565D01*
X361273738Y-180143772D01*
X361273728Y-180143768D01*
X361270804Y-180142509D01*
X360889080Y-180022152D01*
X360607854Y-179963913D01*
X360500272Y-179941634D01*
X360500269Y-179941634D01*
X360497147Y-179940987D01*
X360191738Y-179909426D01*
X360102175Y-179900170D01*
X360102172Y-179900170D01*
X360099019Y-179899844D01*
X360095852Y-179899838D01*
X360095843Y-179899838D01*
X359898515Y-179899494D01*
X359698771Y-179899145D01*
X359398479Y-179929118D01*
X359303686Y-179938580D01*
X359303684Y-179938580D01*
X359300501Y-179938898D01*
X359297361Y-179939537D01*
X359297360Y-179939537D01*
X358911422Y-180018057D01*
X358911415Y-180018059D01*
X358908288Y-180018695D01*
X358526146Y-180137719D01*
X358523218Y-180138968D01*
X358160919Y-180293501D01*
X358160915Y-180293503D01*
X358157989Y-180294751D01*
X358155210Y-180296285D01*
X358155204Y-180296288D01*
X358112350Y-180319945D01*
X357807586Y-180488184D01*
X357804965Y-180489999D01*
X357804960Y-180490002D01*
X357797049Y-180495480D01*
X357478524Y-180716037D01*
X357174172Y-180975978D01*
X357171972Y-180978280D01*
X357171969Y-180978283D01*
X357053682Y-181102064D01*
X356897648Y-181265344D01*
X356895691Y-181267858D01*
X356895690Y-181267859D01*
X356734497Y-181474921D01*
X356651781Y-181581174D01*
X356650085Y-181583878D01*
X356650082Y-181583882D01*
X356537311Y-181763656D01*
X356439090Y-181920234D01*
X356261751Y-182279051D01*
X356260637Y-182282032D01*
X356260636Y-182282033D01*
X356200017Y-182444166D01*
X356121581Y-182653953D01*
X356020015Y-183041100D01*
X356008910Y-183112017D01*
X355963971Y-183398989D01*
X355958092Y-183436530D01*
X355957921Y-183439692D01*
X355957920Y-183439699D01*
X355949900Y-183587788D01*
X355936447Y-183836192D01*
X293488878Y-183836192D01*
X293469488Y-183453437D01*
X293469487Y-183453432D01*
X293469327Y-183450264D01*
X293417568Y-183112017D01*
X293409269Y-183057781D01*
X293409267Y-183057772D01*
X293408785Y-183054621D01*
X293385908Y-182966162D01*
X293309368Y-182670201D01*
X293309365Y-182670193D01*
X293308571Y-182667121D01*
X293302600Y-182650979D01*
X293170820Y-182294729D01*
X293170817Y-182294723D01*
X293169711Y-182291732D01*
X292993626Y-181932298D01*
X292888655Y-181763656D01*
X292783806Y-181595208D01*
X292783798Y-181595197D01*
X292782119Y-181592499D01*
X292537356Y-181275812D01*
X292261843Y-180985482D01*
X292250794Y-180975978D01*
X291960816Y-180726558D01*
X291960813Y-180726556D01*
X291958401Y-180724481D01*
X291630136Y-180495480D01*
X291280410Y-180300825D01*
X291277490Y-180299567D01*
X291277485Y-180299565D01*
X290915738Y-180143772D01*
X290915728Y-180143768D01*
X290912804Y-180142509D01*
X290531080Y-180022152D01*
X290249854Y-179963913D01*
X290142272Y-179941634D01*
X290142269Y-179941634D01*
X290139147Y-179940987D01*
X289833738Y-179909426D01*
X289744175Y-179900170D01*
X289744172Y-179900170D01*
X289741019Y-179899844D01*
X289737852Y-179899838D01*
X289737843Y-179899838D01*
X289540515Y-179899494D01*
X289340771Y-179899145D01*
X289040479Y-179929118D01*
X288945686Y-179938580D01*
X288945684Y-179938580D01*
X288942501Y-179938898D01*
X288939361Y-179939537D01*
X288939360Y-179939537D01*
X288553422Y-180018057D01*
X288553415Y-180018059D01*
X288550288Y-180018695D01*
X288168146Y-180137719D01*
X288165218Y-180138968D01*
X287802919Y-180293501D01*
X287802915Y-180293503D01*
X287799989Y-180294751D01*
X287797210Y-180296285D01*
X287797204Y-180296288D01*
X287754350Y-180319945D01*
X287449586Y-180488184D01*
X287446965Y-180489999D01*
X287446960Y-180490002D01*
X287439049Y-180495480D01*
X287120524Y-180716037D01*
X286816172Y-180975978D01*
X286813972Y-180978280D01*
X286813969Y-180978283D01*
X286695682Y-181102064D01*
X286539648Y-181265344D01*
X286537691Y-181267858D01*
X286537690Y-181267859D01*
X286376497Y-181474921D01*
X286293781Y-181581174D01*
X286292085Y-181583878D01*
X286292082Y-181583882D01*
X286179311Y-181763656D01*
X286081090Y-181920234D01*
X285903751Y-182279051D01*
X285902637Y-182282032D01*
X285902636Y-182282033D01*
X285842017Y-182444166D01*
X285763581Y-182653953D01*
X285662015Y-183041100D01*
X285650910Y-183112017D01*
X285605971Y-183398989D01*
X285600092Y-183436530D01*
X285599921Y-183439692D01*
X285599920Y-183439699D01*
X285591900Y-183587788D01*
X285578447Y-183836192D01*
X275971523Y-183836192D01*
X275968691Y-183798081D01*
X275953064Y-183587788D01*
X275953063Y-183587784D01*
X275952717Y-183583123D01*
X275942161Y-183536470D01*
X275894686Y-183326666D01*
X275893655Y-183322109D01*
X275796662Y-183072691D01*
X275776847Y-183038021D01*
X275666187Y-182844408D01*
X275663868Y-182840350D01*
X275498190Y-182630189D01*
X275303269Y-182446825D01*
X275083385Y-182294286D01*
X275078206Y-182291732D01*
X274847559Y-182177989D01*
X274847556Y-182177988D01*
X274843371Y-182175924D01*
X274588497Y-182094338D01*
X274443134Y-182070665D01*
X274328976Y-182052073D01*
X274328975Y-182052073D01*
X274324364Y-182051322D01*
X274190569Y-182049570D01*
X274061451Y-182047880D01*
X274061448Y-182047880D01*
X274056774Y-182047819D01*
X273791605Y-182083907D01*
X273787118Y-182085215D01*
X273787117Y-182085215D01*
X273755817Y-182094338D01*
X273534683Y-182158792D01*
X273530430Y-182160752D01*
X273530429Y-182160753D01*
X273478512Y-182184687D01*
X273291652Y-182270831D01*
X273274566Y-182282033D01*
X273071764Y-182414996D01*
X273071759Y-182415000D01*
X273067851Y-182417562D01*
X273027128Y-182453909D01*
X272893151Y-182573488D01*
X272868197Y-182595760D01*
X272697075Y-182801512D01*
X272694652Y-182805505D01*
X272578995Y-182996102D01*
X272558244Y-183030298D01*
X272556437Y-183034606D01*
X272556437Y-183034607D01*
X272548045Y-183054621D01*
X272454755Y-183277091D01*
X272453604Y-183281623D01*
X272453603Y-183281626D01*
X272390033Y-183531933D01*
X272388881Y-183536470D01*
X272362070Y-183802736D01*
X262753183Y-183802736D01*
X262735488Y-183453437D01*
X262735487Y-183453432D01*
X262735327Y-183450264D01*
X262683568Y-183112017D01*
X262675269Y-183057781D01*
X262675267Y-183057772D01*
X262674785Y-183054621D01*
X262651908Y-182966162D01*
X262575368Y-182670201D01*
X262575365Y-182670193D01*
X262574571Y-182667121D01*
X262568600Y-182650979D01*
X262436820Y-182294729D01*
X262436817Y-182294723D01*
X262435711Y-182291732D01*
X262259626Y-181932298D01*
X262154655Y-181763656D01*
X262049806Y-181595208D01*
X262049798Y-181595197D01*
X262048119Y-181592499D01*
X261803356Y-181275812D01*
X261527843Y-180985482D01*
X261516794Y-180975978D01*
X261226816Y-180726558D01*
X261226813Y-180726556D01*
X261224401Y-180724481D01*
X260896136Y-180495480D01*
X260546410Y-180300825D01*
X260543490Y-180299567D01*
X260543485Y-180299565D01*
X260181738Y-180143772D01*
X260181728Y-180143768D01*
X260178804Y-180142509D01*
X259797080Y-180022152D01*
X259515854Y-179963913D01*
X259408272Y-179941634D01*
X259408269Y-179941634D01*
X259405147Y-179940987D01*
X259099738Y-179909426D01*
X259010175Y-179900170D01*
X259010172Y-179900170D01*
X259007019Y-179899844D01*
X259003852Y-179899838D01*
X259003843Y-179899838D01*
X258806515Y-179899494D01*
X258606771Y-179899145D01*
X258306479Y-179929118D01*
X258211686Y-179938580D01*
X258211684Y-179938580D01*
X258208501Y-179938898D01*
X258205361Y-179939537D01*
X258205360Y-179939537D01*
X257819422Y-180018057D01*
X257819415Y-180018059D01*
X257816288Y-180018695D01*
X257434146Y-180137719D01*
X257431218Y-180138968D01*
X257068919Y-180293501D01*
X257068915Y-180293503D01*
X257065989Y-180294751D01*
X257063210Y-180296285D01*
X257063204Y-180296288D01*
X257020350Y-180319945D01*
X256715586Y-180488184D01*
X256712965Y-180489999D01*
X256712960Y-180490002D01*
X256705049Y-180495480D01*
X256386524Y-180716037D01*
X256082172Y-180975978D01*
X256079972Y-180978280D01*
X256079969Y-180978283D01*
X255961682Y-181102064D01*
X255805648Y-181265344D01*
X255803691Y-181267858D01*
X255803690Y-181267859D01*
X255642497Y-181474921D01*
X255559781Y-181581174D01*
X255558085Y-181583878D01*
X255558082Y-181583882D01*
X255445311Y-181763656D01*
X255347090Y-181920234D01*
X255169751Y-182279051D01*
X255168637Y-182282032D01*
X255168636Y-182282033D01*
X255108017Y-182444166D01*
X255029581Y-182653953D01*
X254928015Y-183041100D01*
X254916910Y-183112017D01*
X254871971Y-183398989D01*
X254866092Y-183436530D01*
X254865921Y-183439692D01*
X254865920Y-183439699D01*
X254857900Y-183587788D01*
X254844447Y-183836192D01*
X243126500Y-183836192D01*
X243126500Y-176955949D01*
X249450900Y-176955949D01*
X249452118Y-176977067D01*
X249464820Y-177197355D01*
X249517980Y-177433247D01*
X249519924Y-177438033D01*
X249519925Y-177438038D01*
X249607010Y-177652501D01*
X249608954Y-177657288D01*
X249735298Y-177863462D01*
X249893619Y-178046233D01*
X250079665Y-178200692D01*
X250288440Y-178322690D01*
X250514337Y-178408952D01*
X250519403Y-178409983D01*
X250519404Y-178409983D01*
X250625255Y-178431518D01*
X250751290Y-178457160D01*
X250887396Y-178462151D01*
X250987771Y-178465832D01*
X250987775Y-178465832D01*
X250992935Y-178466021D01*
X250998055Y-178465365D01*
X250998057Y-178465365D01*
X251227654Y-178435953D01*
X251227655Y-178435953D01*
X251232782Y-178435296D01*
X251326741Y-178407107D01*
X251459437Y-178367296D01*
X251464390Y-178365810D01*
X251681540Y-178259430D01*
X251878399Y-178119012D01*
X252049680Y-177948327D01*
X252190785Y-177751959D01*
X252297922Y-177535183D01*
X252368216Y-177303818D01*
X252382232Y-177197355D01*
X252399341Y-177067402D01*
X252399342Y-177067396D01*
X252399778Y-177064080D01*
X252401540Y-176992000D01*
X252398576Y-176955949D01*
X366290900Y-176955949D01*
X366292118Y-176977067D01*
X366304820Y-177197355D01*
X366357980Y-177433247D01*
X366359924Y-177438033D01*
X366359925Y-177438038D01*
X366447010Y-177652501D01*
X366448954Y-177657288D01*
X366575298Y-177863462D01*
X366733619Y-178046233D01*
X366919665Y-178200692D01*
X367128440Y-178322690D01*
X367354337Y-178408952D01*
X367359403Y-178409983D01*
X367359404Y-178409983D01*
X367465255Y-178431518D01*
X367591290Y-178457160D01*
X367727396Y-178462151D01*
X367827771Y-178465832D01*
X367827775Y-178465832D01*
X367832935Y-178466021D01*
X367838055Y-178465365D01*
X367838057Y-178465365D01*
X368067654Y-178435953D01*
X368067655Y-178435953D01*
X368072782Y-178435296D01*
X368166741Y-178407107D01*
X368299437Y-178367296D01*
X368304390Y-178365810D01*
X368521540Y-178259430D01*
X368718399Y-178119012D01*
X368889680Y-177948327D01*
X369030785Y-177751959D01*
X369137922Y-177535183D01*
X369208216Y-177303818D01*
X369222232Y-177197355D01*
X369239341Y-177067402D01*
X369239342Y-177067396D01*
X369239778Y-177064080D01*
X369241540Y-176992000D01*
X369221727Y-176751006D01*
X369162819Y-176516484D01*
X369066398Y-176294732D01*
X368943878Y-176105344D01*
X368937863Y-176096046D01*
X368937861Y-176096043D01*
X368935055Y-176091706D01*
X368772316Y-175912858D01*
X368582551Y-175762991D01*
X368370858Y-175646130D01*
X368247374Y-175602402D01*
X368147795Y-175567139D01*
X368147791Y-175567138D01*
X368142920Y-175565413D01*
X368137827Y-175564506D01*
X368137824Y-175564505D01*
X367909950Y-175523914D01*
X367909944Y-175523913D01*
X367904861Y-175523008D01*
X367825039Y-175522033D01*
X367668242Y-175520117D01*
X367668240Y-175520117D01*
X367663072Y-175520054D01*
X367424047Y-175556630D01*
X367194205Y-175631754D01*
X366979720Y-175743408D01*
X366975587Y-175746511D01*
X366975584Y-175746513D01*
X366949369Y-175766196D01*
X366786350Y-175888594D01*
X366619290Y-176063413D01*
X366483025Y-176263169D01*
X366480851Y-176267852D01*
X366480849Y-176267856D01*
X366383395Y-176477804D01*
X366381216Y-176482499D01*
X366316596Y-176715511D01*
X366290900Y-176955949D01*
X252398576Y-176955949D01*
X252381727Y-176751006D01*
X252322819Y-176516484D01*
X252226398Y-176294732D01*
X252103878Y-176105344D01*
X252097863Y-176096046D01*
X252097861Y-176096043D01*
X252095055Y-176091706D01*
X251932316Y-175912858D01*
X251742551Y-175762991D01*
X251530858Y-175646130D01*
X251407374Y-175602402D01*
X251307795Y-175567139D01*
X251307791Y-175567138D01*
X251302920Y-175565413D01*
X251297827Y-175564506D01*
X251297824Y-175564505D01*
X251069950Y-175523914D01*
X251069944Y-175523913D01*
X251064861Y-175523008D01*
X250985039Y-175522033D01*
X250828242Y-175520117D01*
X250828240Y-175520117D01*
X250823072Y-175520054D01*
X250584047Y-175556630D01*
X250354205Y-175631754D01*
X250139720Y-175743408D01*
X250135587Y-175746511D01*
X250135584Y-175746513D01*
X250109369Y-175766196D01*
X249946350Y-175888594D01*
X249779290Y-176063413D01*
X249643025Y-176263169D01*
X249640851Y-176267852D01*
X249640849Y-176267856D01*
X249543395Y-176477804D01*
X249541216Y-176482499D01*
X249476596Y-176715511D01*
X249450900Y-176955949D01*
X243126500Y-176955949D01*
X243126500Y-172029371D01*
X243129755Y-172000918D01*
X243130043Y-171999676D01*
X243130044Y-171999669D01*
X243131655Y-171992718D01*
X243131656Y-171992000D01*
X243130075Y-171985067D01*
X243129283Y-171977993D01*
X243130348Y-171977874D01*
X243128516Y-171956113D01*
X243143706Y-171685620D01*
X243145288Y-171671579D01*
X243147766Y-171656998D01*
X243195504Y-171376028D01*
X243198647Y-171362257D01*
X243281641Y-171074180D01*
X243286308Y-171060843D01*
X243401030Y-170783879D01*
X243407161Y-170771148D01*
X243552172Y-170508772D01*
X243559689Y-170496808D01*
X243733170Y-170252309D01*
X243741980Y-170241262D01*
X243941740Y-170017731D01*
X243951731Y-170007740D01*
X244175262Y-169807980D01*
X244186309Y-169799170D01*
X244430808Y-169625689D01*
X244442772Y-169618172D01*
X244593159Y-169535056D01*
X244705152Y-169473159D01*
X244717875Y-169467032D01*
X244994849Y-169352306D01*
X245008180Y-169347641D01*
X245296257Y-169264647D01*
X245310028Y-169261504D01*
X245605584Y-169211287D01*
X245619616Y-169209706D01*
X245889828Y-169194531D01*
X245897621Y-169195197D01*
X245897622Y-169194451D01*
X245911813Y-169194476D01*
X245925641Y-169197656D01*
X245939480Y-169194525D01*
X245944311Y-169194533D01*
X245962504Y-169192500D01*
X372728920Y-169192500D01*
X372746242Y-169194466D01*
G37*
%TD.AperFunction*%
%TD*%
M02*
