G04 DesignSpark PCB Gerber Version 9.0 Build 5138 *
%FSLAX35Y35*%
%MOMM*%
%ADD87C,0.02540*%
%ADD10C,0.12700*%
%ADD14C,0.25400*%
%ADD13C,0.30480*%
X0Y0D02*
D02*
D10*
X87740Y1215240D02*
G75*
G02X527740I220000D01*
G01*
G75*
G02X87740I-220000*
G01*
X279930Y1297360D02*
X271990Y1305300D01*
X264050Y1321180*
Y1344990*
X271990Y1360860*
X279930Y1368800*
X295800Y1376740*
X327550*
X343430Y1368800*
X351370Y1360860*
X359300Y1344990*
Y1321180*
X351370Y1305300*
X343430Y1297360*
X264050Y1233860D02*
Y1202110D01*
Y1217990D02*
X359300D01*
X343430Y1233860*
X271990Y1114800D02*
X264050Y1098930D01*
Y1083050*
X271990Y1067180*
X287870Y1059240*
X335490*
X351370Y1067180*
X359300Y1083050*
Y1098930*
X351370Y1114800*
X335490Y1122740*
X287870*
X271990Y1114800*
X351370Y1067180*
X345240Y5138050D02*
Y5233300D01*
X400800*
X416680Y5225370*
X424620Y5209490*
X416680Y5193620*
X400800Y5185680*
X345240*
X400800D02*
X424620Y5138050D01*
X535740D02*
X472240D01*
X527800Y5193620*
X535740Y5209490*
X527800Y5225370*
X511930Y5233300*
X488120*
X472240Y5225370*
X662740Y5138050D02*
X599240D01*
X654800Y5193620*
X662740Y5209490*
X654800Y5225370*
X638930Y5233300*
X615120*
X599240Y5225370*
X473800Y5545240D02*
X433800D01*
X468800Y5580240*
X473800Y5590240*
X468800Y5600240*
X458800Y5605240*
X443800*
X433800Y5600240*
X518800Y5550240D02*
X528800Y5545240D01*
X538800*
X548800Y5550240*
X553800Y5560240*
Y5590240*
X548800Y5600240*
X538800Y5605240*
X528800*
X518800Y5600240*
X513800Y5590240*
Y5560240*
X518800Y5550240*
X548800Y5600240*
X443800Y5805240D02*
X463800D01*
X453800D02*
Y5865240D01*
X443800Y5855240*
X528800Y5805240D02*
X538800Y5810240D01*
X548800Y5820240*
X553800Y5835240*
Y5850240*
X548800Y5860240*
X538800Y5865240*
X528800*
X518800Y5860240*
X513800Y5850240*
X518800Y5840240*
X528800Y5835240*
X538800*
X548800Y5840240*
X553800Y5850240*
X443800Y6065240D02*
X463800D01*
X453800D02*
Y6125240D01*
X443800Y6115240*
X528800Y6095240D02*
X538800D01*
X548800Y6100240*
X553800Y6110240*
X548800Y6120240*
X538800Y6125240*
X528800*
X518800Y6120240*
X513800Y6110240*
X518800Y6100240*
X528800Y6095240*
X518800Y6090240*
X513800Y6080240*
X518800Y6070240*
X528800Y6065240*
X538800*
X548800Y6070240*
X553800Y6080240*
X548800Y6090240*
X538800Y6095240*
X443800Y6305240D02*
X463800D01*
X453800D02*
Y6365240D01*
X443800Y6355240*
X513800Y6305240D02*
X553800Y6365240D01*
X513800*
X443800Y6565240D02*
X463800D01*
X453800D02*
Y6625240D01*
X443800Y6615240*
X513800Y6580240D02*
X518800Y6590240D01*
X528800Y6595240*
X538800*
X548800Y6590240*
X553800Y6580240*
X548800Y6570240*
X538800Y6565240*
X528800*
X518800Y6570240*
X513800Y6580240*
Y6595240*
X518800Y6610240*
X528800Y6620240*
X538800Y6625240*
X443800Y6825240D02*
X463800D01*
X453800D02*
Y6885240D01*
X443800Y6875240*
X513800Y6830240D02*
X523800Y6825240D01*
X538800*
X548800Y6830240*
X553800Y6840240*
Y6845240*
X548800Y6855240*
X538800Y6860240*
X513800*
Y6885240*
X553800*
X443800Y7065240D02*
X463800D01*
X453800D02*
Y7125240D01*
X443800Y7115240*
X538800Y7065240D02*
Y7125240D01*
X513800Y7085240*
X553800*
X443800Y7325240D02*
X463800D01*
X453800D02*
Y7385240D01*
X443800Y7375240*
X518800Y7330240D02*
X528800Y7325240D01*
X538800*
X548800Y7330240*
X553800Y7340240*
X548800Y7350240*
X538800Y7355240*
X528800*
X538800D02*
X548800Y7360240D01*
X553800Y7370240*
X548800Y7380240*
X538800Y7385240*
X528800*
X518800Y7380240*
X443800Y7565240D02*
X463800D01*
X453800D02*
Y7625240D01*
X443800Y7615240*
X553800Y7565240D02*
X513800D01*
X548800Y7600240*
X553800Y7610240*
X548800Y7620240*
X538800Y7625240*
X523800*
X513800Y7620240*
X443800Y7825240D02*
X463800D01*
X453800D02*
Y7885240D01*
X443800Y7875240*
X523800Y7825240D02*
X543800D01*
X533800D02*
Y7885240D01*
X523800Y7875240*
X443800Y8085240D02*
X463800D01*
X453800D02*
Y8145240D01*
X443800Y8135240*
X518800Y8090240D02*
X528800Y8085240D01*
X538800*
X548800Y8090240*
X553800Y8100240*
Y8130240*
X548800Y8140240*
X538800Y8145240*
X528800*
X518800Y8140240*
X513800Y8130240*
Y8100240*
X518800Y8090240*
X548800Y8140240*
X448800Y8345240D02*
X458800Y8350240D01*
X468800Y8360240*
X473800Y8375240*
Y8390240*
X468800Y8400240*
X458800Y8405240*
X448800*
X438800Y8400240*
X433800Y8390240*
X438800Y8380240*
X448800Y8375240*
X458800*
X468800Y8380240*
X473800Y8390240*
X448800Y8635240D02*
X458800D01*
X468800Y8640240*
X473800Y8650240*
X468800Y8660240*
X458800Y8665240*
X448800*
X438800Y8660240*
X433800Y8650240*
X438800Y8640240*
X448800Y8635240*
X438800Y8630240*
X433800Y8620240*
X438800Y8610240*
X448800Y8605240*
X458800*
X468800Y8610240*
X473800Y8620240*
X468800Y8630240*
X458800Y8635240*
X433800Y8845240D02*
X473800Y8905240D01*
X433800*
Y9120240D02*
X438800Y9130240D01*
X448800Y9135240*
X458800*
X468800Y9130240*
X473800Y9120240*
X468800Y9110240*
X458800Y9105240*
X448800*
X438800Y9110240*
X433800Y9120240*
Y9135240*
X438800Y9150240*
X448800Y9160240*
X458800Y9165240*
X433800Y9350240D02*
X443800Y9345240D01*
X458800*
X468800Y9350240*
X473800Y9360240*
Y9365240*
X468800Y9375240*
X458800Y9380240*
X433800*
Y9405240*
X473800*
X458800Y9605240D02*
Y9665240D01*
X433800Y9625240*
X473800*
X438800Y9870240D02*
X448800Y9865240D01*
X458800*
X468800Y9870240*
X473800Y9880240*
X468800Y9890240*
X458800Y9895240*
X448800*
X458800D02*
X468800Y9900240D01*
X473800Y9910240*
X468800Y9920240*
X458800Y9925240*
X448800*
X438800Y9920240*
X473800Y10125240D02*
X433800D01*
X468800Y10160240*
X473800Y10170240*
X468800Y10180240*
X458800Y10185240*
X443800*
X433800Y10180240*
X443800Y10365240D02*
X463800D01*
X453800D02*
Y10425240D01*
X443800Y10415240*
X445240Y288050D02*
Y383300D01*
X500800*
X516680Y375370*
X524620Y359490*
X516680Y343620*
X500800Y335680*
X445240*
X500800D02*
X524620Y288050D01*
X580180Y295990D02*
X596050Y288050D01*
X611930*
X627800Y295990*
X635740Y311870*
X627800Y327740*
X611930Y335680*
X596050*
X611930D02*
X627800Y343620D01*
X635740Y359490*
X627800Y375370*
X611930Y383300*
X596050*
X580180Y375370*
X707180Y295990D02*
X723050Y288050D01*
X738930*
X754800Y295990*
X762740Y311870*
Y359490*
X754800Y375370*
X738930Y383300*
X723050*
X707180Y375370*
X699240Y359490*
Y311870*
X707180Y295990*
X754800Y375370*
X445240Y538050D02*
Y633300D01*
X500800*
X516680Y625370*
X524620Y609490*
X516680Y593620*
X500800Y585680*
X445240*
X500800D02*
X524620Y538050D01*
X580180Y545990D02*
X596050Y538050D01*
X611930*
X627800Y545990*
X635740Y561870*
X627800Y577740*
X611930Y585680*
X596050*
X611930D02*
X627800Y593620D01*
X635740Y609490*
X627800Y625370*
X611930Y633300*
X596050*
X580180Y625370*
X699240Y561870D02*
X707180Y577740D01*
X723050Y585680*
X738930*
X754800Y577740*
X762740Y561870*
X754800Y545990*
X738930Y538050*
X723050*
X707180Y545990*
X699240Y561870*
Y585680*
X707180Y609490*
X723050Y625370*
X738930Y633300*
X445240Y788050D02*
Y883300D01*
X500800*
X516680Y875370*
X524620Y859490*
X516680Y843620*
X500800Y835680*
X445240*
X500800D02*
X524620Y788050D01*
X635740D02*
X572240D01*
X627800Y843620*
X635740Y859490*
X627800Y875370*
X611930Y883300*
X588120*
X572240Y875370*
X470240Y1538050D02*
Y1633300D01*
X525800*
X541680Y1625370*
X549620Y1609490*
X541680Y1593620*
X525800Y1585680*
X470240*
X525800D02*
X549620Y1538050D01*
X613120D02*
X644870D01*
X628990D02*
Y1633300D01*
X613120Y1617430*
X470240Y1788050D02*
Y1883300D01*
X525800*
X541680Y1875370*
X549620Y1859490*
X541680Y1843620*
X525800Y1835680*
X470240*
X525800D02*
X549620Y1788050D01*
X605180Y1795990D02*
X621050Y1788050D01*
X636930*
X652800Y1795990*
X660740Y1811870*
X652800Y1827740*
X636930Y1835680*
X621050*
X636930D02*
X652800Y1843620D01*
X660740Y1859490*
X652800Y1875370*
X636930Y1883300*
X621050*
X605180Y1875370*
X724240Y1795990D02*
X740120Y1788050D01*
X763930*
X779800Y1795990*
X787740Y1811870*
Y1819800*
X779800Y1835680*
X763930Y1843620*
X724240*
Y1883300*
X787740*
X470240Y2038050D02*
Y2133300D01*
X525800*
X541680Y2125370*
X549620Y2109490*
X541680Y2093620*
X525800Y2085680*
X470240*
X525800D02*
X549620Y2038050D01*
X660740D02*
X597240D01*
X652800Y2093620*
X660740Y2109490*
X652800Y2125370*
X636930Y2133300*
X613120*
X597240Y2125370*
X748050Y2038050D02*
X763930Y2045990D01*
X779800Y2061870*
X787740Y2085680*
Y2109490*
X779800Y2125370*
X763930Y2133300*
X748050*
X732180Y2125370*
X724240Y2109490*
X732180Y2093620*
X748050Y2085680*
X763930*
X779800Y2093620*
X787740Y2109490*
X470240Y2688050D02*
Y2783300D01*
X525800*
X541680Y2775370*
X549620Y2759490*
X541680Y2743620*
X525800Y2735680*
X470240*
X525800D02*
X549620Y2688050D01*
X660740D02*
X597240D01*
X652800Y2743620*
X660740Y2759490*
X652800Y2775370*
X636930Y2783300*
X613120*
X597240Y2775370*
X748050Y2735680D02*
X763930D01*
X779800Y2743620*
X787740Y2759490*
X779800Y2775370*
X763930Y2783300*
X748050*
X732180Y2775370*
X724240Y2759490*
X732180Y2743620*
X748050Y2735680*
X732180Y2727740*
X724240Y2711870*
X732180Y2695990*
X748050Y2688050*
X763930*
X779800Y2695990*
X787740Y2711870*
X779800Y2727740*
X763930Y2735680*
X470240Y2963050D02*
Y3058300D01*
X525800*
X541680Y3050370*
X549620Y3034490*
X541680Y3018620*
X525800Y3010680*
X470240*
X525800D02*
X549620Y2963050D01*
X660740D02*
X597240D01*
X652800Y3018620*
X660740Y3034490*
X652800Y3050370*
X636930Y3058300*
X613120*
X597240Y3050370*
X740120Y2963050D02*
X771870D01*
X755990D02*
Y3058300D01*
X740120Y3042430*
X562740Y1215240D02*
G75*
G02X1002740I220000D01*
G01*
G75*
G02X562740I-220000*
G01*
X680050Y5875240D02*
X605050D01*
Y5918990*
X611300Y5931490*
X623800Y5937740*
X636300Y5931490*
X642550Y5918990*
Y5875240*
Y5918990D02*
X680050Y5937740D01*
X636300Y5975240D02*
X630050Y5987740D01*
Y6006490*
X636300Y6018990*
X648800Y6025240*
X667550*
X673800Y6018990*
X680050Y6006490*
Y5993990*
X673800Y5981490*
X667550Y5975240*
X661300*
X655050Y5981490*
X648800Y5993990*
Y6006490*
X655050Y6018990*
X661300Y6025240*
X667550D02*
X680050D01*
X673800Y6075240D02*
X680050Y6087740D01*
Y6112740*
X673800Y6125240*
X661300*
X655050Y6112740*
Y6087740*
X648800Y6075240*
X636300*
X630050Y6087740*
Y6112740*
X636300Y6125240*
X630050Y6175240D02*
X698800D01*
X661300D02*
X673800Y6181490D01*
X680050Y6193990*
Y6206490*
X673800Y6218990*
X661300Y6225240*
X648800*
X636300Y6218990*
X630050Y6206490*
Y6193990*
X636300Y6181490*
X648800Y6175240*
X661300*
Y6275240D02*
X673800Y6281490D01*
X680050Y6293990*
Y6306490*
X673800Y6318990*
X661300Y6325240*
X648800*
X636300Y6318990*
X630050Y6306490*
Y6293990*
X636300Y6281490*
X648800Y6275240*
X680050D02*
X605050D01*
X673800Y6425240D02*
X680050Y6418990D01*
Y6406490*
Y6393990*
X673800Y6381490*
X661300Y6375240*
X642550*
X636300Y6381490*
X630050Y6393990*
Y6406490*
X636300Y6418990*
X642550Y6425240*
X648800*
X655050Y6418990*
X661300Y6406490*
Y6393990*
X655050Y6381490*
X648800Y6375240*
X680050Y6475240D02*
X630050D01*
X648800D02*
X636300Y6481490D01*
X630050Y6493990*
Y6506490*
X636300Y6518990*
X680050Y6575240D02*
X630050D01*
X648800D02*
X636300Y6581490D01*
X630050Y6593990*
Y6606490*
X636300Y6618990*
X630050Y6675240D02*
X655050Y6681490D01*
X667550Y6693990*
Y6706490*
X655050Y6718990*
X630050Y6725240*
X655050Y6718990D02*
X680050Y6712740D01*
X692550Y6706490*
X698800Y6693990*
X692550Y6681490*
X680050Y6875240D02*
X605050D01*
Y6918990*
X611300Y6931490*
X623800Y6937740*
X636300Y6931490*
X642550Y6918990*
Y6875240*
X680050Y7000240D02*
X630050D01*
X611300D02*
X680050Y7175240*
X605050D01*
Y7218990*
X611300Y7231490*
X623800Y7237740*
X636300Y7231490*
X642550Y7218990*
Y7175240*
X680050Y7300240D02*
X630050D01*
X611300D02*
X636300Y7425240*
X630050Y7412740D01*
Y7393990*
X636300Y7381490*
X648800Y7375240*
X661300*
X673800Y7381490*
X680050Y7393990*
Y7412740*
X673800Y7425240*
X661300Y7475240D02*
X673800Y7481490D01*
X680050Y7493990*
Y7506490*
X673800Y7518990*
X661300Y7525240*
X648800*
X636300Y7518990*
X630050Y7506490*
Y7493990*
X636300Y7481490*
X648800Y7475240*
X661300*
X749930Y1227360D02*
X741990Y1235300D01*
X734050Y1251180*
Y1274990*
X741990Y1290860*
X749930Y1298800*
X765800Y1306740*
X797550*
X813430Y1298800*
X821370Y1290860*
X829300Y1274990*
Y1251180*
X821370Y1235300*
X813430Y1227360*
X734050Y1155930D02*
X741990Y1140050D01*
X757870Y1124180*
X781680Y1116240*
X805490*
X821370Y1124180*
X829300Y1140050*
Y1155930*
X821370Y1171800*
X805490Y1179740*
X789620Y1171800*
X781680Y1155930*
Y1140050*
X789620Y1124180*
X805490Y1116240*
X1048800Y10220240D02*
Y10175240D01*
X1053800Y10165240*
X1063800Y10160240*
X1083800*
X1093800Y10165240*
X1098800Y10175240*
Y10220240*
X1128800Y10175240D02*
X1133800Y10165240D01*
X1143800Y10160240*
X1163800*
X1173800Y10165240*
X1178800Y10175240*
X1173800Y10185240*
X1163800Y10190240*
X1143800*
X1133800Y10195240*
X1128800Y10205240*
X1133800Y10215240*
X1143800Y10220240*
X1163800*
X1173800Y10215240*
X1178800Y10205240*
X1243800Y10190240D02*
X1253800Y10185240D01*
X1258800Y10175240*
X1253800Y10165240*
X1243800Y10160240*
X1208800*
Y10220240*
X1243800*
X1253800Y10215240*
X1258800Y10205240*
X1253800Y10195240*
X1243800Y10190240*
X1208800*
X1237120Y1178930D02*
X1229180Y1170990D01*
X1213300Y1163050*
X1189490*
X1173620Y1170990*
X1165680Y1178930*
X1157740Y1194800*
Y1226550*
X1165680Y1242430*
X1173620Y1250370*
X1189490Y1258300*
X1213300*
X1229180Y1250370*
X1237120Y1242430*
X1284740Y1170990D02*
X1300620Y1163050D01*
X1324430*
X1340300Y1170990*
X1348240Y1186870*
Y1194800*
X1340300Y1210680*
X1324430Y1218620*
X1284740*
Y1258300*
X1348240*
X1237120Y3453930D02*
X1229180Y3445990D01*
X1213300Y3438050*
X1189490*
X1173620Y3445990*
X1165680Y3453930*
X1157740Y3469800*
Y3501550*
X1165680Y3517430*
X1173620Y3525370*
X1189490Y3533300*
X1213300*
X1229180Y3525370*
X1237120Y3517430*
X1292680Y3445990D02*
X1308550Y3438050D01*
X1324430*
X1340300Y3445990*
X1348240Y3461870*
X1340300Y3477740*
X1324430Y3485680*
X1308550*
X1324430D02*
X1340300Y3493620D01*
X1348240Y3509490*
X1340300Y3525370*
X1324430Y3533300*
X1308550*
X1292680Y3525370*
X1257740Y995240D02*
G75*
G02Y1435240J220000D01*
G01*
G75*
G02Y995240J-220000*
G01*
X1259740Y3710240D02*
G75*
G02Y3270240J-220000D01*
G01*
G75*
G02Y3710240J220000*
G01*
X1522740Y435240D02*
X2542740D01*
Y2205240*
X1522740*
Y435240*
X1524740Y2710240D02*
X2544740D01*
Y4480240*
X1524740*
Y2710240*
X1813800Y5565240D02*
X1773800D01*
X1808800Y5600240*
X1813800Y5610240*
X1808800Y5620240*
X1798800Y5625240*
X1783800*
X1773800Y5620240*
X1863800Y5565240D02*
X1883800D01*
X1873800D02*
Y5625240D01*
X1863800Y5615240*
X1813800Y5805240D02*
X1773800D01*
X1808800Y5840240*
X1813800Y5850240*
X1808800Y5860240*
X1798800Y5865240*
X1783800*
X1773800Y5860240*
X1893800Y5805240D02*
X1853800D01*
X1888800Y5840240*
X1893800Y5850240*
X1888800Y5860240*
X1878800Y5865240*
X1863800*
X1853800Y5860240*
X1813800Y6065240D02*
X1773800D01*
X1808800Y6100240*
X1813800Y6110240*
X1808800Y6120240*
X1798800Y6125240*
X1783800*
X1773800Y6120240*
X1858800Y6070240D02*
X1868800Y6065240D01*
X1878800*
X1888800Y6070240*
X1893800Y6080240*
X1888800Y6090240*
X1878800Y6095240*
X1868800*
X1878800D02*
X1888800Y6100240D01*
X1893800Y6110240*
X1888800Y6120240*
X1878800Y6125240*
X1868800*
X1858800Y6120240*
X1813800Y6305240D02*
X1773800D01*
X1808800Y6340240*
X1813800Y6350240*
X1808800Y6360240*
X1798800Y6365240*
X1783800*
X1773800Y6360240*
X1878800Y6305240D02*
Y6365240D01*
X1853800Y6325240*
X1893800*
X1813800Y6565240D02*
X1773800D01*
X1808800Y6600240*
X1813800Y6610240*
X1808800Y6620240*
X1798800Y6625240*
X1783800*
X1773800Y6620240*
X1853800Y6570240D02*
X1863800Y6565240D01*
X1878800*
X1888800Y6570240*
X1893800Y6580240*
Y6585240*
X1888800Y6595240*
X1878800Y6600240*
X1853800*
Y6625240*
X1893800*
X1813800Y6805240D02*
X1773800D01*
X1808800Y6840240*
X1813800Y6850240*
X1808800Y6860240*
X1798800Y6865240*
X1783800*
X1773800Y6860240*
X1853800Y6820240D02*
X1858800Y6830240D01*
X1868800Y6835240*
X1878800*
X1888800Y6830240*
X1893800Y6820240*
X1888800Y6810240*
X1878800Y6805240*
X1868800*
X1858800Y6810240*
X1853800Y6820240*
Y6835240*
X1858800Y6850240*
X1868800Y6860240*
X1878800Y6865240*
X1813800Y7065240D02*
X1773800D01*
X1808800Y7100240*
X1813800Y7110240*
X1808800Y7120240*
X1798800Y7125240*
X1783800*
X1773800Y7120240*
X1853800Y7065240D02*
X1893800Y7125240D01*
X1853800*
X1813800Y7325240D02*
X1773800D01*
X1808800Y7360240*
X1813800Y7370240*
X1808800Y7380240*
X1798800Y7385240*
X1783800*
X1773800Y7380240*
X1868800Y7355240D02*
X1878800D01*
X1888800Y7360240*
X1893800Y7370240*
X1888800Y7380240*
X1878800Y7385240*
X1868800*
X1858800Y7380240*
X1853800Y7370240*
X1858800Y7360240*
X1868800Y7355240*
X1858800Y7350240*
X1853800Y7340240*
X1858800Y7330240*
X1868800Y7325240*
X1878800*
X1888800Y7330240*
X1893800Y7340240*
X1888800Y7350240*
X1878800Y7355240*
X1813800Y7565240D02*
X1773800D01*
X1808800Y7600240*
X1813800Y7610240*
X1808800Y7620240*
X1798800Y7625240*
X1783800*
X1773800Y7620240*
X1868800Y7565240D02*
X1878800Y7570240D01*
X1888800Y7580240*
X1893800Y7595240*
Y7610240*
X1888800Y7620240*
X1878800Y7625240*
X1868800*
X1858800Y7620240*
X1853800Y7610240*
X1858800Y7600240*
X1868800Y7595240*
X1878800*
X1888800Y7600240*
X1893800Y7610240*
X1778800Y7830240D02*
X1788800Y7825240D01*
X1798800*
X1808800Y7830240*
X1813800Y7840240*
X1808800Y7850240*
X1798800Y7855240*
X1788800*
X1798800D02*
X1808800Y7860240D01*
X1813800Y7870240*
X1808800Y7880240*
X1798800Y7885240*
X1788800*
X1778800Y7880240*
X1858800Y7830240D02*
X1868800Y7825240D01*
X1878800*
X1888800Y7830240*
X1893800Y7840240*
Y7870240*
X1888800Y7880240*
X1878800Y7885240*
X1868800*
X1858800Y7880240*
X1853800Y7870240*
Y7840240*
X1858800Y7830240*
X1888800Y7880240*
X1778800Y8090240D02*
X1788800Y8085240D01*
X1798800*
X1808800Y8090240*
X1813800Y8100240*
X1808800Y8110240*
X1798800Y8115240*
X1788800*
X1798800D02*
X1808800Y8120240D01*
X1813800Y8130240*
X1808800Y8140240*
X1798800Y8145240*
X1788800*
X1778800Y8140240*
X1863800Y8085240D02*
X1883800D01*
X1873800D02*
Y8145240D01*
X1863800Y8135240*
X1778800Y8350240D02*
X1788800Y8345240D01*
X1798800*
X1808800Y8350240*
X1813800Y8360240*
X1808800Y8370240*
X1798800Y8375240*
X1788800*
X1798800D02*
X1808800Y8380240D01*
X1813800Y8390240*
X1808800Y8400240*
X1798800Y8405240*
X1788800*
X1778800Y8400240*
X1893800Y8345240D02*
X1853800D01*
X1888800Y8380240*
X1893800Y8390240*
X1888800Y8400240*
X1878800Y8405240*
X1863800*
X1853800Y8400240*
X1778800Y8590240D02*
X1788800Y8585240D01*
X1798800*
X1808800Y8590240*
X1813800Y8600240*
X1808800Y8610240*
X1798800Y8615240*
X1788800*
X1798800D02*
X1808800Y8620240D01*
X1813800Y8630240*
X1808800Y8640240*
X1798800Y8645240*
X1788800*
X1778800Y8640240*
X1858800Y8590240D02*
X1868800Y8585240D01*
X1878800*
X1888800Y8590240*
X1893800Y8600240*
X1888800Y8610240*
X1878800Y8615240*
X1868800*
X1878800D02*
X1888800Y8620240D01*
X1893800Y8630240*
X1888800Y8640240*
X1878800Y8645240*
X1868800*
X1858800Y8640240*
X1778800Y8850240D02*
X1788800Y8845240D01*
X1798800*
X1808800Y8850240*
X1813800Y8860240*
X1808800Y8870240*
X1798800Y8875240*
X1788800*
X1798800D02*
X1808800Y8880240D01*
X1813800Y8890240*
X1808800Y8900240*
X1798800Y8905240*
X1788800*
X1778800Y8900240*
X1878800Y8845240D02*
Y8905240D01*
X1853800Y8865240*
X1893800*
X1778800Y9110240D02*
X1788800Y9105240D01*
X1798800*
X1808800Y9110240*
X1813800Y9120240*
X1808800Y9130240*
X1798800Y9135240*
X1788800*
X1798800D02*
X1808800Y9140240D01*
X1813800Y9150240*
X1808800Y9160240*
X1798800Y9165240*
X1788800*
X1778800Y9160240*
X1853800Y9110240D02*
X1863800Y9105240D01*
X1878800*
X1888800Y9110240*
X1893800Y9120240*
Y9125240*
X1888800Y9135240*
X1878800Y9140240*
X1853800*
Y9165240*
X1893800*
X1778800Y9350240D02*
X1788800Y9345240D01*
X1798800*
X1808800Y9350240*
X1813800Y9360240*
X1808800Y9370240*
X1798800Y9375240*
X1788800*
X1798800D02*
X1808800Y9380240D01*
X1813800Y9390240*
X1808800Y9400240*
X1798800Y9405240*
X1788800*
X1778800Y9400240*
X1853800Y9360240D02*
X1858800Y9370240D01*
X1868800Y9375240*
X1878800*
X1888800Y9370240*
X1893800Y9360240*
X1888800Y9350240*
X1878800Y9345240*
X1868800*
X1858800Y9350240*
X1853800Y9360240*
Y9375240*
X1858800Y9390240*
X1868800Y9400240*
X1878800Y9405240*
X1778800Y9610240D02*
X1788800Y9605240D01*
X1798800*
X1808800Y9610240*
X1813800Y9620240*
X1808800Y9630240*
X1798800Y9635240*
X1788800*
X1798800D02*
X1808800Y9640240D01*
X1813800Y9650240*
X1808800Y9660240*
X1798800Y9665240*
X1788800*
X1778800Y9660240*
X1853800Y9605240D02*
X1893800Y9665240D01*
X1853800*
X1778800Y9870240D02*
X1788800Y9865240D01*
X1798800*
X1808800Y9870240*
X1813800Y9880240*
X1808800Y9890240*
X1798800Y9895240*
X1788800*
X1798800D02*
X1808800Y9900240D01*
X1813800Y9910240*
X1808800Y9920240*
X1798800Y9925240*
X1788800*
X1778800Y9920240*
X1868800Y9895240D02*
X1878800D01*
X1888800Y9900240*
X1893800Y9910240*
X1888800Y9920240*
X1878800Y9925240*
X1868800*
X1858800Y9920240*
X1853800Y9910240*
X1858800Y9900240*
X1868800Y9895240*
X1858800Y9890240*
X1853800Y9880240*
X1858800Y9870240*
X1868800Y9865240*
X1878800*
X1888800Y9870240*
X1893800Y9880240*
X1888800Y9890240*
X1878800Y9895240*
X1778800Y10130240D02*
X1788800Y10125240D01*
X1798800*
X1808800Y10130240*
X1813800Y10140240*
X1808800Y10150240*
X1798800Y10155240*
X1788800*
X1798800D02*
X1808800Y10160240D01*
X1813800Y10170240*
X1808800Y10180240*
X1798800Y10185240*
X1788800*
X1778800Y10180240*
X1868800Y10125240D02*
X1878800Y10130240D01*
X1888800Y10140240*
X1893800Y10155240*
Y10170240*
X1888800Y10180240*
X1878800Y10185240*
X1868800*
X1858800Y10180240*
X1853800Y10170240*
X1858800Y10160240*
X1868800Y10155240*
X1878800*
X1888800Y10160240*
X1893800Y10170240*
X1798800Y10365240D02*
Y10425240D01*
X1773800Y10385240*
X1813800*
X1858800Y10370240D02*
X1868800Y10365240D01*
X1878800*
X1888800Y10370240*
X1893800Y10380240*
Y10410240*
X1888800Y10420240*
X1878800Y10425240*
X1868800*
X1858800Y10420240*
X1853800Y10410240*
Y10380240*
X1858800Y10370240*
X1888800Y10420240*
X1892740Y685240D02*
X2172740D01*
Y1955240*
X1892740*
Y685240*
X1894740Y2960240D02*
X2174740D01*
Y4230240*
X1894740*
Y2960240*
X1912740Y2075240D02*
X2152740D01*
Y2205240*
X1912740*
Y2075240*
G36*
X2152740*
Y2205240*
X1912740*
Y2075240*
G37*
X1914740Y4350240D02*
X2154740D01*
Y4480240*
X1914740*
Y4350240*
G36*
X2154740*
Y4480240*
X1914740*
Y4350240*
G37*
X1977050Y1807050D02*
X2072300D01*
Y1846740D02*
Y1767360D01*
Y1719740D02*
X1977050D01*
Y1640360*
X1984990Y1584800D02*
X1977050Y1568930D01*
Y1553050*
X1984990Y1537180*
X2000870Y1529240*
X2048490*
X2064370Y1537180*
X2072300Y1553050*
Y1568930*
X2064370Y1584800*
X2048490Y1592740*
X2000870*
X1984990Y1584800*
X2064370Y1537180*
X1977050Y1465740D02*
X2072300Y1402240D01*
Y1465740*
X1977050Y1299050D02*
X2072300D01*
X2008800Y1338740*
Y1275240*
Y1211740D02*
Y1148240D01*
X1977050Y1021240D02*
Y1084740D01*
X2032620Y1029180*
X2048490Y1021240*
X2064370Y1029180*
X2072300Y1045050*
Y1068860*
X2064370Y1084740*
X1979050Y4082050D02*
X2074300D01*
Y4121740D02*
Y4042360D01*
Y3994740D02*
X1979050D01*
Y3915360*
X1986990Y3859800D02*
X1979050Y3843930D01*
Y3828050*
X1986990Y3812180*
X2002870Y3804240*
X2050490*
X2066370Y3812180*
X2074300Y3828050*
Y3843930*
X2066370Y3859800*
X2050490Y3867740*
X2002870*
X1986990Y3859800*
X2066370Y3812180*
X1979050Y3740740D02*
X2074300Y3677240D01*
Y3740740*
X1979050Y3574050D02*
X2074300D01*
X2010800Y3613740*
Y3550240*
Y3486740D02*
Y3423240D01*
X1979050Y3343860D02*
Y3312110D01*
Y3327990D02*
X2074300D01*
X2058430Y3343860*
X2356740Y6945800D02*
Y6969620D01*
X2364680*
X2380550Y6961680*
X2388490Y6953740*
X2396430Y6937870*
Y6921990*
X2388490Y6906120*
X2380550Y6898180*
X2364680Y6890240*
X2332930*
X2317050Y6898180*
X2309110Y6906120*
X2301180Y6921990*
Y6937870*
X2309110Y6953740*
X2317050Y6961680*
X2332930Y6969620*
X2396430Y7017240D02*
X2301180D01*
X2396430Y7096620*
X2301180*
X2396430Y7144240D02*
X2301180D01*
Y7191870*
X2309110Y7207740*
X2317050Y7215680*
X2332930Y7223620*
X2364680*
X2380550Y7215680*
X2388490Y7207740*
X2396430Y7191870*
Y7144240*
X2372610Y7415240D02*
X2388490Y7423180D01*
X2396430Y7439050*
Y7470800*
X2388490Y7486680*
X2372610Y7494620*
X2356740Y7486680*
X2348800Y7470800*
Y7439050*
X2340860Y7423180*
X2324990Y7415240*
X2309110Y7423180*
X2301180Y7439050*
Y7470800*
X2309110Y7486680*
X2324990Y7494620*
X2380550Y7621620D02*
X2388490Y7613680D01*
X2396430Y7597800*
Y7573990*
X2388490Y7558120*
X2380550Y7550180*
X2364680Y7542240*
X2332930*
X2317050Y7550180*
X2309110Y7558120*
X2301180Y7573990*
Y7597800*
X2309110Y7613680*
X2317050Y7621620*
X2301180Y7669240D02*
X2396430D01*
Y7748620*
X2432740Y8015240D02*
Y6815240D01*
X2832740*
Y8015240*
X2432740*
X2480240Y6336740D02*
Y6326740D01*
X2490240*
Y6306740*
X2500240*
Y6296740*
X2520240*
Y6286740*
X2530240*
Y6276740*
X2540240*
Y6266740*
X2560240*
Y6256740*
X2590240*
Y6246740*
X2700240*
Y6256740*
X2730240*
Y6266740*
X2750240*
Y6276740*
X2770240*
Y6286740*
X2780240*
Y6296740*
X2790240*
Y6306740*
X2810240*
Y6326740*
X2820240*
Y6336740*
X2480240*
G36*
Y6326740*
X2490240*
Y6306740*
X2500240*
Y6296740*
X2520240*
Y6286740*
X2530240*
Y6276740*
X2540240*
Y6266740*
X2560240*
Y6256740*
X2590240*
Y6246740*
X2700240*
Y6256740*
X2730240*
Y6266740*
X2750240*
Y6276740*
X2770240*
Y6286740*
X2780240*
Y6296740*
X2790240*
Y6306740*
X2810240*
Y6326740*
X2820240*
Y6336740*
X2480240*
G37*
X2639620Y6421430D02*
X2631680Y6413490D01*
X2615800Y6405550*
X2591990*
X2576120Y6413490*
X2568180Y6421430*
X2560240Y6437300*
Y6469050*
X2568180Y6484930*
X2576120Y6492870*
X2591990Y6500800*
X2615800*
X2631680Y6492870*
X2639620Y6484930*
X2703120Y6405550D02*
X2734870D01*
X2718990D02*
Y6500800D01*
X2703120Y6484930*
X2582740Y9565240D02*
Y10565240D01*
X2532740*
Y9565240*
X2582740*
G36*
Y10565240*
X2532740*
Y9565240*
X2582740*
G37*
X2650240Y6236740D02*
G75*
G03Y6676740J220000D01*
G01*
G75*
G03Y6236740J-220000*
G01*
X2661240Y10765240D02*
X2597740D01*
X2787120Y1153930D02*
X2779180Y1145990D01*
X2763300Y1138050*
X2739490*
X2723620Y1145990*
X2715680Y1153930*
X2707740Y1169800*
Y1201550*
X2715680Y1217430*
X2723620Y1225370*
X2739490Y1233300*
X2763300*
X2779180Y1225370*
X2787120Y1217430*
X2834740Y1161870D02*
X2842680Y1177740D01*
X2858550Y1185680*
X2874430*
X2890300Y1177740*
X2898240Y1161870*
X2890300Y1145990*
X2874430Y1138050*
X2858550*
X2842680Y1145990*
X2834740Y1161870*
Y1185680*
X2842680Y1209490*
X2858550Y1225370*
X2874430Y1233300*
X2787120Y3428930D02*
X2779180Y3420990D01*
X2763300Y3413050*
X2739490*
X2723620Y3420990*
X2715680Y3428930*
X2707740Y3444800*
Y3476550*
X2715680Y3492430*
X2723620Y3500370*
X2739490Y3508300*
X2763300*
X2779180Y3500370*
X2787120Y3492430*
X2874430Y3413050D02*
Y3508300D01*
X2834740Y3444800*
X2898240*
X2795240Y10725550D02*
Y10820800D01*
X2842870*
X2858740Y10812870*
X2866680Y10804930*
X2874620Y10789050*
Y10757300*
X2866680Y10741430*
X2858740Y10733490*
X2842870Y10725550*
X2795240*
X2985740D02*
X2922240D01*
X2977800Y10781120*
X2985740Y10796990*
X2977800Y10812870*
X2961930Y10820800*
X2938120*
X2922240Y10812870*
X2807740Y970240D02*
G75*
G02Y1410240J220000D01*
G01*
G75*
G02Y970240J-220000*
G01*
X2809740Y3685240D02*
G75*
G02Y3245240J-220000D01*
G01*
G75*
G02Y3685240J220000*
G01*
X2870240Y1513050D02*
Y1608300D01*
X2925800*
X2941680Y1600370*
X2949620Y1584490*
X2941680Y1568620*
X2925800Y1560680*
X2870240*
X2925800D02*
X2949620Y1513050D01*
X3036930D02*
Y1608300D01*
X2997240Y1544800*
X3060740*
X2870240Y1763050D02*
Y1858300D01*
X2925800*
X2941680Y1850370*
X2949620Y1834490*
X2941680Y1818620*
X2925800Y1810680*
X2870240*
X2925800D02*
X2949620Y1763050D01*
X3005180Y1770990D02*
X3021050Y1763050D01*
X3036930*
X3052800Y1770990*
X3060740Y1786870*
X3052800Y1802740*
X3036930Y1810680*
X3021050*
X3036930D02*
X3052800Y1818620D01*
X3060740Y1834490*
X3052800Y1850370*
X3036930Y1858300*
X3021050*
X3005180Y1850370*
X3148050Y1810680D02*
X3163930D01*
X3179800Y1818620*
X3187740Y1834490*
X3179800Y1850370*
X3163930Y1858300*
X3148050*
X3132180Y1850370*
X3124240Y1834490*
X3132180Y1818620*
X3148050Y1810680*
X3132180Y1802740*
X3124240Y1786870*
X3132180Y1770990*
X3148050Y1763050*
X3163930*
X3179800Y1770990*
X3187740Y1786870*
X3179800Y1802740*
X3163930Y1810680*
X2870240Y2013050D02*
Y2108300D01*
X2925800*
X2941680Y2100370*
X2949620Y2084490*
X2941680Y2068620*
X2925800Y2060680*
X2870240*
X2925800D02*
X2949620Y2013050D01*
X3005180Y2020990D02*
X3021050Y2013050D01*
X3036930*
X3052800Y2020990*
X3060740Y2036870*
X3052800Y2052740*
X3036930Y2060680*
X3021050*
X3036930D02*
X3052800Y2068620D01*
X3060740Y2084490*
X3052800Y2100370*
X3036930Y2108300*
X3021050*
X3005180Y2100370*
X3187740Y2013050D02*
X3124240D01*
X3179800Y2068620*
X3187740Y2084490*
X3179800Y2100370*
X3163930Y2108300*
X3140120*
X3124240Y2100370*
X2895240Y263050D02*
Y358300D01*
X2950800*
X2966680Y350370*
X2974620Y334490*
X2966680Y318620*
X2950800Y310680*
X2895240*
X2950800D02*
X2974620Y263050D01*
X3030180Y270990D02*
X3046050Y263050D01*
X3061930*
X3077800Y270990*
X3085740Y286870*
X3077800Y302740*
X3061930Y310680*
X3046050*
X3061930D02*
X3077800Y318620D01*
X3085740Y334490*
X3077800Y350370*
X3061930Y358300*
X3046050*
X3030180Y350370*
X3165120Y263050D02*
X3196870D01*
X3180990D02*
Y358300D01*
X3165120Y342430*
X2895240Y513050D02*
Y608300D01*
X2950800*
X2966680Y600370*
X2974620Y584490*
X2966680Y568620*
X2950800Y560680*
X2895240*
X2950800D02*
X2974620Y513050D01*
X3030180Y520990D02*
X3046050Y513050D01*
X3061930*
X3077800Y520990*
X3085740Y536870*
X3077800Y552740*
X3061930Y560680*
X3046050*
X3061930D02*
X3077800Y568620D01*
X3085740Y584490*
X3077800Y600370*
X3061930Y608300*
X3046050*
X3030180Y600370*
X3149240Y513050D02*
X3212740Y608300D01*
X3149240*
X2895240Y763050D02*
Y858300D01*
X2950800*
X2966680Y850370*
X2974620Y834490*
X2966680Y818620*
X2950800Y810680*
X2895240*
X2950800D02*
X2974620Y763050D01*
X3030180Y770990D02*
X3046050Y763050D01*
X3061930*
X3077800Y770990*
X3085740Y786870*
X3077800Y802740*
X3061930Y810680*
X3046050*
X3061930D02*
X3077800Y818620D01*
X3085740Y834490*
X3077800Y850370*
X3061930Y858300*
X3046050*
X3030180Y850370*
X2895240Y2538050D02*
Y2633300D01*
X2950800*
X2966680Y2625370*
X2974620Y2609490*
X2966680Y2593620*
X2950800Y2585680*
X2895240*
X2950800D02*
X2974620Y2538050D01*
X3030180Y2545990D02*
X3046050Y2538050D01*
X3061930*
X3077800Y2545990*
X3085740Y2561870*
X3077800Y2577740*
X3061930Y2585680*
X3046050*
X3061930D02*
X3077800Y2593620D01*
X3085740Y2609490*
X3077800Y2625370*
X3061930Y2633300*
X3046050*
X3030180Y2625370*
X3157180Y2545990D02*
X3173050Y2538050D01*
X3188930*
X3204800Y2545990*
X3212740Y2561870*
X3204800Y2577740*
X3188930Y2585680*
X3173050*
X3188930D02*
X3204800Y2593620D01*
X3212740Y2609490*
X3204800Y2625370*
X3188930Y2633300*
X3173050*
X3157180Y2625370*
X2895240Y2788050D02*
Y2883300D01*
X2950800*
X2966680Y2875370*
X2974620Y2859490*
X2966680Y2843620*
X2950800Y2835680*
X2895240*
X2950800D02*
X2974620Y2788050D01*
X3030180Y2795990D02*
X3046050Y2788050D01*
X3061930*
X3077800Y2795990*
X3085740Y2811870*
X3077800Y2827740*
X3061930Y2835680*
X3046050*
X3061930D02*
X3077800Y2843620D01*
X3085740Y2859490*
X3077800Y2875370*
X3061930Y2883300*
X3046050*
X3030180Y2875370*
X3173050Y2788050D02*
X3188930Y2795990D01*
X3204800Y2811870*
X3212740Y2835680*
Y2859490*
X3204800Y2875370*
X3188930Y2883300*
X3173050*
X3157180Y2875370*
X3149240Y2859490*
X3157180Y2843620*
X3173050Y2835680*
X3188930*
X3204800Y2843620*
X3212740Y2859490*
X2895240Y3038050D02*
Y3133300D01*
X2950800*
X2966680Y3125370*
X2974620Y3109490*
X2966680Y3093620*
X2950800Y3085680*
X2895240*
X2950800D02*
X2974620Y3038050D01*
X3022240Y3045990D02*
X3038120Y3038050D01*
X3061930*
X3077800Y3045990*
X3085740Y3061870*
Y3069800*
X3077800Y3085680*
X3061930Y3093620*
X3022240*
Y3133300*
X3085740*
X2895240Y3788050D02*
Y3883300D01*
X2950800*
X2966680Y3875370*
X2974620Y3859490*
X2966680Y3843620*
X2950800Y3835680*
X2895240*
X2950800D02*
X2974620Y3788050D01*
X3022240Y3811870D02*
X3030180Y3827740D01*
X3046050Y3835680*
X3061930*
X3077800Y3827740*
X3085740Y3811870*
X3077800Y3795990*
X3061930Y3788050*
X3046050*
X3030180Y3795990*
X3022240Y3811870*
Y3835680*
X3030180Y3859490*
X3046050Y3875370*
X3061930Y3883300*
X2895240Y4038050D02*
Y4133300D01*
X2950800*
X2966680Y4125370*
X2974620Y4109490*
X2966680Y4093620*
X2950800Y4085680*
X2895240*
X2950800D02*
X2974620Y4038050D01*
X3061930D02*
Y4133300D01*
X3022240Y4069800*
X3085740*
X3157180Y4045990D02*
X3173050Y4038050D01*
X3188930*
X3204800Y4045990*
X3212740Y4061870*
Y4109490*
X3204800Y4125370*
X3188930Y4133300*
X3173050*
X3157180Y4125370*
X3149240Y4109490*
Y4061870*
X3157180Y4045990*
X3204800Y4125370*
X2895240Y4288050D02*
Y4383300D01*
X2950800*
X2966680Y4375370*
X2974620Y4359490*
X2966680Y4343620*
X2950800Y4335680*
X2895240*
X2950800D02*
X2974620Y4288050D01*
X3030180Y4295990D02*
X3046050Y4288050D01*
X3061930*
X3077800Y4295990*
X3085740Y4311870*
X3077800Y4327740*
X3061930Y4335680*
X3046050*
X3061930D02*
X3077800Y4343620D01*
X3085740Y4359490*
X3077800Y4375370*
X3061930Y4383300*
X3046050*
X3030180Y4375370*
X3188930Y4288050D02*
Y4383300D01*
X3149240Y4319800*
X3212740*
X2902740Y9675240D02*
G75*
G03Y9625240J-25000D01*
G01*
G75*
G03Y9675240J25000*
G01*
G36*
G75*
G03Y9625240J-25000*
G01*
G75*
G03Y9675240J25000*
G01*
G37*
X2959740Y4632040D02*
X3979740D01*
Y5672040*
X2959740*
Y4632040*
X2970240Y5788050D02*
Y5883300D01*
X3025800*
X3041680Y5875370*
X3049620Y5859490*
X3041680Y5843620*
X3025800Y5835680*
X2970240*
X3025800D02*
X3049620Y5788050D01*
X3160740D02*
X3097240D01*
X3152800Y5843620*
X3160740Y5859490*
X3152800Y5875370*
X3136930Y5883300*
X3113120*
X3097240Y5875370*
X3232180Y5795990D02*
X3248050Y5788050D01*
X3263930*
X3279800Y5795990*
X3287740Y5811870*
X3279800Y5827740*
X3263930Y5835680*
X3248050*
X3263930D02*
X3279800Y5843620D01*
X3287740Y5859490*
X3279800Y5875370*
X3263930Y5883300*
X3248050*
X3232180Y5875370*
X2935110Y7665240D02*
X2950990Y7673180D01*
X2958930Y7689050*
Y7720800*
X2950990Y7736680*
X2935110Y7744620*
X2919240Y7736680*
X2911300Y7720800*
Y7689050*
X2903360Y7673180*
X2887490Y7665240*
X2871610Y7673180*
X2863680Y7689050*
Y7720800*
X2871610Y7736680*
X2887490Y7744620*
X2958930Y7792240D02*
X2863680D01*
Y7839870*
X2871610Y7855740*
X2879550Y7863680*
X2895430Y7871620*
X2927180*
X2943050Y7863680*
X2950990Y7855740*
X2958930Y7839870*
Y7792240*
Y7919240D02*
X2863680Y7958930D01*
X2958930Y7998620*
X2919240Y7935120D02*
Y7982740D01*
X2982740Y9665240D02*
Y10465240D01*
X2882740Y10565240*
X2532740*
Y9565240*
X2882740*
X2982740Y9665240*
X2963490Y7148180D02*
X2971430Y7164050D01*
Y7179930*
X2963490Y7195800*
X2947610Y7203740*
X2931740Y7195800*
X2923800Y7179930*
Y7164050*
Y7179930D02*
X2915860Y7195800D01*
X2899990Y7203740*
X2884110Y7195800*
X2876180Y7179930*
Y7164050*
X2884110Y7148180*
X2876180Y7267240D02*
X2971430Y7306930D01*
X2876180Y7346620*
X2963490Y7402180D02*
X2971430Y7418050D01*
Y7433930*
X2963490Y7449800*
X2947610Y7457740*
X2931740Y7449800*
X2923800Y7433930*
Y7418050*
Y7433930D02*
X2915860Y7449800D01*
X2899990Y7457740*
X2884110Y7449800*
X2876180Y7433930*
Y7418050*
X2884110Y7402180*
X3007740Y8560240D02*
Y6560240D01*
X3907740*
Y7345240*
X3717740*
Y7785240*
X3907740*
Y8560240*
X3007740*
X3042240Y10892240D02*
Y10638240D01*
X2661240*
Y10892240*
X3042240*
X3047740Y6600240D02*
X3870650D01*
Y7345240*
X3717740*
Y7785240*
X3867740*
Y8515240*
X3047740*
Y6600240*
X3066840Y9090240D02*
G75*
G02X3473240Y9496640I406400D01*
G01*
G75*
G02X3879640Y9090240J-406400*
G01*
G75*
G02X3473240Y8683840I-406400*
G01*
G75*
G02X3066840Y9090240J406400*
G01*
Y10015240D02*
G75*
G02X3473240Y10421640I406400D01*
G01*
G75*
G02X3879640Y10015240J-406400*
G01*
G75*
G02X3473240Y9608840I-406400*
G01*
G75*
G02X3066840Y10015240J406400*
G01*
X3105740Y10765240D02*
X3042240D01*
X3254930Y1272360D02*
X3246990Y1280300D01*
X3239050Y1296180*
Y1319990*
X3246990Y1335860*
X3254930Y1343800*
X3270800Y1351740*
X3302550*
X3318430Y1343800*
X3326370Y1335860*
X3334300Y1319990*
Y1296180*
X3326370Y1280300*
X3318430Y1272360*
X3239050Y1208860D02*
Y1177110D01*
Y1192990D02*
X3334300D01*
X3318430Y1208860*
X3239050Y1034240D02*
Y1097740D01*
X3294620Y1042180*
X3310490Y1034240*
X3326370Y1042180*
X3334300Y1058050*
Y1081860*
X3326370Y1097740*
X3256930Y3547360D02*
X3248990Y3555300D01*
X3241050Y3571180*
Y3594990*
X3248990Y3610860*
X3256930Y3618800*
X3272800Y3626740*
X3304550*
X3320430Y3618800*
X3328370Y3610860*
X3336300Y3594990*
Y3571180*
X3328370Y3555300*
X3320430Y3547360*
X3241050Y3483860D02*
Y3452110D01*
Y3467990D02*
X3336300D01*
X3320430Y3483860*
X3241050Y3333050D02*
X3336300D01*
X3272800Y3372740*
Y3309240*
X3263740Y6111740D02*
X3200240D01*
X3263740Y6396740D02*
X3200240D01*
X3391620Y9209430D02*
X3383680Y9201490D01*
X3367800Y9193550*
X3343990*
X3328120Y9201490*
X3320180Y9209430*
X3312240Y9225300*
Y9257050*
X3320180Y9272930*
X3328120Y9280870*
X3343990Y9288800*
X3367800*
X3383680Y9280870*
X3391620Y9272930*
X3455120Y9193550D02*
X3486870D01*
X3470990D02*
Y9288800D01*
X3455120Y9272930*
X3566240Y9201490D02*
X3582120Y9193550D01*
X3605930*
X3621800Y9201490*
X3629740Y9217370*
Y9225300*
X3621800Y9241180*
X3605930Y9249120*
X3566240*
Y9288800*
X3629740*
X3391620Y10134430D02*
X3383680Y10126490D01*
X3367800Y10118550*
X3343990*
X3328120Y10126490*
X3320180Y10134430*
X3312240Y10150300*
Y10182050*
X3320180Y10197930*
X3328120Y10205870*
X3343990Y10213800*
X3367800*
X3383680Y10205870*
X3391620Y10197930*
X3455120Y10118550D02*
X3486870D01*
X3470990D02*
Y10213800D01*
X3455120Y10197930*
X3566240Y10142370D02*
X3574180Y10158240D01*
X3590050Y10166180*
X3605930*
X3621800Y10158240*
X3629740Y10142370*
X3621800Y10126490*
X3605930Y10118550*
X3590050*
X3574180Y10126490*
X3566240Y10142370*
Y10166180*
X3574180Y10189990*
X3590050Y10205870*
X3605930Y10213800*
X3329740Y4882040D02*
X3609740D01*
Y5422040*
X3329740*
Y4882040*
X3382870Y5371740D02*
X3398740Y5363800D01*
X3406680Y5347930*
Y5332050*
X3398740Y5316180*
X3382870Y5308240*
X3366990Y5316180*
X3359050Y5332050*
Y5347930*
X3366990Y5363800*
X3382870Y5371740*
X3406680*
X3430490Y5363800*
X3446370Y5347930*
X3454300Y5332050*
X3366990Y5236800D02*
X3359050Y5220930D01*
Y5205050*
X3366990Y5189180*
X3382870Y5181240*
X3430490*
X3446370Y5189180*
X3454300Y5205050*
Y5220930*
X3446370Y5236800*
X3430490Y5244740*
X3382870*
X3366990Y5236800*
X3446370Y5189180*
X3366990Y5109800D02*
X3359050Y5093930D01*
Y5078050*
X3366990Y5062180*
X3382870Y5054240*
X3430490*
X3446370Y5062180*
X3454300Y5078050*
Y5093930*
X3446370Y5109800*
X3430490Y5117740*
X3382870*
X3366990Y5109800*
X3446370Y5062180*
X3359050Y4927240D02*
Y4990740D01*
X3414620Y4935180*
X3430490Y4927240*
X3446370Y4935180*
X3454300Y4951050*
Y4974860*
X3446370Y4990740*
X3349740Y5542040D02*
X3589740D01*
Y5672040*
X3349740*
Y5542040*
X3397740Y6072050D02*
Y6167300D01*
X3445370*
X3461240Y6159370*
X3469180Y6151430*
X3477120Y6135550*
Y6103800*
X3469180Y6087930*
X3461240Y6079990*
X3445370Y6072050*
X3397740*
X3564430D02*
Y6167300D01*
X3524740Y6103800*
X3588240*
X3397740Y6357050D02*
Y6452300D01*
X3445370*
X3461240Y6444370*
X3469180Y6436430*
X3477120Y6420550*
Y6388800*
X3469180Y6372930*
X3461240Y6364990*
X3445370Y6357050*
X3397740*
X3532680Y6364990D02*
X3548550Y6357050D01*
X3564430*
X3580300Y6364990*
X3588240Y6380870*
X3580300Y6396740*
X3564430Y6404680*
X3548550*
X3564430D02*
X3580300Y6412620D01*
X3588240Y6428490*
X3580300Y6444370*
X3564430Y6452300*
X3548550*
X3532680Y6444370*
X3484050Y5311740D02*
X3579300D01*
X3531680Y5272050*
X3579300Y5232360*
X3484050*
X3499930Y5105360D02*
X3491990Y5113300D01*
X3484050Y5129180*
Y5152990*
X3491990Y5168860*
X3499930Y5176800*
X3515800Y5184740*
X3547550*
X3563430Y5176800*
X3571370Y5168860*
X3579300Y5152990*
Y5129180*
X3571370Y5113300*
X3563430Y5105360*
X3484050Y5057740D02*
X3579300D01*
Y5002180*
X3571370Y4986300*
X3555490Y4978360*
X3539620Y4986300*
X3531680Y5002180*
Y5057740*
X3475240Y10676740D02*
G75*
G03X3915240I220000D01*
G01*
G75*
G03X3475240I-220000*
G01*
X3240240Y6642740D02*
X3245240Y6632740D01*
X3255240Y6627740*
X3275240*
X3285240Y6632740*
X3290240Y6642740*
X3285240Y6652740*
X3275240Y6657740*
X3255240*
X3245240Y6662740*
X3240240Y6672740*
X3245240Y6682740*
X3255240Y6687740*
X3275240*
X3285240Y6682740*
X3290240Y6672740*
X3345240Y6627740D02*
Y6687740D01*
X3320240D02*
X3370240D01*
X3400240Y6627740D02*
Y6687740D01*
X3435240*
X3445240Y6682740*
X3450240Y6672740*
X3445240Y6662740*
X3435240Y6657740*
X3400240*
X3435240D02*
X3450240Y6627740D01*
X3495240D02*
X3515240D01*
X3505240D02*
Y6687740D01*
X3495240D02*
X3515240D01*
X3560240Y6627740D02*
Y6687740D01*
X3595240*
X3605240Y6682740*
X3610240Y6672740*
X3605240Y6662740*
X3595240Y6657740*
X3560240*
X3640240Y6627740D02*
Y6687740D01*
X3690240*
X3680240Y6657740D02*
X3640240D01*
Y6627740D02*
X3690240D01*
X3360240Y6730240D02*
Y6790240D01*
X3395240*
X3405240Y6785240*
X3410240Y6775240*
X3405240Y6765240*
X3395240Y6760240*
X3360240*
X3395240D02*
X3410240Y6730240D01*
X3440240D02*
Y6790240D01*
X3490240*
X3480240Y6760240D02*
X3440240D01*
Y6730240D02*
X3490240D01*
X3520240D02*
Y6790240D01*
X3550240*
X3560240Y6785240*
X3565240Y6780240*
X3570240Y6770240*
Y6750240*
X3565240Y6740240*
X3560240Y6735240*
X3550240Y6730240*
X3520240*
X3502740Y1190240D02*
G75*
G02X3062740I-220000D01*
G01*
G75*
G02X3502740I220000*
G01*
X3504740Y3465240D02*
G75*
G02X3064740I-220000D01*
G01*
G75*
G02X3504740I220000*
G01*
X3575240Y10846740D02*
X3565240D01*
Y10836740*
X3545240*
Y10826740*
X3535240*
Y10806740*
X3525240*
Y10796740*
X3515240*
Y10786740*
X3505240*
Y10766740*
X3495240*
Y10736740*
X3485240*
Y10626740*
X3495240*
Y10596740*
X3505240*
Y10576740*
X3515240*
Y10556740*
X3525240*
Y10546740*
X3535240*
Y10536740*
X3545240*
Y10516740*
X3565240*
Y10506740*
X3575240*
Y10846740*
G36*
X3565240*
Y10836740*
X3545240*
Y10826740*
X3535240*
Y10806740*
X3525240*
Y10796740*
X3515240*
Y10786740*
X3505240*
Y10766740*
X3495240*
Y10736740*
X3485240*
Y10626740*
X3495240*
Y10596740*
X3505240*
Y10576740*
X3515240*
Y10556740*
X3525240*
Y10546740*
X3535240*
Y10536740*
X3545240*
Y10516740*
X3565240*
Y10506740*
X3575240*
Y10846740*
G37*
X3659930Y10687360D02*
X3651990Y10695300D01*
X3644050Y10711180*
Y10734990*
X3651990Y10750860*
X3659930Y10758800*
X3675800Y10766740*
X3707550*
X3723430Y10758800*
X3731370Y10750860*
X3739300Y10734990*
Y10711180*
X3731370Y10695300*
X3723430Y10687360*
X3644050Y10576240D02*
Y10639740D01*
X3699620Y10584180*
X3715490Y10576240*
X3731370Y10584180*
X3739300Y10600050*
Y10623860*
X3731370Y10639740*
X3644740Y6238740D02*
Y5984740D01*
X3263740*
Y6238740*
X3644740*
Y6523740D02*
Y6269740D01*
X3263740*
Y6523740*
X3644740*
X3658240Y9449990D02*
Y8730490D01*
X3661490*
Y8741740*
X3678990*
Y8754490*
X3697490*
Y8765990*
X3713490*
Y8778240*
X3732990*
Y8793240*
X3747740*
Y8808990*
X3764490*
Y8826490*
X3777740*
Y8842490*
X3790740*
Y8858740*
X3804240*
Y8876240*
X3815240*
Y8897990*
X3827740*
Y8919740*
X3837740*
Y8939240*
X3847990*
Y8967740*
X3858240*
Y9006240*
X3866740*
Y9055490*
X3873740*
Y9145740*
X3866490*
Y9171740*
X3859990*
Y9201740*
X3852490*
Y9223990*
X3844490*
Y9251240*
X3830240*
Y9272490*
X3821740*
Y9294740*
X3810490*
Y9311740*
X3796240*
Y9330490*
X3783490*
Y9344490*
X3772490*
Y9362740*
X3759240*
Y9375740*
X3746990*
Y9385990*
X3731490*
Y9400990*
X3717990*
Y9411490*
X3701740*
Y9420490*
X3686990*
Y9430740*
X3671240*
Y9441990*
X3658240Y9449990*
G36*
Y8730490*
X3661490*
Y8741740*
X3678990*
Y8754490*
X3697490*
Y8765990*
X3713490*
Y8778240*
X3732990*
Y8793240*
X3747740*
Y8808990*
X3764490*
Y8826490*
X3777740*
Y8842490*
X3790740*
Y8858740*
X3804240*
Y8876240*
X3815240*
Y8897990*
X3827740*
Y8919740*
X3837740*
Y8939240*
X3847990*
Y8967740*
X3858240*
Y9006240*
X3866740*
Y9055490*
X3873740*
Y9145740*
X3866490*
Y9171740*
X3859990*
Y9201740*
X3852490*
Y9223990*
X3844490*
Y9251240*
X3830240*
Y9272490*
X3821740*
Y9294740*
X3810490*
Y9311740*
X3796240*
Y9330490*
X3783490*
Y9344490*
X3772490*
Y9362740*
X3759240*
Y9375740*
X3746990*
Y9385990*
X3731490*
Y9400990*
X3717990*
Y9411490*
X3701740*
Y9420490*
X3686990*
Y9430740*
X3671240*
Y9441990*
X3658240Y9449990*
G37*
Y10374990D02*
Y9655490D01*
X3661490*
Y9666740*
X3678990*
Y9679490*
X3697490*
Y9690990*
X3713490*
Y9703240*
X3732990*
Y9718240*
X3747740*
Y9733990*
X3764490*
Y9751490*
X3777740*
Y9767490*
X3790740*
Y9783740*
X3804240*
Y9801240*
X3815240*
Y9822990*
X3827740*
Y9844740*
X3837740*
Y9864240*
X3847990*
Y9892740*
X3858240*
Y9931240*
X3866740*
Y9980490*
X3873740*
Y10070740*
X3866490*
Y10096740*
X3859990*
Y10126740*
X3852490*
Y10148990*
X3844490*
Y10176240*
X3830240*
Y10197490*
X3821740*
Y10219740*
X3810490*
Y10236740*
X3796240*
Y10255490*
X3783490*
Y10269490*
X3772490*
Y10287740*
X3759240*
Y10300740*
X3746990*
Y10310990*
X3731490*
Y10325990*
X3717990*
Y10336490*
X3701740*
Y10345490*
X3686990*
Y10355740*
X3671240*
Y10366990*
X3658240Y10374990*
G36*
Y9655490*
X3661490*
Y9666740*
X3678990*
Y9679490*
X3697490*
Y9690990*
X3713490*
Y9703240*
X3732990*
Y9718240*
X3747740*
Y9733990*
X3764490*
Y9751490*
X3777740*
Y9767490*
X3790740*
Y9783740*
X3804240*
Y9801240*
X3815240*
Y9822990*
X3827740*
Y9844740*
X3837740*
Y9864240*
X3847990*
Y9892740*
X3858240*
Y9931240*
X3866740*
Y9980490*
X3873740*
Y10070740*
X3866490*
Y10096740*
X3859990*
Y10126740*
X3852490*
Y10148990*
X3844490*
Y10176240*
X3830240*
Y10197490*
X3821740*
Y10219740*
X3810490*
Y10236740*
X3796240*
Y10255490*
X3783490*
Y10269490*
X3772490*
Y10287740*
X3759240*
Y10300740*
X3746990*
Y10310990*
X3731490*
Y10325990*
X3717990*
Y10336490*
X3701740*
Y10345490*
X3686990*
Y10355740*
X3671240*
Y10366990*
X3658240Y10374990*
G37*
X3729930Y1272360D02*
X3721990Y1280300D01*
X3714050Y1296180*
Y1319990*
X3721990Y1335860*
X3729930Y1343800*
X3745800Y1351740*
X3777550*
X3793430Y1343800*
X3801370Y1335860*
X3809300Y1319990*
Y1296180*
X3801370Y1280300*
X3793430Y1272360*
X3714050Y1208860D02*
Y1177110D01*
Y1192990D02*
X3809300D01*
X3793430Y1208860*
X3714050Y1081860D02*
Y1050110D01*
Y1065990D02*
X3809300D01*
X3793430Y1081860*
X3731930Y3547360D02*
X3723990Y3555300D01*
X3716050Y3571180*
Y3594990*
X3723990Y3610860*
X3731930Y3618800*
X3747800Y3626740*
X3779550*
X3795430Y3618800*
X3803370Y3610860*
X3811300Y3594990*
Y3571180*
X3803370Y3555300*
X3795430Y3547360*
X3716050Y3483860D02*
Y3452110D01*
Y3467990D02*
X3811300D01*
X3795430Y3483860*
X3723990Y3364800D02*
X3716050Y3348930D01*
Y3333050*
X3723990Y3317180*
X3739870Y3309240*
X3755740Y3317180*
X3763680Y3333050*
Y3348930*
Y3333050D02*
X3771620Y3317180D01*
X3787490Y3309240*
X3803370Y3317180*
X3811300Y3333050*
Y3348930*
X3803370Y3364800*
X3708240Y6111740D02*
X3644740D01*
X3708240Y6396740D02*
X3644740D01*
X3977740Y1190240D02*
G75*
G02X3537740I-220000D01*
G01*
G75*
G02X3977740I220000*
G01*
X3979740Y3465240D02*
G75*
G02X3539740I-220000D01*
G01*
G75*
G02X3979740I220000*
G01*
D02*
D13*
X82740Y5090240D02*
X1332740D01*
Y5290240*
X82740*
Y5090240*
X108800Y5375240D02*
X2233800D01*
Y10600240*
X108800*
Y5375240*
X182740Y240240D02*
X1432740D01*
Y440240*
X182740*
Y240240*
Y490240D02*
X1432740D01*
Y690240*
X182740*
Y490240*
Y740240D02*
X1432740D01*
Y940240*
X182740*
Y740240*
X207740Y1490240D02*
X1457740D01*
Y1690240*
X207740*
Y1490240*
Y1740240D02*
X1457740D01*
Y1940240*
X207740*
Y1740240*
Y1990240D02*
X1457740D01*
Y2190240*
X207740*
Y1990240*
Y2640240D02*
X1457740D01*
Y2840240*
X207740*
Y2640240*
Y2915240D02*
X1457740D01*
Y3115240*
X207740*
Y2915240*
X838800Y10285240D02*
X1458800D01*
Y10755240*
X838800*
Y10285240*
G36*
X1458800*
Y10755240*
X838800*
Y10285240*
G37*
X2470240Y7051740D02*
X2570240D01*
X2470240Y7561740D02*
X2570240D01*
X2607740Y1465240D02*
X3857740D01*
Y1665240*
X2607740*
Y1465240*
Y1715240D02*
X3857740D01*
Y1915240*
X2607740*
Y1715240*
Y1965240D02*
X3857740D01*
Y2165240*
X2607740*
Y1965240*
X2632740Y215240D02*
X3882740D01*
Y415240*
X2632740*
Y215240*
Y465240D02*
X3882740D01*
Y665240*
X2632740*
Y465240*
Y715240D02*
X3882740D01*
Y915240*
X2632740*
Y715240*
Y2490240D02*
X3882740D01*
Y2690240*
X2632740*
Y2490240*
Y2740240D02*
X3882740D01*
Y2940240*
X2632740*
Y2740240*
Y2990240D02*
X3882740D01*
Y3190240*
X2632740*
Y2990240*
Y3740240D02*
X3882740D01*
Y3940240*
X2632740*
Y3740240*
Y3990240D02*
X3882740D01*
Y4190240*
X2632740*
Y3990240*
Y4240240D02*
X3882740D01*
Y4440240*
X2632740*
Y4240240*
X2695240Y7306740D02*
X2795240D01*
X2695240Y7816740D02*
X2795240D01*
X2707740Y5740240D02*
X3957740D01*
Y5940240*
X2707740*
Y5740240*
D02*
D14*
X2750140Y10645860D02*
Y10884620D01*
X3352640Y5992360D02*
Y6231120D01*
Y6277360D02*
Y6516120D01*
D02*
D87*
X186210Y4674160D02*
X180640Y4674310D01*
X175070Y4674750*
X169800Y4675630*
X164670Y4676650*
X159690Y4678120*
X154710Y4679730*
X150030Y4681780*
X145340Y4684120*
X140940Y4686760*
X136840Y4689690*
X132890Y4692770*
X129220Y4696130*
X125710Y4699650*
X122490Y4703460*
X119560Y4707560*
X116920Y4711950*
X114430Y4716350*
X112380Y4721040*
X110620Y4725720*
X109160Y4730700*
X107980Y4735690*
X107250Y4740810*
X106670Y4746230*
X106520Y4751650*
X106670Y4757070*
X107250Y4762350*
X107980Y4767470*
X109160Y4772450*
X110620Y4777430*
X112380Y4782120*
X114430Y4786810*
X116920Y4791350*
X119560Y4795600*
X122490Y4799700*
X125710Y4803510*
X129220Y4807020*
X132890Y4810390*
X136840Y4813610*
X141090Y4816400*
X145480Y4819030*
X150170Y4821380*
X154860Y4823430*
X159840Y4825190*
X164820Y4826510*
X170090Y4827680*
X175370Y4828410*
X180790Y4828850*
X186350Y4829000*
X190600*
X194700Y4828700*
X198800Y4828260*
X202760Y4827680*
X206570Y4826800*
X210380Y4825920*
X214040Y4824750*
X217700Y4823430*
X221220Y4821960*
X224590Y4820210*
X227810Y4818450*
X231030Y4816400*
X233960Y4814350*
X236740Y4812000*
X239530Y4809510*
X242020Y4806880*
X231910Y4796620*
X227220Y4800870*
X222390Y4804530*
X217120Y4807610*
X211700Y4810100*
X205840Y4812150*
X199830Y4813610*
X193530Y4814350*
X186790Y4814640*
X182400Y4814490*
X178000Y4814200*
X173760Y4813470*
X169650Y4812590*
X165550Y4811420*
X161600Y4810100*
X157790Y4808340*
X153980Y4806440*
X150320Y4804240*
X146950Y4801900*
X143730Y4799410*
X140800Y4796620*
X138010Y4793690*
X135380Y4790620*
X133030Y4787250*
X130840Y4783730*
X128780Y4780220*
X127170Y4776410*
X125710Y4772600*
X124540Y4768500*
X123660Y4764540*
X122930Y4760290*
X122630Y4756050*
X122490Y4751650*
X122630Y4747260*
X122930Y4742860*
X123660Y4738760*
X124540Y4734660*
X125710Y4730700*
X127170Y4726750*
X128780Y4723090*
X130840Y4719430*
X133030Y4715910*
X135380Y4712540*
X138010Y4709460*
X140800Y4706530*
X143730Y4703900*
X146950Y4701260*
X150320Y4698920*
X153980Y4696720*
X157790Y4694820*
X161600Y4693200*
X165550Y4691740*
X169650Y4690570*
X173760Y4689690*
X178000Y4689100*
X182400Y4688660*
X186790Y4688520*
X193530Y4688810*
X199980Y4689690*
X205980Y4691150*
X211840Y4693060*
X217260Y4695700*
X222390Y4698770*
X227220Y4702580*
X231910Y4706830*
X242020Y4696570*
X239530Y4693940*
X236740Y4691450*
X233960Y4689100*
X231030Y4686910*
X227810Y4685000*
X224590Y4683100*
X221220Y4681490*
X217550Y4679870*
X213890Y4678560*
X210230Y4677380*
X206420Y4676360*
X202470Y4675630*
X198510Y4675040*
X194560Y4674450*
X190310Y4674310*
X186210Y4674160*
X384110Y4689400D02*
Y4675480D01*
X276440*
Y4827680*
X380880*
Y4813760*
X292550*
Y4759710*
X371360*
Y4745940*
X292550*
Y4689400*
X384110*
X525900Y4675480D02*
X491190Y4724410D01*
X485180Y4723970*
X478880Y4723820*
X438010*
Y4675480*
X421900*
Y4827680*
X478880*
X486060Y4827530*
X492650Y4826800*
X498950Y4825770*
X504960Y4824310*
X510380Y4822260*
X515500Y4819910*
X520340Y4817130*
X524590Y4813760*
X528540Y4810100*
X531910Y4806140*
X534690Y4801900*
X537040Y4797210*
X538790Y4792370*
X540110Y4787100*
X540850Y4781390*
X541140Y4775530*
X540990Y4771130*
X540550Y4766890*
X539820Y4762930*
X538940Y4759120*
X537620Y4755460*
X536010Y4751950*
X534250Y4748580*
X532060Y4745350*
X529710Y4742420*
X527080Y4739640*
X524290Y4737150*
X521220Y4734810*
X517850Y4732760*
X514190Y4730850*
X510380Y4729090*
X506280Y4727630*
X543480Y4675480*
X525900*
X478440Y4737440D02*
X484010Y4737590D01*
X489140Y4738030*
X493970Y4738910*
X498510Y4739930*
X502610Y4741400*
X506420Y4743160*
X509940Y4745060*
X513160Y4747400*
X515940Y4750040*
X518290Y4752970*
X520340Y4756050*
X522100Y4759420*
X523410Y4763080*
X524290Y4767030*
X524880Y4771130*
X525030Y4775530*
X524880Y4780070*
X524290Y4784170*
X523410Y4788130*
X522100Y4791940*
X520340Y4795300*
X518290Y4798380*
X515940Y4801310*
X513160Y4803950*
X509940Y4806290*
X506420Y4808200*
X502610Y4809950*
X498510Y4811270*
X493970Y4812440*
X489140Y4813180*
X484010Y4813610*
X478440Y4813760*
X438010*
Y4737440*
X478440*
X706520Y4827680D02*
Y4675480D01*
X693190*
X595340Y4798970*
Y4675480*
X579220*
Y4827680*
X592550*
X690700Y4704190*
Y4827680*
X706520*
X879660Y4674160D02*
X874100Y4674310D01*
X868530Y4674750*
X863260Y4675630*
X858130Y4676650*
X853000Y4678120*
X848020Y4679870*
X843340Y4681930*
X838650Y4684270*
X834110Y4686910*
X829860Y4689840*
X825900Y4692910*
X822240Y4696280*
X818730Y4699800*
X815500Y4703610*
X812570Y4707710*
X809940Y4711950*
X807450Y4716500*
X805400Y4721040*
X803640Y4725870*
X802170Y4730700*
X801000Y4735690*
X800270Y4740960*
X799680Y4746230*
X799540Y4751650*
X799680Y4757070*
X800270Y4762350*
X801000Y4767470*
X802170Y4772450*
X803640Y4777290*
X805400Y4782120*
X807450Y4786660*
X809940Y4791200*
X812570Y4795450*
X815500Y4799550*
X818730Y4803360*
X822240Y4806880*
X825900Y4810250*
X829860Y4813470*
X834110Y4816250*
X838650Y4818890*
X843340Y4821230*
X848020Y4823280*
X853000Y4825040*
X858130Y4826510*
X863260Y4827680*
X868530Y4828410*
X874100Y4828850*
X879660Y4829000*
X885230Y4828850*
X890650Y4828410*
X895920Y4827680*
X901200Y4826510*
X906180Y4825190*
X911010Y4823430*
X915850Y4821380*
X920390Y4819030*
X924780Y4816400*
X929030Y4813610*
X932980Y4810390*
X936650Y4807020*
X940160Y4803510*
X943380Y4799700*
X946310Y4795600*
X948950Y4791350*
X951440Y4786810*
X953640Y4782120*
X955400Y4777430*
X956860Y4772450*
X958030Y4767470*
X958770Y4762350*
X959350Y4757070*
X959500Y4751650*
X959350Y4746230*
X958770Y4740810*
X958030Y4735690*
X956860Y4730700*
X955400Y4725720*
X953640Y4721040*
X951440Y4716350*
X948950Y4711950*
X946310Y4707560*
X943380Y4703460*
X940160Y4699650*
X936650Y4696130*
X932980Y4692770*
X929030Y4689690*
X924780Y4686760*
X920390Y4684120*
X915850Y4681780*
X911010Y4679730*
X906180Y4678120*
X901200Y4676650*
X895920Y4675630*
X890650Y4674750*
X885230Y4674310*
X879660Y4674160*
Y4688520D02*
X884060Y4688660D01*
X888450Y4688960*
X892700Y4689690*
X896800Y4690570*
X900900Y4691740*
X904710Y4693060*
X908520Y4694820*
X912180Y4696720*
X915850Y4698770*
X919210Y4701110*
X922290Y4703610*
X925220Y4706390*
X928000Y4709320*
X930640Y4712390*
X932980Y4715760*
X935030Y4719280*
X937090Y4722940*
X938700Y4726750*
X940160Y4730560*
X941330Y4734660*
X942210Y4738760*
X942800Y4742860*
X943240Y4747260*
X943380Y4751650*
X943240Y4756050*
X942800Y4760290*
X942210Y4764540*
X941330Y4768640*
X940160Y4772600*
X938700Y4776410*
X937090Y4780220*
X935030Y4783880*
X932980Y4787390*
X930640Y4790760*
X928000Y4793840*
X925220Y4796770*
X922290Y4799550*
X919210Y4802040*
X915850Y4804390*
X912180Y4806580*
X908520Y4808490*
X904710Y4810100*
X900900Y4811560*
X896800Y4812590*
X892700Y4813470*
X888450Y4814200*
X884060Y4814490*
X879660Y4814640*
X875120Y4814490*
X870870Y4814200*
X866630Y4813470*
X862380Y4812590*
X858420Y4811560*
X854470Y4810100*
X850660Y4808490*
X846850Y4806580*
X843340Y4804390*
X839970Y4802040*
X836740Y4799550*
X833810Y4796770*
X831030Y4793840*
X828390Y4790760*
X826050Y4787390*
X823850Y4783880*
X821800Y4780220*
X820190Y4776410*
X818730Y4772600*
X817550Y4768640*
X816680Y4764540*
X815940Y4760290*
X815650Y4756050*
X815500Y4751650*
X815650Y4747260*
X815940Y4742860*
X816680Y4738760*
X817550Y4734660*
X818730Y4730560*
X820190Y4726750*
X821800Y4722940*
X823850Y4719280*
X826050Y4715760*
X828390Y4712390*
X831030Y4709320*
X833810Y4706390*
X836740Y4703610*
X839970Y4701110*
X843340Y4698770*
X846850Y4696720*
X850660Y4694820*
X854470Y4693060*
X858420Y4691740*
X862380Y4690570*
X866630Y4689690*
X870870Y4688960*
X875120Y4688660*
X879660Y4688520*
X1122830Y4827680D02*
Y4675480D01*
X1107010*
Y4745790*
X1011650*
Y4675480*
X995530*
Y4827680*
X1011650*
Y4759860*
X1107010*
Y4827680*
X1122830*
X1172340D02*
X1188450D01*
Y4689400*
X1273710*
Y4675480*
X1172340*
Y4827680*
X1288790Y4741110D02*
X1345780D01*
Y4727630*
X1288790*
Y4741110*
X1425610Y4674160D02*
X1421360Y4674310D01*
X1417260Y4674450*
X1413010Y4674890*
X1409060Y4675480*
X1404960Y4676210*
X1401000Y4677240*
X1397050Y4678260*
X1393090Y4679580*
X1389280Y4681050*
X1385770Y4682510*
X1382400Y4684120*
X1379320Y4685880*
X1376390Y4687780*
X1373760Y4689690*
X1371270Y4691740*
X1369070Y4693940*
X1375370Y4706390*
X1377560Y4704340*
X1379760Y4702430*
X1382250Y4700680*
X1385030Y4698920*
X1387820Y4697310*
X1390750Y4695700*
X1393970Y4694380*
X1397340Y4692910*
X1400710Y4691740*
X1404220Y4690710*
X1407740Y4689840*
X1411260Y4689100*
X1414770Y4688520*
X1418430Y4688220*
X1421950Y4687930*
X1425610*
X1430590*
X1435130Y4688370*
X1439530Y4688960*
X1443480Y4689690*
X1447140Y4690860*
X1450510Y4692030*
X1453590Y4693640*
X1456230Y4695400*
X1458720Y4697310*
X1460770Y4699360*
X1462530Y4701550*
X1463990Y4704040*
X1465020Y4706530*
X1465890Y4709170*
X1466330Y4711950*
X1466480Y4714880*
Y4717080*
X1466190Y4719130*
X1465750Y4721180*
X1465160Y4723090*
X1464280Y4724850*
X1463400Y4726460*
X1462230Y4727920*
X1460910Y4729390*
X1457980Y4732020*
X1454760Y4734220*
X1451250Y4736120*
X1447290Y4737740*
X1445240Y4738470*
X1442900Y4739350*
X1440410Y4740080*
X1437770Y4740810*
X1434840Y4741690*
X1431760Y4742570*
X1428390Y4743300*
X1424880Y4744180*
X1420780Y4745350*
X1416820Y4746380*
X1413010Y4747400*
X1409500Y4748430*
X1406130Y4749450*
X1403050Y4750480*
X1400270Y4751510*
X1397490Y4752530*
X1392650Y4754870*
X1388110Y4757660*
X1383860Y4761030*
X1380050Y4764840*
X1378300Y4767030*
X1376830Y4769380*
X1375510Y4771870*
X1374490Y4774650*
X1373760Y4777430*
X1373170Y4780510*
X1372880Y4783880*
X1372730Y4787250*
X1372880Y4790180*
X1373170Y4792960*
X1373610Y4795600*
X1374200Y4798230*
X1375070Y4800870*
X1376100Y4803360*
X1377420Y4805850*
X1378880Y4808340*
X1380490Y4810540*
X1382250Y4812740*
X1384300Y4814790*
X1386500Y4816840*
X1388990Y4818600*
X1391630Y4820350*
X1394560Y4821960*
X1397490Y4823430*
X1400860Y4824750*
X1404220Y4825920*
X1407890Y4826800*
X1411700Y4827680*
X1415650Y4828260*
X1419900Y4828700*
X1424290Y4829000*
X1428830*
X1435280Y4828850*
X1441720Y4828120*
X1448170Y4826950*
X1454470Y4825480*
X1460470Y4823430*
X1466040Y4821230*
X1471310Y4818600*
X1476000Y4815520*
X1470580Y4802780*
X1465750Y4805700*
X1460770Y4808200*
X1455490Y4810390*
X1450220Y4812150*
X1444800Y4813610*
X1439380Y4814490*
X1434110Y4815080*
X1428830Y4815370*
X1424000Y4815230*
X1419460Y4814790*
X1415210Y4814200*
X1411260Y4813470*
X1407740Y4812300*
X1404370Y4810980*
X1401440Y4809370*
X1398800Y4807610*
X1396310Y4805560*
X1394260Y4803510*
X1392510Y4801160*
X1391190Y4798820*
X1390020Y4796180*
X1389280Y4793550*
X1388840Y4790760*
X1388550Y4787690*
X1388700Y4785490*
X1388990Y4783440*
X1389430Y4781390*
X1390020Y4779480*
X1390750Y4777730*
X1391770Y4775970*
X1392800Y4774500*
X1394120Y4773040*
X1397050Y4770400*
X1400420Y4768060*
X1404080Y4766150*
X1408030Y4764540*
X1410230Y4763810*
X1412570Y4763080*
X1415210Y4762200*
X1417850Y4761470*
X1420780Y4760730*
X1423850Y4759860*
X1427220Y4758980*
X1430590Y4758100*
X1434690Y4757070*
X1438500Y4756050*
X1442310Y4755020*
X1445680Y4754000*
X1449050Y4752970*
X1452120Y4751950*
X1455050Y4750920*
X1457690Y4750040*
X1462670Y4747700*
X1467210Y4744910*
X1471460Y4741540*
X1475120Y4737740*
X1476880Y4735690*
X1478350Y4733340*
X1479520Y4730850*
X1480540Y4728210*
X1481420Y4725280*
X1481860Y4722360*
X1482300Y4719130*
Y4715760*
Y4712830*
X1482010Y4710050*
X1481570Y4707410*
X1480840Y4704630*
X1479960Y4702140*
X1478930Y4699500*
X1477610Y4697160*
X1476150Y4694670*
X1474540Y4692470*
X1472630Y4690280*
X1470580Y4688220*
X1468380Y4686170*
X1465890Y4684420*
X1463110Y4682660*
X1460180Y4681190*
X1457110Y4679730*
X1453880Y4678410*
X1450370Y4677240*
X1446700Y4676360*
X1442900Y4675480*
X1438790Y4674890*
X1434550Y4674450*
X1430150Y4674310*
X1425610Y4674160*
X1667160Y4789880D02*
X1616330Y4675480D01*
X1600370*
X1549680Y4789880*
X1565800*
X1608720Y4692470*
X1651930Y4789880*
X1667160*
X1782740Y4689400D02*
Y4675480D01*
X1675950*
Y4686610*
X1739230Y4748580*
X1742160Y4751510*
X1744800Y4754290*
X1747140Y4756930*
X1749340Y4759560*
X1751250Y4762050*
X1752860Y4764400*
X1754320Y4766740*
X1755490Y4768940*
X1757250Y4773190*
X1758570Y4777580*
X1759450Y4781830*
X1759740Y4786220*
X1759600Y4789450*
X1759160Y4792520*
X1758420Y4795450*
X1757400Y4798230*
X1756080Y4800720*
X1754470Y4803070*
X1752560Y4805270*
X1750510Y4807170*
X1748020Y4808930*
X1745390Y4810390*
X1742460Y4811710*
X1739230Y4812740*
X1735720Y4813610*
X1732060Y4814200*
X1728250Y4814640*
X1724000*
X1717550Y4814490*
X1711400Y4813610*
X1705690Y4812300*
X1700270Y4810390*
X1695290Y4808050*
X1690600Y4805120*
X1686350Y4801750*
X1682400Y4797790*
X1671410Y4807320*
X1673610Y4809810*
X1676100Y4812150*
X1678740Y4814490*
X1681520Y4816540*
X1684450Y4818450*
X1687530Y4820210*
X1690750Y4821960*
X1694120Y4823430*
X1697630Y4824750*
X1701290Y4825920*
X1704960Y4826800*
X1708770Y4827680*
X1712720Y4828260*
X1716820Y4828700*
X1721070Y4829000*
X1725320*
X1731030Y4828850*
X1736300Y4828410*
X1741430Y4827530*
X1746120Y4826360*
X1750660Y4824750*
X1754760Y4822840*
X1758570Y4820650*
X1762230Y4818010*
X1765310Y4815230*
X1768090Y4812000*
X1770440Y4808630*
X1772340Y4804970*
X1773800Y4801160*
X1774980Y4797060*
X1775560Y4792520*
X1775860Y4787980*
X1775710Y4785050*
X1775420Y4782120*
X1775120Y4779190*
X1774540Y4776410*
X1773800Y4773620*
X1772780Y4770840*
X1771750Y4768060*
X1770580Y4765280*
X1769120Y4762490*
X1767360Y4759710*
X1765310Y4756630*
X1762960Y4753560*
X1760330Y4750480*
X1757540Y4747110*
X1754320Y4743740*
X1750810Y4740230*
X1698950Y4689400*
X1782740*
X166730Y4676240D02*
X205770D01*
X276440D02*
X384110D01*
X421900D02*
X438010D01*
X525360D02*
X542940D01*
X579220D02*
X595340D01*
X692590D02*
X706520D01*
X860190D02*
X899080D01*
X995530D02*
X1011650D01*
X1107010D02*
X1122830D01*
X1172340D02*
X1273710D01*
X1404840D02*
X1446180D01*
X1600030D02*
X1616670D01*
X1675950D02*
X1782740D01*
X158140Y4678620D02*
X214060D01*
X276440D02*
X384110D01*
X421900D02*
X438010D01*
X523670D02*
X541240D01*
X579220D02*
X595340D01*
X690700D02*
X706520D01*
X851580D02*
X907680D01*
X995530D02*
X1011650D01*
X1107010D02*
X1122830D01*
X1172340D02*
X1273710D01*
X1395970D02*
X1454390D01*
X1598980D02*
X1617730D01*
X1675950D02*
X1782740D01*
X151810Y4681000D02*
X220110D01*
X276440D02*
X384110D01*
X421900D02*
X438010D01*
X521980D02*
X539540D01*
X579220D02*
X595340D01*
X688820D02*
X706520D01*
X845450D02*
X914010D01*
X995530D02*
X1011650D01*
X1107010D02*
X1122830D01*
X1172340D02*
X1273710D01*
X1389410D02*
X1459780D01*
X1597920D02*
X1618780D01*
X1675950D02*
X1782740D01*
X146820Y4683380D02*
X225060D01*
X276440D02*
X384110D01*
X421900D02*
X438010D01*
X520300D02*
X537840D01*
X579220D02*
X595340D01*
X686930D02*
X706520D01*
X840430D02*
X918950D01*
X995530D02*
X1011650D01*
X1107010D02*
X1122830D01*
X1172340D02*
X1273710D01*
X1383950D02*
X1464250D01*
X1596870D02*
X1619840D01*
X1675950D02*
X1782740D01*
X142610Y4685760D02*
X229090D01*
X276440D02*
X384110D01*
X421900D02*
X438010D01*
X518610D02*
X536150D01*
X579220D02*
X595340D01*
X685040D02*
X706520D01*
X836090D02*
X923120D01*
X995530D02*
X1011650D01*
X1107010D02*
X1122830D01*
X1172340D02*
X1273710D01*
X1379530D02*
X1467800D01*
X1595810D02*
X1620900D01*
X1675950D02*
X1782740D01*
X139010Y4688140D02*
X232680D01*
X276440D02*
X384110D01*
X421900D02*
X438010D01*
X516920D02*
X534450D01*
X579220D02*
X595340D01*
X683160D02*
X706520D01*
X832330D02*
X926780D01*
X995530D02*
X1011650D01*
X1107010D02*
X1122830D01*
X1172340D02*
X1273710D01*
X1375890D02*
X1419400D01*
X1432760D02*
X1470490D01*
X1594760D02*
X1621960D01*
X1677510D02*
X1782740D01*
X135780Y4690520D02*
X169880D01*
X203390D02*
X235640D01*
X276440D02*
X292550D01*
X421900D02*
X438010D01*
X515230D02*
X532750D01*
X579220D02*
X595340D01*
X681270D02*
X706520D01*
X828980D02*
X862620D01*
X896570D02*
X930090D01*
X995530D02*
X1011650D01*
X1107010D02*
X1122830D01*
X1172340D02*
X1188450D01*
X1372750D02*
X1404990D01*
X1446080D02*
X1472840D01*
X1593710D02*
X1623010D01*
X1679940D02*
X1700090D01*
X132750Y4692900D02*
X162410D01*
X211350D02*
X238360D01*
X276440D02*
X292550D01*
X421900D02*
X438010D01*
X513540D02*
X531050D01*
X579220D02*
X595340D01*
X679390D02*
X706520D01*
X825910D02*
X854950D01*
X904250D02*
X933120D01*
X995530D02*
X1011650D01*
X1107010D02*
X1122830D01*
X1172340D02*
X1188450D01*
X1370110D02*
X1397340D01*
X1452170D02*
X1474850D01*
X1592650D02*
X1608530D01*
X1608910D02*
X1624070D01*
X1682370D02*
X1702520D01*
X130150Y4695280D02*
X156870D01*
X216400D02*
X240800D01*
X276440D02*
X292550D01*
X421900D02*
X438010D01*
X511850D02*
X529360D01*
X579220D02*
X595340D01*
X677500D02*
X706520D01*
X823330D02*
X849740D01*
X909410D02*
X935720D01*
X995530D02*
X1011650D01*
X1107010D02*
X1122830D01*
X1172340D02*
X1188450D01*
X1369750D02*
X1391770D01*
X1456050D02*
X1476510D01*
X1591600D02*
X1607480D01*
X1609970D02*
X1625130D01*
X1684800D02*
X1704950D01*
X127690Y4697660D02*
X152420D01*
X220540D02*
X240950D01*
X276440D02*
X292550D01*
X421900D02*
X438010D01*
X510170D02*
X527660D01*
X579220D02*
X595340D01*
X675620D02*
X706520D01*
X820860D02*
X845240D01*
X913860D02*
X938180D01*
X995530D02*
X1011650D01*
X1107010D02*
X1122830D01*
X1172340D02*
X1188450D01*
X1370950D02*
X1387210D01*
X1459070D02*
X1477890D01*
X1590540D02*
X1606430D01*
X1611020D02*
X1626180D01*
X1687230D02*
X1707380D01*
X125380Y4700040D02*
X148710D01*
X224000D02*
X238600D01*
X276440D02*
X292550D01*
X421900D02*
X438010D01*
X508480D02*
X525960D01*
X579220D02*
X595340D01*
X673730D02*
X706520D01*
X818530D02*
X841510D01*
X917670D02*
X940490D01*
X995530D02*
X1011650D01*
X1107010D02*
X1122830D01*
X1172340D02*
X1188450D01*
X1372160D02*
X1383260D01*
X1461320D02*
X1479140D01*
X1589490D02*
X1605380D01*
X1612080D02*
X1627240D01*
X1689660D02*
X1709810D01*
X123370Y4702420D02*
X145540D01*
X227020D02*
X236260D01*
X276440D02*
X292550D01*
X421900D02*
X438010D01*
X506790D02*
X524260D01*
X579220D02*
X595340D01*
X671840D02*
X706520D01*
X816510D02*
X838280D01*
X920820D02*
X942500D01*
X995530D02*
X1011650D01*
X1107010D02*
X1122830D01*
X1172340D02*
X1188450D01*
X1373360D02*
X1379760D01*
X1463040D02*
X1480060D01*
X1588430D02*
X1604340D01*
X1613130D02*
X1628300D01*
X1692090D02*
X1712230D01*
X121530Y4704800D02*
X142730D01*
X229670D02*
X233910D01*
X276440D02*
X292550D01*
X421900D02*
X438010D01*
X505100D02*
X522570D01*
X579220D02*
X595340D01*
X669960D02*
X690220D01*
X690700D02*
X706520D01*
X814650D02*
X835490D01*
X923540D02*
X944340D01*
X995530D02*
X1011650D01*
X1107010D02*
X1122830D01*
X1172340D02*
X1188450D01*
X1374570D02*
X1377070D01*
X1464300D02*
X1480880D01*
X1587380D02*
X1603290D01*
X1614190D02*
X1629360D01*
X1694520D02*
X1714660D01*
X119830Y4707180D02*
X140180D01*
X276440D02*
X292550D01*
X421900D02*
X438010D01*
X503410D02*
X520870D01*
X579220D02*
X595340D01*
X668070D02*
X688320D01*
X690700D02*
X706520D01*
X812950D02*
X833060D01*
X925970D02*
X946040D01*
X995530D02*
X1011650D01*
X1107010D02*
X1122830D01*
X1172340D02*
X1188450D01*
X1465230D02*
X1481510D01*
X1586320D02*
X1602240D01*
X1615250D02*
X1630410D01*
X1696950D02*
X1717090D01*
X118360Y4709560D02*
X137920D01*
X276440D02*
X292550D01*
X421900D02*
X438010D01*
X501720D02*
X519170D01*
X579220D02*
X595340D01*
X666190D02*
X686430D01*
X690700D02*
X706520D01*
X811420D02*
X830820D01*
X928210D02*
X947510D01*
X995530D02*
X1011650D01*
X1107010D02*
X1122830D01*
X1172340D02*
X1188450D01*
X1465950D02*
X1481930D01*
X1585270D02*
X1601190D01*
X1616300D02*
X1631470D01*
X1699390D02*
X1719520D01*
X116930Y4711940D02*
X135890D01*
X276440D02*
X292550D01*
X421900D02*
X438010D01*
X500040D02*
X517470D01*
X579220D02*
X595340D01*
X664300D02*
X684540D01*
X690700D02*
X706520D01*
X809950D02*
X828780D01*
X930250D02*
X948950D01*
X995530D02*
X1011650D01*
X1107010D02*
X1122830D01*
X1172340D02*
X1188450D01*
X1466330D02*
X1482210D01*
X1584210D02*
X1600140D01*
X1617360D02*
X1632530D01*
X1701820D02*
X1721950D01*
X115580Y4714320D02*
X134140D01*
X276440D02*
X292550D01*
X421900D02*
X438010D01*
X498350D02*
X515770D01*
X579220D02*
X595340D01*
X662410D02*
X682650D01*
X690700D02*
X706520D01*
X808640D02*
X827050D01*
X931980D02*
X950290D01*
X995530D02*
X1011650D01*
X1107010D02*
X1122830D01*
X1172340D02*
X1188450D01*
X1466450D02*
X1482300D01*
X1583160D02*
X1599090D01*
X1618410D02*
X1633590D01*
X1704250D02*
X1724370D01*
X114280Y4716700D02*
X132540D01*
X276440D02*
X292550D01*
X421900D02*
X438010D01*
X496660D02*
X514080D01*
X579220D02*
X595340D01*
X660530D02*
X680760D01*
X690700D02*
X706520D01*
X807360D02*
X825460D01*
X933530D02*
X951600D01*
X995530D02*
X1011650D01*
X1107010D02*
X1122830D01*
X1172340D02*
X1188450D01*
X1466480D02*
X1482300D01*
X1582110D02*
X1598040D01*
X1619470D02*
X1634640D01*
X1706680D02*
X1726800D01*
X113240Y4719080D02*
X131060D01*
X276440D02*
X292550D01*
X421900D02*
X438010D01*
X494970D02*
X512380D01*
X579220D02*
X595340D01*
X658640D02*
X678870D01*
X690700D02*
X706520D01*
X806290D02*
X823980D01*
X934910D02*
X952720D01*
X995530D02*
X1011650D01*
X1107010D02*
X1122830D01*
X1172340D02*
X1188450D01*
X1466200D02*
X1482300D01*
X1581050D02*
X1597000D01*
X1620520D02*
X1635700D01*
X1709110D02*
X1729230D01*
X112220Y4721460D02*
X129700D01*
X276440D02*
X292550D01*
X421900D02*
X438010D01*
X493280D02*
X510680D01*
X579220D02*
X595340D01*
X656760D02*
X676970D01*
X690700D02*
X706520D01*
X805250D02*
X822630D01*
X936260D02*
X953800D01*
X995530D02*
X1011650D01*
X1107010D02*
X1122830D01*
X1172340D02*
X1188450D01*
X1465660D02*
X1481980D01*
X1580000D02*
X1595950D01*
X1621580D02*
X1636760D01*
X1711540D02*
X1731660D01*
X111330Y4723840D02*
X128450D01*
X276440D02*
X292550D01*
X421900D02*
X478880D01*
X491590D02*
X508980D01*
X579220D02*
X595340D01*
X654870D02*
X675080D01*
X690700D02*
X706520D01*
X804380D02*
X821420D01*
X937470D02*
X954690D01*
X995530D02*
X1011650D01*
X1107010D02*
X1122830D01*
X1172340D02*
X1188450D01*
X1464780D02*
X1481640D01*
X1578940D02*
X1594900D01*
X1622640D02*
X1637820D01*
X1713970D02*
X1734090D01*
X110470Y4726220D02*
X127400D01*
X276440D02*
X292550D01*
X421900D02*
X507290D01*
X579220D02*
X595340D01*
X652990D02*
X673190D01*
X690700D02*
X706520D01*
X803530D02*
X820410D01*
X938480D02*
X955550D01*
X995530D02*
X1011650D01*
X1107010D02*
X1122830D01*
X1172340D02*
X1188450D01*
X1463530D02*
X1481140D01*
X1577890D02*
X1593850D01*
X1623690D02*
X1638870D01*
X1716400D02*
X1736520D01*
X109780Y4728600D02*
X126490D01*
X276440D02*
X292550D01*
X421900D02*
X509000D01*
X579220D02*
X595340D01*
X651100D02*
X671300D01*
X690700D02*
X706520D01*
X802810D02*
X819480D01*
X939410D02*
X956240D01*
X995530D02*
X1011650D01*
X1107010D02*
X1122830D01*
X1172340D02*
X1188450D01*
X1288790D02*
X1345780D01*
X1461620D02*
X1480390D01*
X1576830D02*
X1592800D01*
X1624750D02*
X1639930D01*
X1718830D02*
X1738940D01*
X109090Y4730980D02*
X125630D01*
X276440D02*
X292550D01*
X421900D02*
X514440D01*
X579220D02*
X595340D01*
X649210D02*
X669410D01*
X690700D02*
X706520D01*
X802100D02*
X818610D01*
X940280D02*
X956930D01*
X995530D02*
X1011650D01*
X1107010D02*
X1122830D01*
X1172340D02*
X1188450D01*
X1288790D02*
X1345780D01*
X1459140D02*
X1479460D01*
X1575780D02*
X1591750D01*
X1625800D02*
X1640990D01*
X1721260D02*
X1741370D01*
X108530Y4733360D02*
X124920D01*
X276440D02*
X292550D01*
X421900D02*
X518840D01*
X579220D02*
X595340D01*
X647330D02*
X667520D01*
X690700D02*
X706520D01*
X801550D02*
X817920D01*
X940960D02*
X957480D01*
X995530D02*
X1011650D01*
X1107010D02*
X1122830D01*
X1172340D02*
X1188450D01*
X1288790D02*
X1345780D01*
X1456020D02*
X1478350D01*
X1574720D02*
X1590700D01*
X1626860D02*
X1642050D01*
X1723690D02*
X1743800D01*
X107970Y4735740D02*
X124310D01*
X276440D02*
X292550D01*
X421900D02*
X522440D01*
X579220D02*
X595340D01*
X645440D02*
X665620D01*
X690700D02*
X706520D01*
X800990D02*
X817320D01*
X941560D02*
X958040D01*
X995530D02*
X1011650D01*
X1107010D02*
X1122830D01*
X1172340D02*
X1188450D01*
X1288790D02*
X1345780D01*
X1451950D02*
X1476840D01*
X1573670D02*
X1589650D01*
X1627910D02*
X1643100D01*
X1726120D02*
X1746230D01*
X107630Y4738120D02*
X123800D01*
X276440D02*
X292550D01*
X421900D02*
X438010D01*
X489630D02*
X525380D01*
X579220D02*
X595340D01*
X643560D02*
X663730D01*
X690700D02*
X706520D01*
X800660D02*
X816820D01*
X942070D02*
X958380D01*
X995530D02*
X1011650D01*
X1107010D02*
X1122830D01*
X1172340D02*
X1188450D01*
X1288790D02*
X1345780D01*
X1446220D02*
X1474750D01*
X1572610D02*
X1588610D01*
X1628970D02*
X1644160D01*
X1728550D02*
X1748660D01*
X107290Y4740500D02*
X123350D01*
X276440D02*
X292550D01*
X421900D02*
X438010D01*
X500100D02*
X527890D01*
X579220D02*
X595340D01*
X641670D02*
X661840D01*
X690700D02*
X706520D01*
X800330D02*
X816370D01*
X942460D02*
X958730D01*
X995530D02*
X1011650D01*
X1107010D02*
X1122830D01*
X1172340D02*
X1188450D01*
X1288790D02*
X1345780D01*
X1438890D02*
X1472460D01*
X1571560D02*
X1587560D01*
X1630030D02*
X1645220D01*
X1730980D02*
X1751080D01*
X107030Y4742880D02*
X122930D01*
X276440D02*
X292550D01*
X421900D02*
X438010D01*
X505810D02*
X530080D01*
X579220D02*
X595340D01*
X639780D02*
X659950D01*
X690700D02*
X706520D01*
X800060D02*
X815940D01*
X942800D02*
X958990D01*
X995530D02*
X1011650D01*
X1107010D02*
X1122830D01*
X1172340D02*
X1188450D01*
X1430330D02*
X1469770D01*
X1570510D02*
X1586510D01*
X1631080D02*
X1646280D01*
X1733410D02*
X1753460D01*
X106770Y4745260D02*
X122770D01*
X276440D02*
X292550D01*
X421900D02*
X438010D01*
X510220D02*
X531990D01*
X579220D02*
X595340D01*
X637900D02*
X658060D01*
X690700D02*
X706520D01*
X799790D02*
X815780D01*
X943040D02*
X959250D01*
X995530D02*
X1011650D01*
X1107010D02*
X1122830D01*
X1172340D02*
X1188450D01*
X1421100D02*
X1466640D01*
X1569450D02*
X1585460D01*
X1632140D02*
X1647330D01*
X1735840D02*
X1755770D01*
X106630Y4747640D02*
X122620D01*
X276440D02*
X371360D01*
X421900D02*
X438010D01*
X513410D02*
X533610D01*
X579220D02*
X595340D01*
X636010D02*
X656170D01*
X690700D02*
X706520D01*
X799640D02*
X815640D01*
X943250D02*
X959390D01*
X995530D02*
X1122830D01*
X1172340D02*
X1188450D01*
X1412190D02*
X1462770D01*
X1568400D02*
X1584410D01*
X1633190D02*
X1648390D01*
X1738270D02*
X1757980D01*
X106570Y4750020D02*
X122540D01*
X276440D02*
X371360D01*
X421900D02*
X438010D01*
X515920D02*
X535000D01*
X579220D02*
X595340D01*
X634130D02*
X654270D01*
X690700D02*
X706520D01*
X799580D02*
X815560D01*
X943330D02*
X959450D01*
X995530D02*
X1122830D01*
X1172340D02*
X1188450D01*
X1404430D02*
X1457690D01*
X1567340D02*
X1583360D01*
X1634250D02*
X1649450D01*
X1740670D02*
X1759950D01*
X106540Y4752400D02*
X122510D01*
X276440D02*
X371360D01*
X421900D02*
X438010D01*
X517830D02*
X536220D01*
X579220D02*
X595340D01*
X632240D02*
X652380D01*
X690700D02*
X706520D01*
X799560D02*
X815530D01*
X943360D02*
X959480D01*
X995530D02*
X1122830D01*
X1172340D02*
X1188450D01*
X1397840D02*
X1450770D01*
X1566290D02*
X1582310D01*
X1635300D02*
X1650510D01*
X1743010D02*
X1761970D01*
X106610Y4754780D02*
X122590D01*
X276440D02*
X371360D01*
X421900D02*
X438010D01*
X519490D02*
X537310D01*
X579220D02*
X595340D01*
X630350D02*
X650490D01*
X690700D02*
X706520D01*
X799620D02*
X815610D01*
X943280D02*
X959410D01*
X995530D02*
X1122830D01*
X1172340D02*
X1188450D01*
X1392840D02*
X1443100D01*
X1565230D02*
X1581270D01*
X1636360D02*
X1651560D01*
X1745230D02*
X1763890D01*
X106680Y4757160D02*
X122710D01*
X276440D02*
X371360D01*
X421900D02*
X438010D01*
X520920D02*
X538230D01*
X579220D02*
X595340D01*
X628470D02*
X648600D01*
X690700D02*
X706520D01*
X799690D02*
X815730D01*
X943120D02*
X959340D01*
X995530D02*
X1122830D01*
X1172340D02*
X1188450D01*
X1388920D02*
X1434330D01*
X1564180D02*
X1580220D01*
X1637420D02*
X1652620D01*
X1747330D02*
X1765660D01*
X106940Y4759540D02*
X122880D01*
X276440D02*
X371360D01*
X421900D02*
X438010D01*
X522140D02*
X539040D01*
X579220D02*
X595340D01*
X626580D02*
X646710D01*
X690700D02*
X706520D01*
X799960D02*
X815890D01*
X942880D02*
X959080D01*
X995530D02*
X1122830D01*
X1172340D02*
X1188450D01*
X1385740D02*
X1425080D01*
X1563120D02*
X1579170D01*
X1638470D02*
X1653680D01*
X1749320D02*
X1767250D01*
X107200Y4761920D02*
X123210D01*
X276440D02*
X292550D01*
X421900D02*
X438010D01*
X522990D02*
X539590D01*
X579220D02*
X595340D01*
X624700D02*
X644820D01*
X690700D02*
X706520D01*
X800220D02*
X816220D01*
X942570D02*
X958820D01*
X995530D02*
X1011650D01*
X1107010D02*
X1122830D01*
X1172340D02*
X1188450D01*
X1382970D02*
X1416220D01*
X1562070D02*
X1578120D01*
X1639530D02*
X1654740D01*
X1751150D02*
X1768760D01*
X107530Y4764300D02*
X123620D01*
X276440D02*
X292550D01*
X421900D02*
X438010D01*
X523680D02*
X540070D01*
X579220D02*
X595340D01*
X622810D02*
X642920D01*
X690700D02*
X706520D01*
X800550D02*
X816640D01*
X942240D02*
X958490D01*
X995530D02*
X1011650D01*
X1107010D02*
X1122830D01*
X1172340D02*
X1188450D01*
X1380590D02*
X1408750D01*
X1561010D02*
X1577070D01*
X1640580D02*
X1655790D01*
X1752790D02*
X1770070D01*
X107870Y4766680D02*
X124140D01*
X276440D02*
X292550D01*
X421900D02*
X438010D01*
X524210D02*
X540510D01*
X579220D02*
X595340D01*
X620930D02*
X641030D01*
X690700D02*
X706520D01*
X800890D02*
X817130D01*
X941750D02*
X958140D01*
X995530D02*
X1011650D01*
X1107010D02*
X1122830D01*
X1172340D02*
X1188450D01*
X1378580D02*
X1403060D01*
X1559960D02*
X1576020D01*
X1641640D02*
X1656850D01*
X1754280D02*
X1771170D01*
X108360Y4769060D02*
X124700D01*
X276440D02*
X292550D01*
X421900D02*
X438010D01*
X524580D02*
X540780D01*
X579220D02*
X595340D01*
X619040D02*
X639140D01*
X690700D02*
X706520D01*
X801370D02*
X817680D01*
X941210D02*
X957660D01*
X995530D02*
X1011650D01*
X1107010D02*
X1122830D01*
X1172340D02*
X1188450D01*
X1377030D02*
X1398980D01*
X1558910D02*
X1574970D01*
X1642690D02*
X1657910D01*
X1755540D02*
X1772120D01*
X108920Y4771440D02*
X125380D01*
X276440D02*
X292550D01*
X421900D02*
X438010D01*
X524890D02*
X541000D01*
X579220D02*
X595340D01*
X617150D02*
X637250D01*
X690700D02*
X706520D01*
X801930D02*
X818380D01*
X940500D02*
X957100D01*
X995530D02*
X1011650D01*
X1107010D02*
X1122830D01*
X1172340D02*
X1188450D01*
X1375740D02*
X1395900D01*
X1557850D02*
X1573920D01*
X1643750D02*
X1658970D01*
X1756530D02*
X1773000D01*
X109560Y4773820D02*
X126180D01*
X276440D02*
X292550D01*
X421900D02*
X438010D01*
X524970D02*
X541080D01*
X579220D02*
X595340D01*
X615270D02*
X635360D01*
X690700D02*
X706520D01*
X802590D02*
X819200D01*
X939690D02*
X956460D01*
X995530D02*
X1011650D01*
X1107010D02*
X1122830D01*
X1172340D02*
X1188450D01*
X1374790D02*
X1393410D01*
X1556800D02*
X1572880D01*
X1644810D02*
X1660020D01*
X1757440D02*
X1773850D01*
X110260Y4776200D02*
X127090D01*
X276440D02*
X292550D01*
X421900D02*
X438010D01*
X525010D02*
X541110D01*
X579220D02*
X595340D01*
X613380D02*
X633470D01*
X690700D02*
X706520D01*
X803310D02*
X820110D01*
X938780D02*
X955760D01*
X995530D02*
X1011650D01*
X1107010D02*
X1122830D01*
X1172340D02*
X1188450D01*
X1374080D02*
X1391640D01*
X1555740D02*
X1571830D01*
X1645860D02*
X1661080D01*
X1758160D02*
X1774480D01*
X111050Y4778580D02*
X128090D01*
X276440D02*
X292550D01*
X421900D02*
X438010D01*
X524930D02*
X540990D01*
X579220D02*
X595340D01*
X611500D02*
X631570D01*
X690700D02*
X706520D01*
X804110D02*
X821110D01*
X937780D02*
X954970D01*
X995530D02*
X1011650D01*
X1107010D02*
X1122830D01*
X1172340D02*
X1188450D01*
X1373540D02*
X1390400D01*
X1554690D02*
X1570780D01*
X1646920D02*
X1662140D01*
X1758780D02*
X1774990D01*
X111940Y4780960D02*
X129210D01*
X276440D02*
X292550D01*
X421900D02*
X438010D01*
X524750D02*
X540870D01*
X579220D02*
X595340D01*
X609610D02*
X629680D01*
X690700D02*
X706520D01*
X804980D02*
X822210D01*
X936670D02*
X954080D01*
X995530D02*
X1011650D01*
X1107010D02*
X1122830D01*
X1172340D02*
X1188450D01*
X1373130D02*
X1389560D01*
X1553630D02*
X1569730D01*
X1647970D02*
X1663200D01*
X1759270D02*
X1775300D01*
X112910Y4783340D02*
X130610D01*
X276440D02*
X292550D01*
X421900D02*
X438010D01*
X524410D02*
X540600D01*
X579220D02*
X595340D01*
X607720D02*
X627790D01*
X690700D02*
X706520D01*
X805950D02*
X823550D01*
X935330D02*
X953070D01*
X995530D02*
X1011650D01*
X1107010D02*
X1122830D01*
X1172340D02*
X1188450D01*
X1372930D02*
X1389010D01*
X1552580D02*
X1568680D01*
X1649030D02*
X1664250D01*
X1759550D02*
X1775540D01*
X113950Y4785720D02*
X132080D01*
X276440D02*
X292550D01*
X421900D02*
X438010D01*
X523950D02*
X540290D01*
X579220D02*
X595340D01*
X605840D02*
X625900D01*
X690700D02*
X706520D01*
X807030D02*
X825000D01*
X933960D02*
X951950D01*
X995530D02*
X1011650D01*
X1107010D02*
X1122830D01*
X1172340D02*
X1188450D01*
X1372800D02*
X1388680D01*
X1551520D02*
X1567630D01*
X1650080D02*
X1665310D01*
X1759710D02*
X1775740D01*
X115140Y4788100D02*
X133620D01*
X276440D02*
X292550D01*
X421900D02*
X438010D01*
X523420D02*
X539860D01*
X579220D02*
X595340D01*
X603950D02*
X624010D01*
X690700D02*
X706520D01*
X808240D02*
X826540D01*
X932490D02*
X950730D01*
X995530D02*
X1011650D01*
X1107010D02*
X1122830D01*
X1172340D02*
X1188450D01*
X1372770D02*
X1388590D01*
X1550470D02*
X1566580D01*
X1651140D02*
X1666370D01*
X1759660D02*
X1775850D01*
X116440Y4790480D02*
X135280D01*
X276440D02*
X292550D01*
X421900D02*
X438010D01*
X522600D02*
X539260D01*
X579220D02*
X595340D01*
X602070D02*
X622120D01*
X690700D02*
X706520D01*
X809550D02*
X828200D01*
X930830D02*
X949430D01*
X995530D02*
X1011650D01*
X1107010D02*
X1122830D01*
X1172340D02*
X1188450D01*
X1372910D02*
X1388810D01*
X1759450D02*
X1775690D01*
X117860Y4792860D02*
X137300D01*
X276440D02*
X292550D01*
X421900D02*
X438010D01*
X521620D02*
X538610D01*
X579220D02*
X595340D01*
X600180D02*
X620220D01*
X690700D02*
X706520D01*
X810970D02*
X830190D01*
X928840D02*
X948010D01*
X995530D02*
X1011650D01*
X1107010D02*
X1122830D01*
X1172340D02*
X1188450D01*
X1373160D02*
X1389170D01*
X1759070D02*
X1775520D01*
X119340Y4795240D02*
X139490D01*
X276440D02*
X292550D01*
X421900D02*
X438010D01*
X520370D02*
X537750D01*
X579220D02*
X595340D01*
X598300D02*
X618330D01*
X690700D02*
X706520D01*
X812440D02*
X832360D01*
X926670D02*
X946530D01*
X995530D02*
X1011650D01*
X1107010D02*
X1122830D01*
X1172340D02*
X1188450D01*
X1373550D02*
X1389760D01*
X1758470D02*
X1775210D01*
X121000Y4797620D02*
X141850D01*
X230810D02*
X232900D01*
X276440D02*
X292550D01*
X421900D02*
X438010D01*
X518800D02*
X536830D01*
X579220D02*
X595340D01*
X596410D02*
X616440D01*
X690700D02*
X706520D01*
X814120D02*
X834710D01*
X924320D02*
X944870D01*
X995530D02*
X1011650D01*
X1107010D02*
X1122830D01*
X1172340D02*
X1188450D01*
X1374060D02*
X1390660D01*
X1757620D02*
X1774820D01*
X122740Y4800000D02*
X144490D01*
X228180D02*
X235240D01*
X276440D02*
X292550D01*
X421900D02*
X438010D01*
X516990D02*
X535640D01*
X579220D02*
X614550D01*
X690700D02*
X706520D01*
X815880D02*
X837320D01*
X921730D02*
X943130D01*
X995530D02*
X1011650D01*
X1107010D02*
X1122830D01*
X1172340D02*
X1188450D01*
X1374780D02*
X1391860D01*
X1679850D02*
X1684600D01*
X1756460D02*
X1774130D01*
X124750Y4802380D02*
X147640D01*
X225230D02*
X237590D01*
X276440D02*
X292550D01*
X421900D02*
X438010D01*
X514810D02*
X534380D01*
X579220D02*
X612660D01*
X690700D02*
X706520D01*
X817900D02*
X840460D01*
X918720D02*
X941120D01*
X995530D02*
X1011650D01*
X1107010D02*
X1122830D01*
X1172340D02*
X1188450D01*
X1375690D02*
X1393420D01*
X1677110D02*
X1687140D01*
X1754940D02*
X1773330D01*
X126960Y4804760D02*
X151190D01*
X222000D02*
X239930D01*
X276440D02*
X292550D01*
X421900D02*
X438010D01*
X512050D02*
X532810D01*
X579220D02*
X610770D01*
X690700D02*
X706520D01*
X820130D02*
X843930D01*
X915230D02*
X938910D01*
X995530D02*
X1011650D01*
X1107010D02*
X1122830D01*
X1172340D02*
X1188450D01*
X1376840D02*
X1395510D01*
X1467300D02*
X1471420D01*
X1674360D02*
X1690150D01*
X1753000D02*
X1772420D01*
X129350Y4807140D02*
X155380D01*
X217920D02*
X241770D01*
X276440D02*
X292550D01*
X421900D02*
X438010D01*
X508370D02*
X531060D01*
X579220D02*
X608880D01*
X690700D02*
X706520D01*
X822520D02*
X847970D01*
X911110D02*
X936520D01*
X995530D02*
X1011650D01*
X1107010D02*
X1122830D01*
X1172340D02*
X1188450D01*
X1378180D02*
X1398230D01*
X1462880D02*
X1472430D01*
X1671620D02*
X1693830D01*
X1750550D02*
X1771210D01*
X131940Y4809520D02*
X160340D01*
X212960D02*
X239530D01*
X276440D02*
X292550D01*
X421900D02*
X438010D01*
X503550D02*
X529030D01*
X579220D02*
X606980D01*
X690700D02*
X706520D01*
X825110D02*
X853100D01*
X906080D02*
X933930D01*
X995530D02*
X1011650D01*
X1107010D02*
X1122830D01*
X1172340D02*
X1188450D01*
X1379740D02*
X1401710D01*
X1457590D02*
X1473450D01*
X1673350D02*
X1698420D01*
X1746960D02*
X1769820D01*
X134740Y4811900D02*
X167230D01*
X206550D02*
X236850D01*
X276440D02*
X292550D01*
X421900D02*
X438010D01*
X496070D02*
X526600D01*
X579220D02*
X605090D01*
X690700D02*
X706520D01*
X827930D02*
X859730D01*
X899550D02*
X931130D01*
X995530D02*
X1011650D01*
X1107010D02*
X1122830D01*
X1172340D02*
X1188450D01*
X1381580D02*
X1406720D01*
X1450970D02*
X1474460D01*
X1675830D02*
X1704550D01*
X1741860D02*
X1768160D01*
X137860Y4814280D02*
X179210D01*
X194130D02*
X234040D01*
X276440D02*
X380880D01*
X421900D02*
X523930D01*
X579220D02*
X603200D01*
X690700D02*
X706520D01*
X831100D02*
X872040D01*
X887240D02*
X928010D01*
X995530D02*
X1011650D01*
X1107010D02*
X1122830D01*
X1172340D02*
X1188450D01*
X1383790D02*
X1415790D01*
X1440670D02*
X1475470D01*
X1678500D02*
X1716080D01*
X1731370D02*
X1766130D01*
X141520Y4816660D02*
X230620D01*
X276440D02*
X380880D01*
X421900D02*
X520930D01*
X579220D02*
X601310D01*
X690700D02*
X706520D01*
X834820D02*
X924350D01*
X995530D02*
X1011650D01*
X1107010D02*
X1122830D01*
X1172340D02*
X1188450D01*
X1386310D02*
X1474260D01*
X1681700D02*
X1763730D01*
X145500Y4819040D02*
X226730D01*
X276440D02*
X380880D01*
X421900D02*
X517010D01*
X579220D02*
X599420D01*
X690700D02*
X706520D01*
X838950D02*
X920390D01*
X995530D02*
X1011650D01*
X1107010D02*
X1122830D01*
X1172340D02*
X1188450D01*
X1389650D02*
X1470430D01*
X1685480D02*
X1760800D01*
X150260Y4821420D02*
X222260D01*
X276440D02*
X380880D01*
X421900D02*
X512210D01*
X579220D02*
X597530D01*
X690700D02*
X706520D01*
X843770D02*
X915850D01*
X995530D02*
X1011650D01*
X1107010D02*
X1122830D01*
X1172340D02*
X1188450D01*
X1393580D02*
X1465560D01*
X1689760D02*
X1757230D01*
X155910Y4823800D02*
X216670D01*
X276440D02*
X380880D01*
X421900D02*
X506310D01*
X579220D02*
X595630D01*
X690700D02*
X706520D01*
X849490D02*
X909990D01*
X995530D02*
X1011650D01*
X1107010D02*
X1122830D01*
X1172340D02*
X1188450D01*
X1398430D02*
X1459390D01*
X1695100D02*
X1752700D01*
X163580Y4826180D02*
X209250D01*
X276440D02*
X380880D01*
X421900D02*
X496440D01*
X579220D02*
X593740D01*
X690700D02*
X706520D01*
X856980D02*
X902450D01*
X995530D02*
X1011650D01*
X1107010D02*
X1122830D01*
X1172340D02*
X1188450D01*
X1405300D02*
X1451470D01*
X1702370D02*
X1746630D01*
X177220Y4828560D02*
X196000D01*
X870430D02*
X888800D01*
X1418550D02*
X1437840D01*
X1715520D02*
X1734500D01*
X231180Y4903750D02*
Y4875480D01*
X113260*
Y5027680*
X228390*
Y4999410*
X148270*
Y4966450*
X219020*
Y4939050*
X148270*
Y4903750*
X231180*
X374730Y4992520D02*
Y4875480D01*
X342510*
Y4889400*
X338990Y4885730*
X335180Y4882660*
X330930Y4880020*
X326390Y4877820*
X321700Y4876070*
X316720Y4874750*
X311600Y4874020*
X306180Y4873720*
X300610Y4874020*
X295190Y4874600*
X290210Y4875630*
X285520Y4877090*
X281130Y4878850*
X277030Y4881190*
X273220Y4883830*
X269700Y4887050*
X266480Y4890570*
X263700Y4894380*
X261350Y4898770*
X259450Y4903460*
X257980Y4908590*
X256960Y4914150*
X256370Y4920010*
X256080Y4926310*
Y4992520*
X290060*
Y4931440*
X290210Y4927920*
X290500Y4924700*
X290940Y4921770*
X291530Y4918990*
X292410Y4916500*
X293430Y4914150*
X294610Y4912100*
X296070Y4910200*
X297530Y4908440*
X299290Y4907120*
X301340Y4905800*
X303390Y4904920*
X305740Y4904040*
X308230Y4903610*
X310870Y4903170*
X313790*
X316720*
X319650Y4903610*
X322290Y4904190*
X324780Y4905070*
X327120Y4906240*
X329320Y4907560*
X331520Y4909170*
X333420Y4911080*
X335030Y4913130*
X336650Y4915470*
X337820Y4918110*
X338990Y4920890*
X339720Y4923970*
X340310Y4927340*
X340600Y4930850*
X340750Y4934660*
Y4992520*
X374730*
X438600Y4976990D02*
X441970Y4981100D01*
X445780Y4984460*
X450170Y4987390*
X455010Y4989880*
X460430Y4991790*
X466140Y4993110*
X472290Y4993990*
X478880Y4994280*
Y4962930*
X476250Y4963080*
X474200Y4963220*
X472440Y4963370*
X471270*
X467750Y4963220*
X464380Y4962780*
X461160Y4962200*
X458230Y4961320*
X455450Y4960150*
X452950Y4958830*
X450610Y4957070*
X448410Y4955170*
X446510Y4952970*
X444750Y4950630*
X443430Y4947990*
X442260Y4945060*
X441380Y4941840*
X440650Y4938320*
X440210Y4934660*
Y4930700*
Y4875480*
X406230*
Y4992520*
X438600*
Y4976990*
X555640Y4873720D02*
X551100Y4873870D01*
X546700Y4874160*
X542310Y4874750*
X538060Y4875630*
X533960Y4876800*
X530010Y4878120*
X526200Y4879580*
X522530Y4881490*
X518870Y4883540*
X515500Y4885730*
X512430Y4888080*
X509350Y4890710*
X506570Y4893500*
X504080Y4896430*
X501730Y4899500*
X499540Y4902870*
X497630Y4906390*
X495870Y4909900*
X494560Y4913710*
X493380Y4917520*
X492360Y4921480*
X491770Y4925580*
X491330Y4929680*
Y4933930*
Y4938320*
X491770Y4942420*
X492360Y4946530*
X493380Y4950480*
X494560Y4954290*
X495870Y4957950*
X497630Y4961610*
X499540Y4965130*
X501730Y4968350*
X504080Y4971570*
X506570Y4974500*
X509350Y4977290*
X512430Y4979920*
X515500Y4982270*
X518870Y4984460*
X522530Y4986520*
X526200Y4988270*
X530010Y4989880*
X533960Y4991200*
X538060Y4992370*
X542310Y4993110*
X546700Y4993690*
X551100Y4994130*
X555640Y4994280*
X560180Y4994130*
X564720Y4993690*
X568970Y4993110*
X573220Y4992370*
X577170Y4991200*
X581130Y4989880*
X585080Y4988270*
X588750Y4986520*
X592260Y4984460*
X595630Y4982270*
X598710Y4979920*
X601780Y4977290*
X604420Y4974500*
X607060Y4971570*
X609400Y4968350*
X611600Y4965130*
X613500Y4961610*
X615110Y4957950*
X616580Y4954290*
X617750Y4950480*
X618630Y4946530*
X619360Y4942420*
X619650Y4938320*
X619800Y4933930*
X619650Y4929680*
X619360Y4925580*
X618630Y4921480*
X617750Y4917520*
X616580Y4913710*
X615110Y4909900*
X613500Y4906390*
X611600Y4902870*
X609400Y4899500*
X607060Y4896430*
X604420Y4893500*
X601780Y4890710*
X598710Y4888080*
X595630Y4885730*
X592260Y4883540*
X588750Y4881490*
X585080Y4879580*
X581130Y4878120*
X577170Y4876800*
X573220Y4875630*
X568970Y4874750*
X564720Y4874160*
X560180Y4873870*
X555640Y4873720*
Y4901550D02*
X558860Y4901700D01*
X561940Y4902140*
X564720Y4902870*
X567510Y4903750*
X570140Y4905070*
X572630Y4906530*
X574980Y4908290*
X577030Y4910340*
X579080Y4912690*
X580690Y4915180*
X582150Y4917810*
X583330Y4920740*
X584350Y4923670*
X584940Y4926900*
X585380Y4930410*
X585520Y4933930*
X585380Y4937590*
X584940Y4940960*
X584350Y4944180*
X583330Y4947260*
X582150Y4950190*
X580690Y4952820*
X579080Y4955310*
X577030Y4957510*
X574980Y4959710*
X572630Y4961470*
X570140Y4962930*
X567510Y4964250*
X564720Y4965130*
X561940Y4965860*
X558860Y4966300*
X555640Y4966450*
X552420Y4966300*
X549490Y4965860*
X546560Y4965130*
X543780Y4964250*
X541140Y4962930*
X538650Y4961470*
X536300Y4959710*
X534110Y4957510*
X532200Y4955310*
X530450Y4952820*
X528980Y4950190*
X527810Y4947260*
X526780Y4944180*
X526200Y4940960*
X525760Y4937590*
X525610Y4933930*
X525760Y4930410*
X526200Y4926900*
X526780Y4923670*
X527810Y4920740*
X528980Y4917810*
X530450Y4915180*
X532200Y4912690*
X534110Y4910340*
X536300Y4908290*
X538650Y4906530*
X541140Y4905070*
X543780Y4903750*
X546560Y4902870*
X549490Y4902140*
X552420Y4901700*
X555640Y4901550*
X710770Y5027680D02*
X715750D01*
X720580Y5027380*
X725270Y5026800*
X729660Y5026070*
X734060Y5025040*
X738160Y5024020*
X742120Y5022550*
X745920Y5020940*
X749590Y5019180*
X752950Y5017280*
X756180Y5015080*
X759110Y5012880*
X761890Y5010390*
X764380Y5007760*
X766720Y5004830*
X768920Y5001900*
X770830Y4998670*
X772440Y4995300*
X773760Y4991940*
X774930Y4988270*
X775810Y4984610*
X776390Y4980660*
X776830Y4976700*
X776980Y4972450*
X776830Y4968350*
X776390Y4964400*
X775810Y4960590*
X774930Y4956780*
X773760Y4953260*
X772440Y4949750*
X770830Y4946380*
X768920Y4943160*
X766720Y4940230*
X764380Y4937300*
X761890Y4934660*
X759110Y4932170*
X756180Y4929830*
X752950Y4927780*
X749590Y4925870*
X745920Y4924110*
X742120Y4922500*
X738160Y4921180*
X734060Y4920010*
X729660Y4919130*
X725270Y4918400*
X720580Y4917810*
X715750Y4917520*
X710770*
X680150*
Y4875480*
X644850*
Y5027680*
X710770*
X708860Y4946230D02*
X712670D01*
X716330Y4946530*
X719700Y4947110*
X722780Y4947840*
X725710Y4948870*
X728350Y4950040*
X730840Y4951360*
X733030Y4952970*
X734940Y4954870*
X736550Y4956780*
X738010Y4958980*
X739190Y4961320*
X740060Y4963810*
X740800Y4966590*
X741090Y4969380*
X741240Y4972450*
X741090Y4975680*
X740800Y4978460*
X740060Y4981240*
X739190Y4983880*
X738010Y4986220*
X736550Y4988420*
X734940Y4990320*
X733030Y4992230*
X730840Y4993840*
X728350Y4995160*
X725710Y4996330*
X722780Y4997360*
X719700Y4998090*
X716330Y4998530*
X712670Y4998970*
X708860*
X680150*
Y4946230*
X708860*
X801730Y4992520D02*
X835720D01*
Y4875480*
X801730*
Y4992520*
X818730Y5008780D02*
X816380Y5008930D01*
X814190Y5009220*
X812130Y5009510*
X810230Y5010250*
X808330Y5010980*
X806570Y5011860*
X804960Y5013030*
X803490Y5014200*
X802030Y5015670*
X800860Y5017130*
X799830Y5018740*
X799100Y5020350*
X798370Y5022110*
X797930Y5023870*
X797630Y5025770*
Y5027680*
Y5029730*
X797930Y5031630*
X798370Y5033390*
X799100Y5035150*
X799830Y5036760*
X800860Y5038370*
X802030Y5039840*
X803490Y5041150*
X804960Y5042470*
X806570Y5043640*
X808330Y5044520*
X810230Y5045260*
X812130Y5045840*
X814190Y5046280*
X816380Y5046570*
X818730Y5046720*
X820920Y5046570*
X823120Y5046280*
X825170Y5045990*
X827220Y5045400*
X828980Y5044670*
X830740Y5043790*
X832350Y5042620*
X833960Y5041450*
X835280Y5040130*
X836450Y5038660*
X837480Y5037200*
X838360Y5035590*
X838940Y5033830*
X839380Y5032070*
X839670Y5030310*
X839820Y5028410*
X839670Y5026360*
X839380Y5024310*
X838940Y5022400*
X838360Y5020650*
X837480Y5018890*
X836450Y5017280*
X835280Y5015810*
X833960Y5014350*
X832350Y5013030*
X830740Y5012000*
X828980Y5010980*
X827220Y5010250*
X825170Y5009660*
X823120Y5009220*
X820920Y5008930*
X818730Y5008780*
X303580Y4873860D02*
X308710D01*
X551250D02*
X560180D01*
X113260Y4876240D02*
X231180D01*
X288250D02*
X322160D01*
X342510D02*
X374730D01*
X406230D02*
X440210D01*
X535920D02*
X575280D01*
X644850D02*
X680150D01*
X801730D02*
X835720D01*
X113260Y4878620D02*
X231180D01*
X281700D02*
X328040D01*
X342510D02*
X374730D01*
X406230D02*
X440210D01*
X528710D02*
X582480D01*
X644850D02*
X680150D01*
X801730D02*
X835720D01*
X113260Y4881000D02*
X231180D01*
X277360D02*
X332510D01*
X342510D02*
X374730D01*
X406230D02*
X440210D01*
X523470D02*
X587810D01*
X644850D02*
X680150D01*
X801730D02*
X835720D01*
X113260Y4883380D02*
X231180D01*
X273870D02*
X336070D01*
X342510D02*
X374730D01*
X406230D02*
X440210D01*
X519160D02*
X591990D01*
X644850D02*
X680150D01*
X801730D02*
X835720D01*
X113260Y4885760D02*
X231180D01*
X271110D02*
X338990D01*
X342510D02*
X374730D01*
X406230D02*
X440210D01*
X515460D02*
X595630D01*
X644850D02*
X680150D01*
X801730D02*
X835720D01*
X113260Y4888140D02*
X231180D01*
X268700D02*
X341300D01*
X342510D02*
X374730D01*
X406230D02*
X440210D01*
X512360D02*
X598780D01*
X644850D02*
X680150D01*
X801730D02*
X835720D01*
X113260Y4890520D02*
X231180D01*
X266530D02*
X374730D01*
X406230D02*
X440210D01*
X509570D02*
X601560D01*
X644850D02*
X680150D01*
X801730D02*
X835720D01*
X113260Y4892900D02*
X231180D01*
X264780D02*
X374730D01*
X406230D02*
X440210D01*
X507170D02*
X603850D01*
X644850D02*
X680150D01*
X801730D02*
X835720D01*
X113260Y4895280D02*
X231180D01*
X263220D02*
X374730D01*
X406230D02*
X440210D01*
X505060D02*
X606020D01*
X644850D02*
X680150D01*
X801730D02*
X835720D01*
X113260Y4897660D02*
X231180D01*
X261940D02*
X374730D01*
X406230D02*
X440210D01*
X503140D02*
X608000D01*
X644850D02*
X680150D01*
X801730D02*
X835720D01*
X113260Y4900040D02*
X231180D01*
X260840D02*
X374730D01*
X406230D02*
X440210D01*
X501380D02*
X609750D01*
X644850D02*
X680150D01*
X801730D02*
X835720D01*
X113260Y4902420D02*
X231180D01*
X259870D02*
X374730D01*
X406230D02*
X440210D01*
X499830D02*
X548370D01*
X563010D02*
X611310D01*
X644850D02*
X680150D01*
X801730D02*
X835720D01*
X113260Y4904800D02*
X148270D01*
X259070D02*
X303710D01*
X324020D02*
X374730D01*
X406230D02*
X440210D01*
X498490D02*
X541680D01*
X569600D02*
X612640D01*
X644850D02*
X680150D01*
X801730D02*
X835720D01*
X113260Y4907180D02*
X148270D01*
X258380D02*
X299210D01*
X328690D02*
X374730D01*
X406230D02*
X440210D01*
X497230D02*
X537780D01*
X573500D02*
X613860D01*
X644850D02*
X680150D01*
X801730D02*
X835720D01*
X113260Y4909560D02*
X148270D01*
X257800D02*
X296600D01*
X331910D02*
X374730D01*
X406230D02*
X440210D01*
X496040D02*
X534940D01*
X576250D02*
X614950D01*
X644850D02*
X680150D01*
X801730D02*
X835720D01*
X113260Y4911940D02*
X148270D01*
X257370D02*
X294730D01*
X334100D02*
X374730D01*
X406230D02*
X440210D01*
X495170D02*
X532810D01*
X578430D02*
X615900D01*
X644850D02*
X680150D01*
X801730D02*
X835720D01*
X113260Y4914320D02*
X148270D01*
X256940D02*
X293360D01*
X335850D02*
X374730D01*
X406230D02*
X440210D01*
X494370D02*
X531050D01*
X580130D02*
X616770D01*
X644850D02*
X680150D01*
X801730D02*
X835720D01*
X113260Y4916700D02*
X148270D01*
X256700D02*
X292340D01*
X337200D02*
X374730D01*
X406230D02*
X440210D01*
X493630D02*
X529600D01*
X581530D02*
X617500D01*
X644850D02*
X680150D01*
X801730D02*
X835720D01*
X113260Y4919080D02*
X148270D01*
X256460D02*
X291510D01*
X338230D02*
X374730D01*
X406230D02*
X440210D01*
X492980D02*
X528470D01*
X582660D02*
X618100D01*
X644850D02*
X729360D01*
X801730D02*
X835720D01*
X113260Y4921460D02*
X148270D01*
X256300D02*
X291010D01*
X339130D02*
X374730D01*
X406230D02*
X440210D01*
X492360D02*
X527560D01*
X583580D02*
X618630D01*
X644850D02*
X739000D01*
X801730D02*
X835720D01*
X113260Y4923840D02*
X148270D01*
X256190D02*
X290630D01*
X339690D02*
X374730D01*
X406230D02*
X440210D01*
X492020D02*
X526750D01*
X584380D02*
X619050D01*
X644850D02*
X745280D01*
X801730D02*
X835720D01*
X113260Y4926220D02*
X148270D01*
X256080D02*
X290360D01*
X340110D02*
X374730D01*
X406230D02*
X440210D01*
X491700D02*
X526320D01*
X584820D02*
X619410D01*
X644850D02*
X750210D01*
X801730D02*
X835720D01*
X113260Y4928600D02*
X148270D01*
X256080D02*
X290180D01*
X340410D02*
X374730D01*
X406230D02*
X440210D01*
X491450D02*
X525990D01*
X585150D02*
X619570D01*
X644850D02*
X754240D01*
X801730D02*
X835720D01*
X113260Y4930980D02*
X148270D01*
X256080D02*
X290080D01*
X340610D02*
X374730D01*
X406230D02*
X440210D01*
X491330D02*
X525740D01*
X585400D02*
X619700D01*
X644850D02*
X757620D01*
X801730D02*
X835720D01*
X113260Y4933360D02*
X148270D01*
X256080D02*
X290060D01*
X340700D02*
X374730D01*
X406230D02*
X440210D01*
X491330D02*
X525630D01*
X585500D02*
X619780D01*
X644850D02*
X760440D01*
X801730D02*
X835720D01*
X113260Y4935740D02*
X148270D01*
X256080D02*
X290060D01*
X340750D02*
X374730D01*
X406230D02*
X440340D01*
X491330D02*
X525680D01*
X585450D02*
X619740D01*
X644850D02*
X762910D01*
X801730D02*
X835720D01*
X113260Y4938120D02*
X148270D01*
X256080D02*
X290060D01*
X340750D02*
X374730D01*
X406230D02*
X440630D01*
X491330D02*
X525830D01*
X585310D02*
X619660D01*
X644850D02*
X765030D01*
X801730D02*
X835720D01*
X113260Y4940500D02*
X219020D01*
X256080D02*
X290060D01*
X340750D02*
X374730D01*
X406230D02*
X441100D01*
X491560D02*
X526140D01*
X585000D02*
X619500D01*
X644850D02*
X766920D01*
X801730D02*
X835720D01*
X113260Y4942880D02*
X219020D01*
X256080D02*
X290060D01*
X340750D02*
X374730D01*
X406230D02*
X441660D01*
X491840D02*
X526550D01*
X584590D02*
X619280D01*
X644850D02*
X768710D01*
X801730D02*
X835720D01*
X113260Y4945260D02*
X219020D01*
X256080D02*
X290060D01*
X340750D02*
X374730D01*
X406230D02*
X442340D01*
X492180D02*
X527140D01*
X583990D02*
X618860D01*
X644850D02*
X770170D01*
X801730D02*
X835720D01*
X113260Y4947640D02*
X219020D01*
X256080D02*
X290060D01*
X340750D02*
X374730D01*
X406230D02*
X443290D01*
X492650D02*
X527960D01*
X583180D02*
X618380D01*
X644850D02*
X680150D01*
X721940D02*
X771430D01*
X801730D02*
X835720D01*
X113260Y4950020D02*
X219020D01*
X256080D02*
X290060D01*
X340750D02*
X374730D01*
X406230D02*
X444440D01*
X493260D02*
X528910D01*
X582220D02*
X617850D01*
X644850D02*
X680150D01*
X728310D02*
X772540D01*
X801730D02*
X835720D01*
X113260Y4952400D02*
X219020D01*
X256080D02*
X290060D01*
X340750D02*
X374730D01*
X406230D02*
X446080D01*
X493970D02*
X530220D01*
X580920D02*
X617160D01*
X644850D02*
X680150D01*
X732250D02*
X773440D01*
X801730D02*
X835720D01*
X113260Y4954780D02*
X219020D01*
X256080D02*
X290060D01*
X340750D02*
X374730D01*
X406230D02*
X448070D01*
X494740D02*
X531830D01*
X579420D02*
X616380D01*
X644850D02*
X680150D01*
X734850D02*
X774270D01*
X801730D02*
X835720D01*
X113260Y4957160D02*
X219020D01*
X256080D02*
X290060D01*
X340750D02*
X374730D01*
X406230D02*
X450730D01*
X495590D02*
X533810D01*
X577360D02*
X615430D01*
X644850D02*
X680150D01*
X736800D02*
X775020D01*
X801730D02*
X835720D01*
X113260Y4959540D02*
X219020D01*
X256080D02*
X290060D01*
X340750D02*
X374730D01*
X406230D02*
X454290D01*
X496630D02*
X536130D01*
X575140D02*
X614410D01*
X644850D02*
X680150D01*
X738290D02*
X775570D01*
X801730D02*
X835720D01*
X113260Y4961920D02*
X219020D01*
X256080D02*
X290060D01*
X340750D02*
X374730D01*
X406230D02*
X460230D01*
X497800D02*
X539420D01*
X571860D02*
X613330D01*
X644850D02*
X680150D01*
X739400D02*
X776010D01*
X801730D02*
X835720D01*
X113260Y4964300D02*
X219020D01*
X256080D02*
X290060D01*
X340750D02*
X374730D01*
X406230D02*
X478880D01*
X499090D02*
X543940D01*
X567350D02*
X612050D01*
X644850D02*
X680150D01*
X740190D02*
X776370D01*
X801730D02*
X835720D01*
X113260Y4966680D02*
X148270D01*
X256080D02*
X290060D01*
X340750D02*
X374730D01*
X406230D02*
X478880D01*
X500590D02*
X610540D01*
X644850D02*
X680150D01*
X740810D02*
X776640D01*
X801730D02*
X835720D01*
X113260Y4969060D02*
X148270D01*
X256080D02*
X290060D01*
X340750D02*
X374730D01*
X406230D02*
X478880D01*
X502250D02*
X608880D01*
X644850D02*
X680150D01*
X741060D02*
X776860D01*
X801730D02*
X835720D01*
X113260Y4971440D02*
X148270D01*
X256080D02*
X290060D01*
X340750D02*
X374730D01*
X406230D02*
X478880D01*
X503990D02*
X607150D01*
X644850D02*
X680150D01*
X741190D02*
X776940D01*
X801730D02*
X835720D01*
X113260Y4973820D02*
X148270D01*
X256080D02*
X290060D01*
X340750D02*
X374730D01*
X406230D02*
X478880D01*
X505990D02*
X605030D01*
X644850D02*
X680150D01*
X741180D02*
X776930D01*
X801730D02*
X835720D01*
X113260Y4976200D02*
X148270D01*
X256080D02*
X290060D01*
X340750D02*
X374730D01*
X406230D02*
X478880D01*
X508260D02*
X602810D01*
X644850D02*
X680150D01*
X741040D02*
X776850D01*
X801730D02*
X835720D01*
X113260Y4978580D02*
X148270D01*
X256080D02*
X290060D01*
X340750D02*
X374730D01*
X406230D02*
X438600D01*
X439900D02*
X478880D01*
X510860D02*
X600270D01*
X644850D02*
X680150D01*
X740770D02*
X776620D01*
X801730D02*
X835720D01*
X113260Y4980960D02*
X148270D01*
X256080D02*
X290060D01*
X340750D02*
X374730D01*
X406230D02*
X438600D01*
X441860D02*
X478880D01*
X513790D02*
X597350D01*
X644850D02*
X680150D01*
X740130D02*
X776350D01*
X801730D02*
X835720D01*
X113260Y4983340D02*
X148270D01*
X256080D02*
X290060D01*
X340750D02*
X374730D01*
X406230D02*
X438600D01*
X444510D02*
X478880D01*
X517150D02*
X593980D01*
X644850D02*
X680150D01*
X739370D02*
X776000D01*
X801730D02*
X835720D01*
X113260Y4985720D02*
X148270D01*
X256080D02*
X290060D01*
X340750D02*
X374730D01*
X406230D02*
X438600D01*
X447670D02*
X478880D01*
X521110D02*
X590110D01*
X644850D02*
X680150D01*
X738260D02*
X775540D01*
X801730D02*
X835720D01*
X113260Y4988100D02*
X148270D01*
X256080D02*
X290060D01*
X340750D02*
X374730D01*
X406230D02*
X438600D01*
X451550D02*
X478880D01*
X525840D02*
X585440D01*
X644850D02*
X680150D01*
X736760D02*
X774970D01*
X801730D02*
X835720D01*
X113260Y4990480D02*
X148270D01*
X256080D02*
X290060D01*
X340750D02*
X374730D01*
X406230D02*
X438600D01*
X456710D02*
X478880D01*
X531810D02*
X579330D01*
X644850D02*
X680150D01*
X734780D02*
X774230D01*
X801730D02*
X835720D01*
X113260Y4992860D02*
X148270D01*
X465060D02*
X478880D01*
X540870D02*
X570410D01*
X644850D02*
X680150D01*
X732170D02*
X773400D01*
X113260Y4995240D02*
X148270D01*
X644850D02*
X680150D01*
X728170D02*
X772460D01*
X113260Y4997620D02*
X148270D01*
X644850D02*
X680150D01*
X721680D02*
X771330D01*
X113260Y5000000D02*
X228390D01*
X644850D02*
X770040D01*
X113260Y5002380D02*
X228390D01*
X644850D02*
X768560D01*
X113260Y5004760D02*
X228390D01*
X644850D02*
X766770D01*
X113260Y5007140D02*
X228390D01*
X644850D02*
X764880D01*
X113260Y5009520D02*
X228390D01*
X644850D02*
X762710D01*
X812100D02*
X824520D01*
X113260Y5011900D02*
X228390D01*
X644850D02*
X760200D01*
X806510D02*
X830570D01*
X113260Y5014280D02*
X228390D01*
X644850D02*
X757250D01*
X803410D02*
X833870D01*
X113260Y5016660D02*
X228390D01*
X644850D02*
X753860D01*
X801240D02*
X835960D01*
X113260Y5019040D02*
X228390D01*
X644850D02*
X749840D01*
X799690D02*
X837550D01*
X113260Y5021420D02*
X228390D01*
X644850D02*
X744790D01*
X798660D02*
X838620D01*
X113260Y5023800D02*
X228390D01*
X644850D02*
X738750D01*
X797950D02*
X839260D01*
X113260Y5026180D02*
X228390D01*
X644850D02*
X729000D01*
X797630D02*
X839640D01*
X797630Y5028560D02*
X839810D01*
X797820Y5030940D02*
X839570D01*
X798350Y5033320D02*
X839070D01*
X799350Y5035700D02*
X838300D01*
X800670Y5038080D02*
X836860D01*
X802720Y5040460D02*
X834950D01*
X805470Y5042840D02*
X832050D01*
X810100Y5045220D02*
X827650D01*
X250980Y4628930D02*
X222660Y4550900D01*
X200980*
X183400Y4599340*
X165240Y4550900*
X143560*
X115340Y4628930*
X136720*
X155080Y4576100*
X174220Y4628930*
X193370*
X212020Y4576100*
X230960Y4628930*
X250980*
X386820D02*
X358500Y4550900D01*
X336820*
X319240Y4599340*
X301080Y4550900*
X279400*
X251180Y4628930*
X272560*
X290920Y4576100*
X310060Y4628930*
X329200*
X347860Y4576100*
X366800Y4628930*
X386820*
X522660D02*
X494340Y4550900D01*
X472660*
X455080Y4599340*
X436920Y4550900*
X415240*
X387020Y4628930*
X408400*
X426760Y4576100*
X445900Y4628930*
X465040*
X483700Y4576100*
X502640Y4628930*
X522660*
X541800Y4549730D02*
X540340Y4549830D01*
X538870Y4550020*
X537600Y4550310*
X536330Y4550700*
X535060Y4551290*
X533890Y4551970*
X532820Y4552850*
X531740Y4553830*
X530770Y4554810*
X529990Y4555980*
X529300Y4557150*
X528720Y4558320*
X528230Y4559690*
X527940Y4561060*
X527740Y4562420*
X527640Y4563990*
X527740Y4565450*
X527940Y4566920*
X528230Y4568280*
X528720Y4569550*
X529300Y4570820*
X529990Y4571990*
X530770Y4573070*
X531740Y4574040*
X532820Y4574920*
X533890Y4575700*
X535060Y4576390*
X536330Y4576880*
X537600Y4577360*
X538870Y4577660*
X540340Y4577850*
X541800*
X543170*
X544630Y4577660*
X545900Y4577360*
X547270Y4576880*
X548440Y4576390*
X549620Y4575700*
X550690Y4574920*
X551760Y4574040*
X552740Y4573070*
X553520Y4571990*
X554200Y4570820*
X554790Y4569550*
X555280Y4568280*
X555570Y4566920*
X555770Y4565450*
X555870Y4563990*
X555770Y4562420*
X555570Y4561060*
X555280Y4559690*
X554790Y4558320*
X554200Y4557150*
X553520Y4555980*
X552740Y4554810*
X551760Y4553830*
X550690Y4552850*
X549620Y4551970*
X548440Y4551290*
X547270Y4550700*
X545900Y4550310*
X544630Y4550020*
X543170Y4549830*
X541800Y4549730*
X602640Y4630100D02*
X607040Y4629900D01*
X611240Y4629510*
X615040Y4628830*
X618660Y4627950*
X622080Y4626680*
X625100Y4625220*
X627940Y4623460*
X630470Y4621410*
X632820Y4619160*
X634770Y4616620*
X636430Y4613690*
X637800Y4610670*
X638870Y4607250*
X639650Y4603540*
X640040Y4599630*
X640240Y4595430*
Y4550900*
X619050*
Y4560570*
X617290Y4558030*
X615140Y4555880*
X612700Y4554030*
X609870Y4552460*
X606740Y4551290*
X603330Y4550410*
X599420Y4549920*
X595220Y4549730*
X590920Y4549920*
X586920Y4550510*
X583110Y4551490*
X579690Y4552760*
X576570Y4554420*
X573830Y4556370*
X571490Y4558610*
X570510Y4559880*
X569630Y4561150*
X568760Y4562520*
X568070Y4563990*
X567490Y4565450*
X567000Y4566920*
X566610Y4568480*
X566310Y4570040*
X566220Y4571700*
X566120Y4573360*
X566220Y4576000*
X566610Y4578540*
X567290Y4580880*
X568170Y4583130*
X569340Y4585180*
X570710Y4587030*
X572370Y4588890*
X574320Y4590450*
X576470Y4591920*
X579010Y4593190*
X581740Y4594260*
X584770Y4595140*
X587990Y4595820*
X591610Y4596310*
X595510Y4596600*
X599620Y4596700*
X617580*
X617490Y4598560*
X617290Y4600220*
X617000Y4601780*
X616510Y4603240*
X615830Y4604610*
X615040Y4605880*
X614170Y4607050*
X613090Y4608130*
X611920Y4609010*
X610550Y4609880*
X609090Y4610570*
X607530Y4611060*
X605770Y4611540*
X603810Y4611840*
X601760Y4612030*
X599620Y4612130*
X596490Y4611940*
X593460Y4611640*
X590440Y4610960*
X587410Y4610180*
X584480Y4609100*
X581840Y4607830*
X579400Y4606470*
X577150Y4604810*
X569050Y4620630*
X572370Y4622780*
X576080Y4624630*
X579990Y4626290*
X584280Y4627560*
X588780Y4628730*
X593370Y4629420*
X597950Y4629900*
X602640Y4630100*
X600880Y4564960D02*
X603720Y4565160D01*
X606350Y4565650*
X608890Y4566430*
X611240Y4567600*
X613290Y4569160*
X615040Y4570920*
X616510Y4573070*
X617580Y4575510*
Y4583520*
X602060*
X600400*
X598830Y4583420*
X597370Y4583220*
X596000Y4582930*
X594730Y4582640*
X593560Y4582250*
X592580Y4581760*
X591610Y4581270*
X590830Y4580590*
X590140Y4580000*
X589560Y4579220*
X589070Y4578340*
X588680Y4577460*
X588380Y4576490*
X588190Y4575510*
Y4574440*
Y4573360*
X588380Y4572290*
X588680Y4571410*
X588970Y4570530*
X589460Y4569650*
X590040Y4568870*
X590730Y4568190*
X591610Y4567500*
X593460Y4566430*
X595610Y4565550*
X598150Y4565160*
X600880Y4564960*
X660650Y4658520D02*
X683310D01*
Y4550900*
X660650*
Y4658520*
X704300D02*
X726960D01*
Y4550900*
X704300*
Y4658520*
X824420Y4589570D02*
X824320Y4589380D01*
Y4589080*
Y4588600*
X824220Y4587910*
Y4587030*
X824130Y4586060*
X824030Y4584880*
X823930Y4583520*
X764950*
X765340Y4581760*
X766020Y4580100*
X766700Y4578540*
X767580Y4577070*
X768660Y4575610*
X769730Y4574340*
X771000Y4573170*
X772470Y4572090*
X774030Y4571110*
X775590Y4570240*
X777350Y4569450*
X779110Y4568870*
X781060Y4568480*
X783010Y4568090*
X785060Y4567890*
X787210*
X790240Y4567990*
X792970Y4568280*
X795610Y4568870*
X798050Y4569650*
X800400Y4570720*
X802640Y4571990*
X804790Y4573560*
X806840Y4575410*
X818850Y4562330*
X817490Y4560860*
X815920Y4559400*
X814360Y4558030*
X812700Y4556860*
X810940Y4555690*
X809190Y4554710*
X807230Y4553730*
X805280Y4552850*
X803230Y4552170*
X801080Y4551490*
X798930Y4551000*
X796590Y4550510*
X794240Y4550220*
X791800Y4549920*
X789260Y4549830*
X786630Y4549730*
X783400Y4549830*
X780280Y4550020*
X777150Y4550410*
X774220Y4551000*
X771390Y4551780*
X768560Y4552660*
X765920Y4553630*
X763290Y4554900*
X760850Y4556270*
X758500Y4557740*
X756350Y4559300*
X754300Y4561060*
X752450Y4562910*
X750690Y4564860*
X749130Y4566920*
X747660Y4569160*
X746390Y4571510*
X745220Y4573850*
X744340Y4576390*
X743560Y4578930*
X742880Y4581560*
X742490Y4584300*
X742190Y4587030*
Y4589860*
Y4592700*
X742490Y4595530*
X742880Y4598170*
X743460Y4600800*
X744240Y4603340*
X745220Y4605780*
X746290Y4608220*
X747560Y4610570*
X749030Y4612810*
X750590Y4614960*
X752250Y4616920*
X754010Y4618770*
X755960Y4620530*
X758010Y4622090*
X760260Y4623560*
X762510Y4624920*
X764950Y4626100*
X767390Y4627170*
X769930Y4628050*
X772560Y4628830*
X775300Y4629320*
X778030Y4629710*
X780870Y4630000*
X783790Y4630100*
X786630Y4630000*
X789360Y4629810*
X792100Y4629420*
X794630Y4628830*
X797270Y4628150*
X799710Y4627270*
X802150Y4626290*
X804500Y4625120*
X806740Y4623850*
X808890Y4622380*
X810940Y4620820*
X812800Y4619160*
X814560Y4617310*
X816220Y4615350*
X817680Y4613200*
X819050Y4610960*
X820320Y4608610*
X821390Y4606170*
X822270Y4603630*
X823050Y4601100*
X823640Y4598360*
X824030Y4595530*
X824320Y4592600*
X824420Y4589570*
X783890Y4613010D02*
X782040Y4612910D01*
X780180Y4612720*
X778520Y4612330*
X776860Y4611840*
X775300Y4611250*
X773740Y4610470*
X772370Y4609590*
X771000Y4608610*
X769730Y4607440*
X768660Y4606270*
X767680Y4604900*
X766800Y4603440*
X766020Y4601880*
X765440Y4600310*
X764950Y4598560*
X764650Y4596700*
X803030*
X802740Y4598560*
X802250Y4600220*
X801570Y4601880*
X800880Y4603340*
X800010Y4604810*
X799030Y4606170*
X797950Y4607350*
X796690Y4608520*
X795320Y4609590*
X793950Y4610470*
X792390Y4611250*
X790920Y4611840*
X789260Y4612330*
X787510Y4612720*
X785750Y4612910*
X783890Y4613010*
X886920Y4630100D02*
X890440Y4629900D01*
X893760Y4629510*
X896980Y4628830*
X900010Y4627850*
X902840Y4626680*
X905470Y4625220*
X908010Y4623360*
X910260Y4621410*
X912410Y4619060*
X914170Y4616530*
X915730Y4613690*
X917000Y4610570*
X917970Y4607250*
X918660Y4603630*
X919050Y4599730*
X919240Y4595530*
Y4550900*
X896590*
Y4592110*
X896490Y4594360*
X896290Y4596410*
X896000Y4598360*
X895610Y4600220*
X895030Y4601880*
X894340Y4603340*
X893460Y4604710*
X892490Y4605880*
X891410Y4606950*
X890240Y4607930*
X888970Y4608710*
X887600Y4609400*
X886040Y4609880*
X884380Y4610180*
X882620Y4610470*
X880770*
X878720Y4610370*
X876760Y4610180*
X874810Y4609790*
X873050Y4609200*
X871490Y4608420*
X869930Y4607540*
X868460Y4606470*
X867190Y4605200*
X865920Y4603830*
X864950Y4602270*
X864070Y4600510*
X863380Y4598650*
X862800Y4596600*
X862410Y4594360*
X862120Y4592010*
Y4589470*
Y4550900*
X839460*
Y4628930*
X861040*
Y4619750*
X863480Y4622090*
X866120Y4624140*
X869050Y4625900*
X872270Y4627360*
X875690Y4628540*
X879200Y4629420*
X883010Y4629900*
X886920Y4630100*
X965920Y4549730D02*
X961040Y4549920D01*
X956260Y4550310*
X951570Y4551100*
X946880Y4552170*
X944630Y4552760*
X942490Y4553440*
X940440Y4554120*
X938580Y4554810*
X936720Y4555590*
X935060Y4556370*
X933500Y4557250*
X932130Y4558130*
X939650Y4574440*
X942390Y4572780*
X945420Y4571310*
X948740Y4570040*
X952250Y4568970*
X955960Y4567990*
X959580Y4567400*
X963190Y4567010*
X966800Y4566820*
X968460Y4566920*
X970120*
X971690Y4567110*
X973050Y4567310*
X974320Y4567500*
X975490Y4567790*
X976570Y4568190*
X977540Y4568580*
X978420Y4569060*
X979110Y4569650*
X979690Y4570240*
X980180Y4570820*
X980570Y4571510*
X980870Y4572290*
X981060Y4573070*
X981160Y4573950*
X981060Y4574730*
X980870Y4575510*
X980570Y4576190*
X980180Y4576780*
X979600Y4577360*
X978910Y4577850*
X978130Y4578340*
X977250Y4578730*
X976180Y4579120*
X975010Y4579420*
X973640Y4579810*
X972270Y4580100*
X970710Y4580390*
X968950Y4580690*
X967100Y4580980*
X965140Y4581170*
X962800Y4581560*
X960550Y4581950*
X958500Y4582350*
X956450Y4582740*
X954500Y4583220*
X952740Y4583610*
X950980Y4584100*
X949320Y4584490*
X946390Y4585670*
X943560Y4587130*
X940920Y4588990*
X938580Y4591230*
X937510Y4592500*
X936530Y4593870*
X935750Y4595330*
X935160Y4596990*
X934670Y4598750*
X934280Y4600700*
X934090Y4602660*
X933990Y4604810*
X934090Y4606660*
X934280Y4608420*
X934580Y4610180*
X935060Y4611840*
X935650Y4613400*
X936430Y4614960*
X937310Y4616530*
X938290Y4617990*
X939360Y4619360*
X940630Y4620630*
X942000Y4621900*
X943560Y4623070*
X945120Y4624140*
X946880Y4625120*
X948740Y4626000*
X950790Y4626880*
X952840Y4627660*
X954990Y4628240*
X957330Y4628830*
X959670Y4629320*
X962120Y4629610*
X964750Y4629900*
X967390Y4630000*
X970120Y4630100*
X974220Y4630000*
X978330Y4629610*
X982430Y4629030*
X986530Y4628240*
X990440Y4627270*
X994050Y4626100*
X997270Y4624730*
X1000100Y4623260*
X992580Y4607150*
X989950Y4608520*
X987310Y4609690*
X984580Y4610670*
X981840Y4611540*
X979010Y4612130*
X976080Y4612620*
X973150Y4612910*
X970120Y4613010*
X968370Y4612910*
X966700Y4612810*
X965140Y4612720*
X963780Y4612420*
X962410Y4612130*
X961240Y4611840*
X960160Y4611450*
X959190Y4610960*
X958400Y4610370*
X957620Y4609880*
X957040Y4609200*
X956550Y4608610*
X956160Y4607930*
X955870Y4607250*
X955670Y4606470*
X955570Y4605690*
X955670Y4604810*
X955870Y4604030*
X956160Y4603340*
X956550Y4602660*
X957130Y4602070*
X957820Y4601490*
X958600Y4601000*
X959480Y4600610*
X960550Y4600310*
X961720Y4599920*
X963090Y4599530*
X964560Y4599240*
X966220Y4598850*
X967970Y4598560*
X969930Y4598170*
X971980Y4597870*
X974320Y4597480*
X976570Y4597090*
X978720Y4596600*
X980670Y4596210*
X982620Y4595820*
X984380Y4595330*
X986040Y4594940*
X987600Y4594450*
X990630Y4593380*
X993370Y4591920*
X995900Y4590060*
X998250Y4587910*
X999320Y4586640*
X1000200Y4585280*
X1000980Y4583710*
X1001570Y4582150*
X1002060Y4580390*
X1002450Y4578540*
X1002640Y4576580*
X1002740Y4574530*
X1002640Y4572780*
X1002450Y4571020*
X1002150Y4569360*
X1001670Y4567700*
X1001080Y4566130*
X1000300Y4564570*
X999420Y4563110*
X998350Y4561640*
X997270Y4560280*
X996000Y4558910*
X994540Y4557740*
X993070Y4556560*
X991410Y4555590*
X989650Y4554610*
X987700Y4553630*
X985650Y4552850*
X983600Y4552070*
X981350Y4551490*
X979010Y4551000*
X976570Y4550510*
X974030Y4550220*
X971390Y4549920*
X968760Y4549830*
X965920Y4549730*
X1094150Y4628930D02*
X1058890Y4546110D01*
X1057530Y4542890*
X1056060Y4539860*
X1054500Y4537130*
X1052940Y4534590*
X1051180Y4532350*
X1049420Y4530390*
X1047560Y4528630*
X1045610Y4527070*
X1043560Y4525800*
X1041510Y4524730*
X1039260Y4523750*
X1036920Y4522970*
X1034480Y4522380*
X1031940Y4521900*
X1029300Y4521700*
X1026570Y4521600*
X1023540Y4521700*
X1020510Y4522090*
X1017490Y4522680*
X1014560Y4523460*
X1011720Y4524530*
X1009090Y4525700*
X1006840Y4527170*
X1004790Y4528730*
X1013090Y4544850*
X1014460Y4543670*
X1015920Y4542700*
X1017490Y4541920*
X1019050Y4541130*
X1020810Y4540650*
X1022470Y4540160*
X1024130Y4539960*
X1025790Y4539860*
X1028030Y4540060*
X1030080Y4540450*
X1031840Y4541130*
X1033400Y4542110*
X1034770Y4543380*
X1036140Y4545140*
X1037410Y4547190*
X1038580Y4549630*
X1038870Y4550310*
X1005080Y4628930*
X1028420*
X1050300Y4576000*
X1072370Y4628930*
X1094150*
X1150880Y4630100D02*
X1154400Y4629900D01*
X1157720Y4629510*
X1160940Y4628830*
X1163970Y4627850*
X1166800Y4626680*
X1169440Y4625220*
X1171980Y4623360*
X1174220Y4621410*
X1176370Y4619060*
X1178130Y4616530*
X1179690Y4613690*
X1180960Y4610570*
X1181940Y4607250*
X1182620Y4603630*
X1183010Y4599730*
X1183210Y4595530*
Y4550900*
X1160550*
Y4592110*
X1160450Y4594360*
X1160260Y4596410*
X1159970Y4598360*
X1159580Y4600220*
X1158990Y4601880*
X1158310Y4603340*
X1157430Y4604710*
X1156450Y4605880*
X1155380Y4606950*
X1154200Y4607930*
X1152940Y4608710*
X1151570Y4609400*
X1150010Y4609880*
X1148350Y4610180*
X1146590Y4610470*
X1144730*
X1142680Y4610370*
X1140730Y4610180*
X1138780Y4609790*
X1137020Y4609200*
X1135450Y4608420*
X1133890Y4607540*
X1132430Y4606470*
X1131160Y4605200*
X1129890Y4603830*
X1128910Y4602270*
X1128030Y4600510*
X1127350Y4598650*
X1126760Y4596600*
X1126370Y4594360*
X1126080Y4592010*
Y4589470*
Y4550900*
X1103420*
Y4628930*
X1125010*
Y4619750*
X1127450Y4622090*
X1130080Y4624140*
X1133010Y4625900*
X1136240Y4627360*
X1139650Y4628540*
X1143170Y4629420*
X1146980Y4629900*
X1150880Y4630100*
X1253910Y4554710D02*
X1252150Y4553540D01*
X1250200Y4552460*
X1248050Y4551680*
X1245710Y4551000*
X1243270Y4550410*
X1240730Y4550020*
X1238190Y4549830*
X1235550Y4549730*
X1232130Y4549830*
X1228910Y4550220*
X1225980Y4550700*
X1223150Y4551490*
X1220610Y4552460*
X1218170Y4553730*
X1216020Y4555200*
X1213970Y4556860*
X1212210Y4558710*
X1210650Y4560760*
X1209380Y4563110*
X1208310Y4565650*
X1207430Y4568280*
X1206840Y4571210*
X1206450Y4574340*
X1206350Y4577760*
Y4609790*
X1194340*
Y4627170*
X1206350*
Y4646210*
X1229010*
Y4627170*
X1248440*
Y4609790*
X1229010*
Y4578050*
X1229110Y4575700*
X1229600Y4573650*
X1230380Y4571900*
X1231550Y4570430*
X1232920Y4569260*
X1234580Y4568380*
X1236530Y4567890*
X1238680Y4567700*
X1241310Y4567890*
X1243660Y4568480*
X1245900Y4569360*
X1247860Y4570630*
X1253910Y4554710*
X1314170Y4630100D02*
X1317680Y4629900D01*
X1321000Y4629510*
X1324220Y4628830*
X1327250Y4627850*
X1330080Y4626680*
X1332720Y4625220*
X1335260Y4623360*
X1337510Y4621410*
X1339650Y4619060*
X1341410Y4616530*
X1342970Y4613690*
X1344240Y4610570*
X1345220Y4607250*
X1345900Y4603630*
X1346290Y4599730*
X1346490Y4595530*
Y4550900*
X1323830*
Y4592110*
X1323740Y4594360*
X1323540Y4596410*
X1323250Y4598360*
X1322860Y4600220*
X1322270Y4601880*
X1321590Y4603340*
X1320710Y4604710*
X1319730Y4605880*
X1318660Y4606950*
X1317490Y4607930*
X1316220Y4608710*
X1314850Y4609400*
X1313290Y4609880*
X1311630Y4610180*
X1309870Y4610470*
X1308010*
X1305960Y4610370*
X1304010Y4610180*
X1302060Y4609790*
X1300300Y4609200*
X1298740Y4608420*
X1297170Y4607540*
X1295710Y4606470*
X1294440Y4605200*
X1293170Y4603830*
X1292190Y4602270*
X1291310Y4600510*
X1290630Y4598650*
X1290040Y4596600*
X1289650Y4594360*
X1289360Y4592010*
Y4589470*
Y4550900*
X1266700*
Y4658520*
X1289360*
Y4620820*
X1291700Y4622870*
X1294240Y4624730*
X1297170Y4626390*
X1300200Y4627660*
X1303420Y4628730*
X1306840Y4629510*
X1310450Y4629900*
X1314170Y4630100*
X1443370Y4589570D02*
X1443270Y4589380D01*
Y4589080*
Y4588600*
X1443170Y4587910*
Y4587030*
X1443070Y4586060*
X1442970Y4584880*
X1442880Y4583520*
X1383890*
X1384280Y4581760*
X1384970Y4580100*
X1385650Y4578540*
X1386530Y4577070*
X1387600Y4575610*
X1388680Y4574340*
X1389950Y4573170*
X1391410Y4572090*
X1392970Y4571110*
X1394540Y4570240*
X1396290Y4569450*
X1398050Y4568870*
X1400010Y4568480*
X1401960Y4568090*
X1404010Y4567890*
X1406160*
X1409190Y4567990*
X1411920Y4568280*
X1414560Y4568870*
X1417000Y4569650*
X1419340Y4570720*
X1421590Y4571990*
X1423740Y4573560*
X1425790Y4575410*
X1437800Y4562330*
X1436430Y4560860*
X1434870Y4559400*
X1433310Y4558030*
X1431650Y4556860*
X1429890Y4555690*
X1428130Y4554710*
X1426180Y4553730*
X1424220Y4552850*
X1422170Y4552170*
X1420030Y4551490*
X1417880Y4551000*
X1415530Y4550510*
X1413190Y4550220*
X1410750Y4549920*
X1408210Y4549830*
X1405570Y4549730*
X1402350Y4549830*
X1399220Y4550020*
X1396100Y4550410*
X1393170Y4551000*
X1390340Y4551780*
X1387510Y4552660*
X1384870Y4553630*
X1382230Y4554900*
X1379790Y4556270*
X1377450Y4557740*
X1375300Y4559300*
X1373250Y4561060*
X1371390Y4562910*
X1369630Y4564860*
X1368070Y4566920*
X1366610Y4569160*
X1365340Y4571510*
X1364170Y4573850*
X1363290Y4576390*
X1362510Y4578930*
X1361820Y4581560*
X1361430Y4584300*
X1361140Y4587030*
Y4589860*
Y4592700*
X1361430Y4595530*
X1361820Y4598170*
X1362410Y4600800*
X1363190Y4603340*
X1364170Y4605780*
X1365240Y4608220*
X1366510Y4610570*
X1367970Y4612810*
X1369540Y4614960*
X1371200Y4616920*
X1372950Y4618770*
X1374910Y4620530*
X1376960Y4622090*
X1379200Y4623560*
X1381450Y4624920*
X1383890Y4626100*
X1386330Y4627170*
X1388870Y4628050*
X1391510Y4628830*
X1394240Y4629320*
X1396980Y4629710*
X1399810Y4630000*
X1402740Y4630100*
X1405570Y4630000*
X1408310Y4629810*
X1411040Y4629420*
X1413580Y4628830*
X1416220Y4628150*
X1418660Y4627270*
X1421100Y4626290*
X1423440Y4625120*
X1425690Y4623850*
X1427840Y4622380*
X1429890Y4620820*
X1431740Y4619160*
X1433500Y4617310*
X1435160Y4615350*
X1436630Y4613200*
X1437990Y4610960*
X1439260Y4608610*
X1440340Y4606170*
X1441220Y4603630*
X1442000Y4601100*
X1442580Y4598360*
X1442970Y4595530*
X1443270Y4592600*
X1443370Y4589570*
X1402840Y4613010D02*
X1400980Y4612910D01*
X1399130Y4612720*
X1397470Y4612330*
X1395810Y4611840*
X1394240Y4611250*
X1392680Y4610470*
X1391310Y4609590*
X1389950Y4608610*
X1388680Y4607440*
X1387600Y4606270*
X1386630Y4604900*
X1385750Y4603440*
X1384970Y4601880*
X1384380Y4600310*
X1383890Y4598560*
X1383600Y4596700*
X1421980*
X1421690Y4598560*
X1421200Y4600220*
X1420510Y4601880*
X1419830Y4603340*
X1418950Y4604810*
X1417970Y4606170*
X1416900Y4607350*
X1415630Y4608520*
X1414260Y4609590*
X1412900Y4610470*
X1411330Y4611250*
X1409870Y4611840*
X1408210Y4612330*
X1406450Y4612720*
X1404690Y4612910*
X1402840Y4613010*
X1484670Y4549730D02*
X1479790Y4549920D01*
X1475010Y4550310*
X1470320Y4551100*
X1465630Y4552170*
X1463380Y4552760*
X1461240Y4553440*
X1459190Y4554120*
X1457330Y4554810*
X1455470Y4555590*
X1453810Y4556370*
X1452250Y4557250*
X1450880Y4558130*
X1458400Y4574440*
X1461140Y4572780*
X1464170Y4571310*
X1467490Y4570040*
X1471000Y4568970*
X1474710Y4567990*
X1478330Y4567400*
X1481940Y4567010*
X1485550Y4566820*
X1487210Y4566920*
X1488870*
X1490440Y4567110*
X1491800Y4567310*
X1493070Y4567500*
X1494240Y4567790*
X1495320Y4568190*
X1496290Y4568580*
X1497170Y4569060*
X1497860Y4569650*
X1498440Y4570240*
X1498930Y4570820*
X1499320Y4571510*
X1499620Y4572290*
X1499810Y4573070*
X1499910Y4573950*
X1499810Y4574730*
X1499620Y4575510*
X1499320Y4576190*
X1498930Y4576780*
X1498350Y4577360*
X1497660Y4577850*
X1496880Y4578340*
X1496000Y4578730*
X1494930Y4579120*
X1493760Y4579420*
X1492390Y4579810*
X1491020Y4580100*
X1489460Y4580390*
X1487700Y4580690*
X1485850Y4580980*
X1483890Y4581170*
X1481550Y4581560*
X1479300Y4581950*
X1477250Y4582350*
X1475200Y4582740*
X1473250Y4583220*
X1471490Y4583610*
X1469730Y4584100*
X1468070Y4584490*
X1465140Y4585670*
X1462310Y4587130*
X1459670Y4588990*
X1457330Y4591230*
X1456260Y4592500*
X1455280Y4593870*
X1454500Y4595330*
X1453910Y4596990*
X1453420Y4598750*
X1453030Y4600700*
X1452840Y4602660*
X1452740Y4604810*
X1452840Y4606660*
X1453030Y4608420*
X1453330Y4610180*
X1453810Y4611840*
X1454400Y4613400*
X1455180Y4614960*
X1456060Y4616530*
X1457040Y4617990*
X1458110Y4619360*
X1459380Y4620630*
X1460750Y4621900*
X1462310Y4623070*
X1463870Y4624140*
X1465630Y4625120*
X1467490Y4626000*
X1469540Y4626880*
X1471590Y4627660*
X1473740Y4628240*
X1476080Y4628830*
X1478420Y4629320*
X1480870Y4629610*
X1483500Y4629900*
X1486140Y4630000*
X1488870Y4630100*
X1492970Y4630000*
X1497080Y4629610*
X1501180Y4629030*
X1505280Y4628240*
X1509190Y4627270*
X1512800Y4626100*
X1516020Y4624730*
X1518850Y4623260*
X1511330Y4607150*
X1508700Y4608520*
X1506060Y4609690*
X1503330Y4610670*
X1500590Y4611540*
X1497760Y4612130*
X1494830Y4612620*
X1491900Y4612910*
X1488870Y4613010*
X1487120Y4612910*
X1485450Y4612810*
X1483890Y4612720*
X1482530Y4612420*
X1481160Y4612130*
X1479990Y4611840*
X1478910Y4611450*
X1477940Y4610960*
X1477150Y4610370*
X1476370Y4609880*
X1475790Y4609200*
X1475300Y4608610*
X1474910Y4607930*
X1474620Y4607250*
X1474420Y4606470*
X1474320Y4605690*
X1474420Y4604810*
X1474620Y4604030*
X1474910Y4603340*
X1475300Y4602660*
X1475880Y4602070*
X1476570Y4601490*
X1477350Y4601000*
X1478230Y4600610*
X1479300Y4600310*
X1480470Y4599920*
X1481840Y4599530*
X1483310Y4599240*
X1484970Y4598850*
X1486720Y4598560*
X1488680Y4598170*
X1490730Y4597870*
X1493070Y4597480*
X1495320Y4597090*
X1497470Y4596600*
X1499420Y4596210*
X1501370Y4595820*
X1503130Y4595330*
X1504790Y4594940*
X1506350Y4594450*
X1509380Y4593380*
X1512120Y4591920*
X1514650Y4590060*
X1517000Y4587910*
X1518070Y4586640*
X1518950Y4585280*
X1519730Y4583710*
X1520320Y4582150*
X1520810Y4580390*
X1521200Y4578540*
X1521390Y4576580*
X1521490Y4574530*
X1521390Y4572780*
X1521200Y4571020*
X1520900Y4569360*
X1520420Y4567700*
X1519830Y4566130*
X1519050Y4564570*
X1518170Y4563110*
X1517100Y4561640*
X1516020Y4560280*
X1514750Y4558910*
X1513290Y4557740*
X1511820Y4556560*
X1510160Y4555590*
X1508400Y4554610*
X1506450Y4553630*
X1504400Y4552850*
X1502350Y4552070*
X1500100Y4551490*
X1497760Y4551000*
X1495320Y4550510*
X1492780Y4550220*
X1490140Y4549920*
X1487510Y4549830*
X1484670Y4549730*
X1535450Y4628930D02*
X1558110D01*
Y4550900*
X1535450*
Y4628930*
X1546780Y4639770D02*
X1545220Y4639860D01*
X1543760Y4640060*
X1542390Y4640260*
X1541120Y4640740*
X1539850Y4641230*
X1538680Y4641820*
X1537600Y4642600*
X1536630Y4643380*
X1535650Y4644360*
X1534870Y4645330*
X1534190Y4646410*
X1533700Y4647480*
X1533210Y4648650*
X1532920Y4649830*
X1532720Y4651100*
Y4652360*
Y4653730*
X1532920Y4655000*
X1533210Y4656170*
X1533700Y4657350*
X1534190Y4658420*
X1534870Y4659490*
X1535650Y4660470*
X1536630Y4661350*
X1537600Y4662230*
X1538680Y4663010*
X1539850Y4663600*
X1541120Y4664080*
X1542390Y4664470*
X1543760Y4664770*
X1545220Y4664960*
X1546780Y4665060*
X1548250Y4664960*
X1549710Y4664770*
X1551080Y4664570*
X1552450Y4664180*
X1553620Y4663690*
X1554790Y4663110*
X1555870Y4662330*
X1556940Y4661540*
X1557820Y4660670*
X1558600Y4659690*
X1559280Y4658710*
X1559870Y4657640*
X1560260Y4656470*
X1560550Y4655290*
X1560750Y4654120*
X1560850Y4652850*
X1560750Y4651490*
X1560550Y4650120*
X1560260Y4648850*
X1559870Y4647680*
X1559280Y4646510*
X1558600Y4645430*
X1557820Y4644450*
X1556940Y4643480*
X1555870Y4642600*
X1554790Y4641920*
X1553620Y4641230*
X1552450Y4640740*
X1551080Y4640350*
X1549710Y4640060*
X1548250Y4639860*
X1546780Y4639770*
X1605380Y4549730D02*
X1600490Y4549920D01*
X1595710Y4550310*
X1591020Y4551100*
X1586330Y4552170*
X1584090Y4552760*
X1581940Y4553440*
X1579890Y4554120*
X1578030Y4554810*
X1576180Y4555590*
X1574520Y4556370*
X1572950Y4557250*
X1571590Y4558130*
X1579110Y4574440*
X1581840Y4572780*
X1584870Y4571310*
X1588190Y4570040*
X1591700Y4568970*
X1595420Y4567990*
X1599030Y4567400*
X1602640Y4567010*
X1606260Y4566820*
X1607920Y4566920*
X1609580*
X1611140Y4567110*
X1612510Y4567310*
X1613780Y4567500*
X1614950Y4567790*
X1616020Y4568190*
X1617000Y4568580*
X1617880Y4569060*
X1618560Y4569650*
X1619150Y4570240*
X1619630Y4570820*
X1620030Y4571510*
X1620320Y4572290*
X1620510Y4573070*
X1620610Y4573950*
X1620510Y4574730*
X1620320Y4575510*
X1620030Y4576190*
X1619630Y4576780*
X1619050Y4577360*
X1618370Y4577850*
X1617580Y4578340*
X1616700Y4578730*
X1615630Y4579120*
X1614460Y4579420*
X1613090Y4579810*
X1611720Y4580100*
X1610160Y4580390*
X1608400Y4580690*
X1606550Y4580980*
X1604600Y4581170*
X1602250Y4581560*
X1600010Y4581950*
X1597950Y4582350*
X1595900Y4582740*
X1593950Y4583220*
X1592190Y4583610*
X1590440Y4584100*
X1588780Y4584490*
X1585850Y4585670*
X1583010Y4587130*
X1580380Y4588990*
X1578030Y4591230*
X1576960Y4592500*
X1575980Y4593870*
X1575200Y4595330*
X1574620Y4596990*
X1574130Y4598750*
X1573740Y4600700*
X1573540Y4602660*
X1573440Y4604810*
X1573540Y4606660*
X1573740Y4608420*
X1574030Y4610180*
X1574520Y4611840*
X1575100Y4613400*
X1575880Y4614960*
X1576760Y4616530*
X1577740Y4617990*
X1578810Y4619360*
X1580080Y4620630*
X1581450Y4621900*
X1583010Y4623070*
X1584580Y4624140*
X1586330Y4625120*
X1588190Y4626000*
X1590240Y4626880*
X1592290Y4627660*
X1594440Y4628240*
X1596780Y4628830*
X1599130Y4629320*
X1601570Y4629610*
X1604200Y4629900*
X1606840Y4630000*
X1609580Y4630100*
X1613680Y4630000*
X1617780Y4629610*
X1621880Y4629030*
X1625980Y4628240*
X1629890Y4627270*
X1633500Y4626100*
X1636720Y4624730*
X1639560Y4623260*
X1632040Y4607150*
X1629400Y4608520*
X1626760Y4609690*
X1624030Y4610670*
X1621290Y4611540*
X1618460Y4612130*
X1615530Y4612620*
X1612600Y4612910*
X1609580Y4613010*
X1607820Y4612910*
X1606160Y4612810*
X1604600Y4612720*
X1603230Y4612420*
X1601860Y4612130*
X1600690Y4611840*
X1599620Y4611450*
X1598640Y4610960*
X1597860Y4610370*
X1597080Y4609880*
X1596490Y4609200*
X1596000Y4608610*
X1595610Y4607930*
X1595320Y4607250*
X1595120Y4606470*
X1595030Y4605690*
X1595120Y4604810*
X1595320Y4604030*
X1595610Y4603340*
X1596000Y4602660*
X1596590Y4602070*
X1597270Y4601490*
X1598050Y4601000*
X1598930Y4600610*
X1600010Y4600310*
X1601180Y4599920*
X1602540Y4599530*
X1604010Y4599240*
X1605670Y4598850*
X1607430Y4598560*
X1609380Y4598170*
X1611430Y4597870*
X1613780Y4597480*
X1616020Y4597090*
X1618170Y4596600*
X1620120Y4596210*
X1622080Y4595820*
X1623830Y4595330*
X1625490Y4594940*
X1627060Y4594450*
X1630080Y4593380*
X1632820Y4591920*
X1635360Y4590060*
X1637700Y4587910*
X1638780Y4586640*
X1639650Y4585280*
X1640440Y4583710*
X1641020Y4582150*
X1641510Y4580390*
X1641900Y4578540*
X1642100Y4576580*
X1642190Y4574530*
X1642100Y4572780*
X1641900Y4571020*
X1641610Y4569360*
X1641120Y4567700*
X1640530Y4566130*
X1639750Y4564570*
X1638870Y4563110*
X1637800Y4561640*
X1636720Y4560280*
X1635450Y4558910*
X1633990Y4557740*
X1632530Y4556560*
X1630870Y4555590*
X1629110Y4554610*
X1627150Y4553630*
X1625100Y4552850*
X1623050Y4552070*
X1620810Y4551490*
X1618460Y4551000*
X1616020Y4550510*
X1613480Y4550220*
X1610850Y4549920*
X1608210Y4549830*
X1605380Y4549730*
X1664750D02*
X1663290Y4549830D01*
X1661820Y4550020*
X1660550Y4550310*
X1659280Y4550700*
X1658010Y4551290*
X1656840Y4551970*
X1655770Y4552850*
X1654690Y4553830*
X1653720Y4554810*
X1652940Y4555980*
X1652250Y4557150*
X1651670Y4558320*
X1651180Y4559690*
X1650880Y4561060*
X1650690Y4562420*
X1650590Y4563990*
X1650690Y4565450*
X1650880Y4566920*
X1651180Y4568280*
X1651670Y4569550*
X1652250Y4570820*
X1652940Y4571990*
X1653720Y4573070*
X1654690Y4574040*
X1655770Y4574920*
X1656840Y4575700*
X1658010Y4576390*
X1659280Y4576880*
X1660550Y4577360*
X1661820Y4577660*
X1663290Y4577850*
X1664750*
X1666120*
X1667580Y4577660*
X1668850Y4577360*
X1670220Y4576880*
X1671390Y4576390*
X1672560Y4575700*
X1673640Y4574920*
X1674710Y4574040*
X1675690Y4573070*
X1676470Y4571990*
X1677150Y4570820*
X1677740Y4569550*
X1678230Y4568280*
X1678520Y4566920*
X1678720Y4565450*
X1678810Y4563990*
X1678720Y4562420*
X1678520Y4561060*
X1678230Y4559690*
X1677740Y4558320*
X1677150Y4557150*
X1676470Y4555980*
X1675690Y4554810*
X1674710Y4553830*
X1673640Y4552850*
X1672560Y4551970*
X1671390Y4551290*
X1670220Y4550700*
X1668850Y4550310*
X1667580Y4550020*
X1666120Y4549830*
X1664750Y4549730*
X1731840D02*
X1728810Y4549830D01*
X1725790Y4550020*
X1722860Y4550410*
X1720030Y4551000*
X1717290Y4551780*
X1714560Y4552660*
X1711920Y4553630*
X1709480Y4554900*
X1707040Y4556270*
X1704790Y4557740*
X1702640Y4559300*
X1700590Y4561060*
X1698740Y4562910*
X1696980Y4564860*
X1695420Y4566920*
X1693950Y4569160*
X1692580Y4571510*
X1691510Y4573850*
X1690530Y4576390*
X1689750Y4578930*
X1689170Y4581560*
X1688680Y4584300*
X1688380Y4587030*
Y4589860*
Y4592790*
X1688680Y4595530*
X1689170Y4598260*
X1689750Y4600900*
X1690530Y4603440*
X1691510Y4605880*
X1692580Y4608320*
X1693950Y4610670*
X1695420Y4612810*
X1696980Y4614960*
X1698740Y4616920*
X1700590Y4618770*
X1702640Y4620530*
X1704790Y4622090*
X1707040Y4623560*
X1709480Y4624920*
X1711920Y4626100*
X1714560Y4627170*
X1717290Y4628050*
X1720030Y4628830*
X1722860Y4629320*
X1725790Y4629710*
X1728810Y4630000*
X1731840Y4630100*
X1734870Y4630000*
X1737800Y4629710*
X1740630Y4629320*
X1743370Y4628830*
X1746000Y4628050*
X1748540Y4627170*
X1751080Y4626100*
X1753420Y4624920*
X1755570Y4623560*
X1757720Y4622090*
X1759580Y4620430*
X1761330Y4618670*
X1762900Y4616720*
X1764360Y4614670*
X1765630Y4612520*
X1766800Y4610180*
X1749220Y4600800*
X1747660Y4603340*
X1745900Y4605490*
X1743950Y4607350*
X1741800Y4608810*
X1739560Y4609980*
X1737120Y4610860*
X1734480Y4611350*
X1731740Y4611540*
X1729500Y4611450*
X1727450Y4611150*
X1725490Y4610670*
X1723640Y4610080*
X1721880Y4609200*
X1720120Y4608220*
X1718560Y4607050*
X1717100Y4605690*
X1715730Y4604220*
X1714560Y4602560*
X1713480Y4600800*
X1712700Y4598850*
X1712120Y4596800*
X1711630Y4594650*
X1711330Y4592310*
X1711240Y4589860*
X1711330Y4587420*
X1711630Y4585180*
X1712120Y4583030*
X1712700Y4580980*
X1713480Y4579030*
X1714560Y4577270*
X1715730Y4575610*
X1717100Y4574140*
X1718560Y4572780*
X1720120Y4571600*
X1721880Y4570530*
X1723640Y4569750*
X1725490Y4569060*
X1727450Y4568670*
X1729500Y4568380*
X1731740Y4568280*
X1734480Y4568480*
X1737120Y4568970*
X1739650Y4569850*
X1741900Y4571020*
X1743950Y4572480*
X1745900Y4574340*
X1747660Y4576490*
X1749220Y4579030*
X1766800Y4569450*
X1765630Y4567210*
X1764360Y4565060*
X1762900Y4563110*
X1761330Y4561150*
X1759580Y4559400*
X1757720Y4557830*
X1755570Y4556270*
X1753420Y4554900*
X1751080Y4553730*
X1748540Y4552660*
X1746000Y4551780*
X1743370Y4551000*
X1740630Y4550510*
X1737800Y4550020*
X1734870Y4549830*
X1731840Y4549730*
X1817000D02*
X1813970Y4549830D01*
X1811040Y4550020*
X1808110Y4550410*
X1805280Y4551000*
X1802540Y4551780*
X1799910Y4552660*
X1797370Y4553630*
X1794930Y4554900*
X1792490Y4556270*
X1790240Y4557740*
X1788190Y4559300*
X1786140Y4561060*
X1784280Y4562910*
X1782620Y4564860*
X1781060Y4566920*
X1779600Y4569160*
X1778330Y4571510*
X1777150Y4573850*
X1776280Y4576390*
X1775490Y4578930*
X1774810Y4581560*
X1774420Y4584300*
X1774130Y4587030*
Y4589860*
Y4592790*
X1774420Y4595530*
X1774810Y4598260*
X1775490Y4600900*
X1776280Y4603440*
X1777150Y4605880*
X1778330Y4608320*
X1779600Y4610670*
X1781060Y4612810*
X1782620Y4614960*
X1784280Y4616920*
X1786140Y4618770*
X1788190Y4620530*
X1790240Y4622090*
X1792490Y4623560*
X1794930Y4624920*
X1797370Y4626100*
X1799910Y4627170*
X1802540Y4628050*
X1805280Y4628830*
X1808110Y4629320*
X1811040Y4629710*
X1813970Y4630000*
X1817000Y4630100*
X1820030Y4630000*
X1823050Y4629710*
X1825880Y4629320*
X1828720Y4628830*
X1831350Y4628050*
X1833990Y4627170*
X1836630Y4626100*
X1839070Y4624920*
X1841410Y4623560*
X1843660Y4622090*
X1845710Y4620530*
X1847760Y4618770*
X1849520Y4616920*
X1851280Y4614960*
X1852840Y4612810*
X1854300Y4610670*
X1855570Y4608320*
X1856650Y4605880*
X1857620Y4603440*
X1858400Y4600900*
X1858990Y4598260*
X1859480Y4595530*
X1859670Y4592790*
X1859770Y4589860*
X1859670Y4587030*
X1859480Y4584300*
X1858990Y4581560*
X1858400Y4578930*
X1857620Y4576390*
X1856650Y4573850*
X1855570Y4571510*
X1854300Y4569160*
X1852840Y4566920*
X1851280Y4564860*
X1849520Y4562910*
X1847760Y4561060*
X1845710Y4559300*
X1843660Y4557740*
X1841410Y4556270*
X1839070Y4554900*
X1836630Y4553630*
X1833990Y4552660*
X1831350Y4551780*
X1828720Y4551000*
X1825880Y4550410*
X1823050Y4550020*
X1820030Y4549830*
X1817000Y4549730*
Y4568280D02*
X1819150Y4568380D01*
X1821200Y4568670*
X1823050Y4569160*
X1824910Y4569750*
X1826670Y4570630*
X1828330Y4571600*
X1829890Y4572780*
X1831260Y4574140*
X1832620Y4575700*
X1833700Y4577360*
X1834670Y4579120*
X1835450Y4581080*
X1836140Y4583030*
X1836530Y4585180*
X1836820Y4587520*
X1836920Y4589860*
X1836820Y4592310*
X1836530Y4594550*
X1836140Y4596700*
X1835450Y4598750*
X1834670Y4600700*
X1833700Y4602460*
X1832620Y4604120*
X1831260Y4605590*
X1829890Y4607050*
X1828330Y4608220*
X1826670Y4609200*
X1824910Y4610080*
X1823050Y4610670*
X1821200Y4611150*
X1819150Y4611450*
X1817000Y4611540*
X1814850Y4611450*
X1812900Y4611150*
X1810940Y4610670*
X1809090Y4610080*
X1807330Y4609200*
X1805670Y4608220*
X1804110Y4607050*
X1802640Y4605590*
X1801370Y4604120*
X1800200Y4602460*
X1799220Y4600700*
X1798440Y4598750*
X1797760Y4596700*
X1797370Y4594550*
X1797080Y4592310*
X1796980Y4589860*
X1797080Y4587520*
X1797370Y4585180*
X1797760Y4583030*
X1798440Y4581080*
X1799220Y4579120*
X1800200Y4577360*
X1801370Y4575700*
X1802640Y4574140*
X1804110Y4572780*
X1805670Y4571600*
X1807330Y4570630*
X1809090Y4569750*
X1810940Y4569160*
X1812900Y4568670*
X1814850Y4568380*
X1817000Y4568280*
X1883500Y4549730D02*
X1882040Y4549830D01*
X1880570Y4550020*
X1879300Y4550310*
X1878030Y4550700*
X1876760Y4551290*
X1875590Y4551970*
X1874520Y4552850*
X1873440Y4553830*
X1872470Y4554810*
X1871690Y4555980*
X1871000Y4557150*
X1870420Y4558320*
X1869930Y4559690*
X1869630Y4561060*
X1869440Y4562420*
X1869340Y4563990*
X1869440Y4565450*
X1869630Y4566920*
X1869930Y4568280*
X1870420Y4569550*
X1871000Y4570820*
X1871690Y4571990*
X1872470Y4573070*
X1873440Y4574040*
X1874520Y4574920*
X1875590Y4575700*
X1876760Y4576390*
X1878030Y4576880*
X1879300Y4577360*
X1880570Y4577660*
X1882040Y4577850*
X1883500*
X1884870*
X1886330Y4577660*
X1887600Y4577360*
X1888970Y4576880*
X1890140Y4576390*
X1891310Y4575700*
X1892390Y4574920*
X1893460Y4574040*
X1894440Y4573070*
X1895220Y4571990*
X1895900Y4570820*
X1896490Y4569550*
X1896980Y4568280*
X1897270Y4566920*
X1897470Y4565450*
X1897560Y4563990*
X1897470Y4562420*
X1897270Y4561060*
X1896980Y4559690*
X1896490Y4558320*
X1895900Y4557150*
X1895220Y4555980*
X1894440Y4554810*
X1893460Y4553830*
X1892390Y4552850*
X1891310Y4551970*
X1890140Y4551290*
X1888970Y4550700*
X1887600Y4550310*
X1886330Y4550020*
X1884870Y4549830*
X1883500Y4549730*
X1991510Y4628930D02*
Y4550900D01*
X1970030*
Y4560180*
X1967680Y4557740*
X1965140Y4555690*
X1962310Y4553930*
X1959280Y4552460*
X1956160Y4551290*
X1952840Y4550410*
X1949420Y4549920*
X1945810Y4549730*
X1942100Y4549920*
X1938480Y4550310*
X1935160Y4551000*
X1932040Y4551970*
X1929110Y4553150*
X1926370Y4554710*
X1923830Y4556470*
X1921490Y4558610*
X1919340Y4560960*
X1917490Y4563500*
X1915920Y4566430*
X1914650Y4569550*
X1913680Y4572970*
X1912990Y4576680*
X1912600Y4580590*
X1912410Y4584790*
Y4628930*
X1935060*
Y4588200*
X1935160Y4585860*
X1935360Y4583710*
X1935650Y4581760*
X1936040Y4579900*
X1936630Y4578240*
X1937310Y4576680*
X1938090Y4575310*
X1939070Y4574040*
X1940040Y4572870*
X1941220Y4571990*
X1942580Y4571110*
X1943950Y4570530*
X1945510Y4569940*
X1947170Y4569650*
X1948930Y4569360*
X1950880*
X1952840*
X1954790Y4569650*
X1956550Y4570040*
X1958210Y4570630*
X1959770Y4571410*
X1961240Y4572290*
X1962700Y4573360*
X1963970Y4574630*
X1965040Y4576000*
X1966120Y4577560*
X1966900Y4579320*
X1967680Y4581170*
X1968170Y4583220*
X1968560Y4585470*
X1968760Y4587810*
X1968850Y4590350*
Y4628930*
X1991510*
X2046000Y4581470D02*
X2035160Y4570720D01*
Y4550900*
X2012510*
Y4658520*
X2035160*
Y4597580*
X2068170Y4628930*
X2095120*
X2062700Y4595820*
X2098050Y4550900*
X2070610*
X2046000Y4581470*
X1014080Y4523640D02*
X1038930D01*
X1008600Y4526020D02*
X1043920D01*
X1005220Y4528400D02*
X1047270D01*
X1005850Y4530780D02*
X1049770D01*
X1007070Y4533160D02*
X1051820D01*
X1008300Y4535540D02*
X1053520D01*
X1009520Y4537920D02*
X1054950D01*
X1010750Y4540300D02*
X1022000D01*
X1029290D02*
X1056270D01*
X1011970Y4542680D02*
X1015920D01*
X1034010D02*
X1057430D01*
X1036080Y4545060D02*
X1058450D01*
X1037530Y4547440D02*
X1059460D01*
X540420Y4549820D02*
X543170D01*
X593180D02*
X597210D01*
X783560D02*
X789260D01*
X963610D02*
X968760D01*
X1038660D02*
X1060470D01*
X1232210D02*
X1238190D01*
X1402510D02*
X1408210D01*
X1482360D02*
X1487510D01*
X1603060D02*
X1608210D01*
X1663370D02*
X1666120D01*
X1728970D02*
X1734870D01*
X1814120D02*
X1820030D01*
X1882120D02*
X1884870D01*
X1944050D02*
X1947520D01*
X143090Y4552200D02*
X165730D01*
X200510D02*
X223130D01*
X278930D02*
X301570D01*
X336350D02*
X358970D01*
X414770D02*
X437410D01*
X472190D02*
X494810D01*
X533610D02*
X549900D01*
X581200D02*
X609170D01*
X619050D02*
X640240D01*
X660650D02*
X683310D01*
X704300D02*
X726960D01*
X770040D02*
X803230D01*
X839460D02*
X862120D01*
X896590D02*
X919240D01*
X946770D02*
X983940D01*
X1038060D02*
X1061480D01*
X1103420D02*
X1126080D01*
X1160550D02*
X1183210D01*
X1221290D02*
X1249480D01*
X1266700D02*
X1289360D01*
X1323830D02*
X1346490D01*
X1388990D02*
X1422170D01*
X1465520D02*
X1502690D01*
X1535450D02*
X1558110D01*
X1586220D02*
X1623390D01*
X1656560D02*
X1672840D01*
X1715990D02*
X1747210D01*
X1801280D02*
X1832610D01*
X1875310D02*
X1891590D01*
X1931470D02*
X1958590D01*
X1970030D02*
X1991510D01*
X2012510D02*
X2035160D01*
X2069560D02*
X2097030D01*
X142230Y4554580D02*
X166620D01*
X199640D02*
X224000D01*
X278070D02*
X302460D01*
X335480D02*
X359840D01*
X413910D02*
X438300D01*
X471320D02*
X495680D01*
X531000D02*
X552510D01*
X576350D02*
X613430D01*
X619050D02*
X640240D01*
X660650D02*
X683310D01*
X704300D02*
X726960D01*
X763950D02*
X808930D01*
X839460D02*
X862120D01*
X896590D02*
X919240D01*
X939200D02*
X989650D01*
X1037030D02*
X1062500D01*
X1103420D02*
X1126080D01*
X1160550D02*
X1183210D01*
X1216930D02*
X1253710D01*
X1266700D02*
X1289360D01*
X1323830D02*
X1346490D01*
X1382900D02*
X1427870D01*
X1457950D02*
X1508400D01*
X1535450D02*
X1558110D01*
X1578650D02*
X1629110D01*
X1653950D02*
X1675460D01*
X1710090D02*
X1752780D01*
X1795540D02*
X1838460D01*
X1872700D02*
X1894210D01*
X1926600D02*
X1963360D01*
X1970030D02*
X1991510D01*
X2012510D02*
X2035160D01*
X2067650D02*
X2095150D01*
X141370Y4556960D02*
X167510D01*
X198780D02*
X224860D01*
X277210D02*
X303350D01*
X334620D02*
X360700D01*
X413050D02*
X439190D01*
X470460D02*
X496540D01*
X529410D02*
X554090D01*
X573210D02*
X616220D01*
X619050D02*
X640240D01*
X660650D02*
X683310D01*
X704300D02*
X726960D01*
X759750D02*
X812840D01*
X839460D02*
X862120D01*
X896590D02*
X919240D01*
X934010D02*
X993570D01*
X1036010D02*
X1063510D01*
X1103420D02*
X1126080D01*
X1160550D02*
X1183210D01*
X1213870D02*
X1253050D01*
X1266700D02*
X1289360D01*
X1323830D02*
X1346490D01*
X1378690D02*
X1431790D01*
X1452760D02*
X1512320D01*
X1535450D02*
X1558110D01*
X1573470D02*
X1633020D01*
X1652360D02*
X1677040D01*
X1705980D02*
X1756520D01*
X1791430D02*
X1842470D01*
X1871110D02*
X1895790D01*
X1923290D02*
X1966710D01*
X1970030D02*
X1991510D01*
X2012510D02*
X2035160D01*
X2065730D02*
X2093280D01*
X140510Y4559340D02*
X168400D01*
X197920D02*
X225720D01*
X276350D02*
X304240D01*
X333760D02*
X361560D01*
X412190D02*
X440080D01*
X469600D02*
X497400D01*
X528360D02*
X555150D01*
X570930D02*
X618200D01*
X619050D02*
X640240D01*
X660650D02*
X683310D01*
X704300D02*
X726960D01*
X756300D02*
X815850D01*
X839460D02*
X862120D01*
X896590D02*
X919240D01*
X932690D02*
X996400D01*
X1034990D02*
X1064520D01*
X1103420D02*
X1126080D01*
X1160550D02*
X1183210D01*
X1211730D02*
X1252150D01*
X1266700D02*
X1289360D01*
X1323830D02*
X1346490D01*
X1375250D02*
X1434800D01*
X1451440D02*
X1515150D01*
X1535450D02*
X1558110D01*
X1572150D02*
X1635850D01*
X1651310D02*
X1678100D01*
X1702590D02*
X1759510D01*
X1788140D02*
X1845710D01*
X1870060D02*
X1896850D01*
X1920820D02*
X1969220D01*
X1970030D02*
X1991510D01*
X2012510D02*
X2035160D01*
X2063820D02*
X2091410D01*
X139650Y4561720D02*
X169300D01*
X197050D02*
X226590D01*
X275490D02*
X305140D01*
X332890D02*
X362430D01*
X411330D02*
X440980D01*
X468730D02*
X498270D01*
X527840D02*
X555670D01*
X569270D02*
X640240D01*
X660650D02*
X683310D01*
X704300D02*
X726960D01*
X753640D02*
X818290D01*
X839460D02*
X862120D01*
X896590D02*
X919240D01*
X933790D02*
X998410D01*
X1033970D02*
X1065540D01*
X1103420D02*
X1126080D01*
X1160550D02*
X1183210D01*
X1210130D02*
X1251250D01*
X1266700D02*
X1289360D01*
X1323830D02*
X1346490D01*
X1372590D02*
X1437230D01*
X1452540D02*
X1517160D01*
X1535450D02*
X1558110D01*
X1573250D02*
X1637860D01*
X1650790D02*
X1678620D01*
X1699930D02*
X1761790D01*
X1785480D02*
X1848390D01*
X1869540D02*
X1897370D01*
X1918790D02*
X1991510D01*
X2012510D02*
X2035160D01*
X2061900D02*
X2089540D01*
X138790Y4564100D02*
X170190D01*
X196190D02*
X227450D01*
X274630D02*
X306030D01*
X332030D02*
X363290D01*
X410470D02*
X441870D01*
X467870D02*
X499130D01*
X527650D02*
X555860D01*
X568030D02*
X640240D01*
X660650D02*
X683310D01*
X704300D02*
X726960D01*
X751380D02*
X817220D01*
X839460D02*
X862120D01*
X896590D02*
X919240D01*
X934880D02*
X1000020D01*
X1032940D02*
X1066550D01*
X1103420D02*
X1126080D01*
X1160550D02*
X1183210D01*
X1208960D02*
X1250340D01*
X1266700D02*
X1289360D01*
X1323830D02*
X1346490D01*
X1370320D02*
X1436170D01*
X1453630D02*
X1518770D01*
X1535450D02*
X1558110D01*
X1574340D02*
X1639470D01*
X1650600D02*
X1678800D01*
X1697670D02*
X1763640D01*
X1783270D02*
X1850590D01*
X1869350D02*
X1897550D01*
X1917170D02*
X1991510D01*
X2012510D02*
X2035160D01*
X2059980D02*
X2087660D01*
X137930Y4566480D02*
X171080D01*
X195330D02*
X228310D01*
X273770D02*
X306920D01*
X331170D02*
X364150D01*
X409610D02*
X442760D01*
X467010D02*
X499990D01*
X527880D02*
X555630D01*
X567150D02*
X593370D01*
X608990D02*
X640240D01*
X660650D02*
X683310D01*
X704300D02*
X726960D01*
X749460D02*
X815040D01*
X839460D02*
X862120D01*
X896590D02*
X919240D01*
X935980D02*
X1001210D01*
X1031920D02*
X1067560D01*
X1103420D02*
X1126080D01*
X1160550D02*
X1183210D01*
X1208030D02*
X1249440D01*
X1266700D02*
X1289360D01*
X1323830D02*
X1346490D01*
X1368400D02*
X1433990D01*
X1454730D02*
X1519960D01*
X1535450D02*
X1558110D01*
X1575440D02*
X1640660D01*
X1650820D02*
X1678580D01*
X1695750D02*
X1765200D01*
X1781390D02*
X1852510D01*
X1869570D02*
X1897330D01*
X1915900D02*
X1991510D01*
X2012510D02*
X2035160D01*
X2058070D02*
X2085790D01*
X137060Y4568860D02*
X171970D01*
X194460D02*
X229180D01*
X272900D02*
X307810D01*
X330300D02*
X365020D01*
X408740D02*
X443650D01*
X466140D02*
X500860D01*
X528450D02*
X555060D01*
X566540D02*
X590040D01*
X612900D02*
X640240D01*
X660650D02*
X683310D01*
X704300D02*
X726960D01*
X747860D02*
X779110D01*
X795580D02*
X812850D01*
X839460D02*
X862120D01*
X896590D02*
X919240D01*
X937080D02*
X952670D01*
X978050D02*
X1002010D01*
X1030900D02*
X1068580D01*
X1103420D02*
X1126080D01*
X1160550D02*
X1183210D01*
X1207310D02*
X1233670D01*
X1244630D02*
X1248530D01*
X1266700D02*
X1289360D01*
X1323830D02*
X1346490D01*
X1366810D02*
X1398050D01*
X1414530D02*
X1431800D01*
X1455830D02*
X1471420D01*
X1496800D02*
X1520760D01*
X1535450D02*
X1558110D01*
X1576540D02*
X1592120D01*
X1617510D02*
X1641460D01*
X1651400D02*
X1678010D01*
X1694150D02*
X1726500D01*
X1736530D02*
X1766490D01*
X1779800D02*
X1812140D01*
X1821920D02*
X1854100D01*
X1870150D02*
X1896760D01*
X1914930D02*
X1991510D01*
X2012510D02*
X2035160D01*
X2056150D02*
X2083920D01*
X136200Y4571240D02*
X172870D01*
X193600D02*
X230040D01*
X272040D02*
X308710D01*
X329440D02*
X365880D01*
X407880D02*
X444550D01*
X465280D02*
X501720D01*
X529550D02*
X553960D01*
X566240D02*
X588740D01*
X615260D02*
X640240D01*
X660650D02*
X683310D01*
X704300D02*
X726960D01*
X746540D02*
X773820D01*
X801320D02*
X810670D01*
X839460D02*
X862120D01*
X896590D02*
X919240D01*
X938170D02*
X945600D01*
X980420D02*
X1002470D01*
X1029870D02*
X1069590D01*
X1103420D02*
X1126080D01*
X1160550D02*
X1183210D01*
X1206840D02*
X1230910D01*
X1266700D02*
X1289360D01*
X1323830D02*
X1346490D01*
X1365490D02*
X1392760D01*
X1420260D02*
X1429620D01*
X1456920D02*
X1464350D01*
X1499170D02*
X1521220D01*
X1535450D02*
X1558110D01*
X1577630D02*
X1585050D01*
X1619870D02*
X1641920D01*
X1652500D02*
X1676910D01*
X1692740D02*
X1720710D01*
X1742210D02*
X1763520D01*
X1778480D02*
X1806290D01*
X1827710D02*
X1855420D01*
X1871250D02*
X1895660D01*
X1914170D02*
X1942380D01*
X1959430D02*
X1991510D01*
X2012510D02*
X2035680D01*
X2054240D02*
X2082040D01*
X135340Y4573620D02*
X173760D01*
X192730D02*
X230910D01*
X271180D02*
X309600D01*
X328570D02*
X366750D01*
X407020D02*
X445440D01*
X464410D02*
X502590D01*
X531320D02*
X552180D01*
X566130D02*
X588190D01*
X616750D02*
X640240D01*
X660650D02*
X683310D01*
X704300D02*
X726960D01*
X745330D02*
X770510D01*
X804860D02*
X808480D01*
X839460D02*
X862120D01*
X896590D02*
X919240D01*
X939270D02*
X941000D01*
X981120D02*
X1002690D01*
X1028850D02*
X1070600D01*
X1103420D02*
X1126080D01*
X1160550D02*
X1183210D01*
X1206540D02*
X1229600D01*
X1266700D02*
X1289360D01*
X1323830D02*
X1346490D01*
X1364280D02*
X1389460D01*
X1423810D02*
X1427430D01*
X1458020D02*
X1459750D01*
X1499870D02*
X1521440D01*
X1535450D02*
X1558110D01*
X1578730D02*
X1580460D01*
X1620570D02*
X1642140D01*
X1654270D02*
X1675130D01*
X1691620D02*
X1717660D01*
X1745150D02*
X1759150D01*
X1777270D02*
X1803200D01*
X1830740D02*
X1856540D01*
X1873020D02*
X1893880D01*
X1913560D02*
X1939420D01*
X1962960D02*
X1991510D01*
X2012510D02*
X2038080D01*
X2052320D02*
X2080170D01*
X134480Y4576000D02*
X174650D01*
X191870D02*
X231770D01*
X270320D02*
X310490D01*
X327710D02*
X367610D01*
X406160D02*
X446330D01*
X463550D02*
X503450D01*
X534400D02*
X549110D01*
X566220D02*
X588280D01*
X617580D02*
X640240D01*
X660650D02*
X683310D01*
X704300D02*
X726960D01*
X744480D02*
X768370D01*
X839460D02*
X862120D01*
X896590D02*
X919240D01*
X980650D02*
X1002670D01*
X1027830D02*
X1071620D01*
X1103420D02*
X1126080D01*
X1160550D02*
X1183210D01*
X1206400D02*
X1229100D01*
X1266700D02*
X1289360D01*
X1323830D02*
X1346490D01*
X1363430D02*
X1387310D01*
X1499400D02*
X1521420D01*
X1535450D02*
X1558110D01*
X1620110D02*
X1642130D01*
X1657350D02*
X1672050D01*
X1690680D02*
X1715460D01*
X1747260D02*
X1754780D01*
X1776410D02*
X1801160D01*
X1832820D02*
X1857470D01*
X1876100D02*
X1890800D01*
X1913120D02*
X1937700D01*
X1965040D02*
X1991510D01*
X2012510D02*
X2040480D01*
X2050400D02*
X2078300D01*
X133620Y4578380D02*
X154290D01*
X155910D02*
X175540D01*
X191010D02*
X211220D01*
X212840D02*
X232630D01*
X269460D02*
X290130D01*
X291750D02*
X311380D01*
X326850D02*
X347050D01*
X348680D02*
X368470D01*
X405300D02*
X425970D01*
X427590D02*
X447220D01*
X462690D02*
X482890D01*
X484520D02*
X504310D01*
X566590D02*
X589070D01*
X617580D02*
X640240D01*
X660650D02*
X683310D01*
X704300D02*
X726960D01*
X743730D02*
X766800D01*
X839460D02*
X862120D01*
X896590D02*
X919240D01*
X978040D02*
X1002470D01*
X1026810D02*
X1049320D01*
X1051290D02*
X1072630D01*
X1103420D02*
X1126080D01*
X1160550D02*
X1183210D01*
X1206350D02*
X1229010D01*
X1266700D02*
X1289360D01*
X1323830D02*
X1346490D01*
X1362680D02*
X1385750D01*
X1496790D02*
X1521220D01*
X1535450D02*
X1558110D01*
X1617490D02*
X1641920D01*
X1689920D02*
X1713880D01*
X1748820D02*
X1750410D01*
X1775660D02*
X1799630D01*
X1834260D02*
X1858230D01*
X1912820D02*
X1936580D01*
X1966480D02*
X1991510D01*
X2012510D02*
X2042880D01*
X2048490D02*
X2076420D01*
X132760Y4580760D02*
X153460D01*
X156770D02*
X176430D01*
X190140D02*
X210370D01*
X213690D02*
X233500D01*
X268600D02*
X289300D01*
X292610D02*
X312270D01*
X325980D02*
X346210D01*
X349530D02*
X369340D01*
X404440D02*
X425140D01*
X428450D02*
X448110D01*
X461820D02*
X482050D01*
X485370D02*
X505180D01*
X567260D02*
X591030D01*
X617580D02*
X640240D01*
X660650D02*
X683310D01*
X704300D02*
X726960D01*
X743090D02*
X765750D01*
X839460D02*
X862120D01*
X896590D02*
X919240D01*
X968500D02*
X1001960D01*
X1025780D02*
X1048330D01*
X1052280D02*
X1073640D01*
X1103420D02*
X1126080D01*
X1160550D02*
X1183210D01*
X1206350D02*
X1229010D01*
X1266700D02*
X1289360D01*
X1323830D02*
X1346490D01*
X1362030D02*
X1384700D01*
X1487250D02*
X1520710D01*
X1535450D02*
X1558110D01*
X1607950D02*
X1641410D01*
X1689350D02*
X1712790D01*
X1775020D02*
X1798570D01*
X1835320D02*
X1858810D01*
X1912590D02*
X1935860D01*
X1967510D02*
X1991510D01*
X2012510D02*
X2045280D01*
X2046570D02*
X2074550D01*
X131900Y4583140D02*
X152630D01*
X157630D02*
X177330D01*
X189280D02*
X209530D01*
X214540D02*
X234360D01*
X267740D02*
X288470D01*
X293470D02*
X313170D01*
X325120D02*
X345370D01*
X350380D02*
X370200D01*
X403580D02*
X424310D01*
X429310D02*
X449010D01*
X460960D02*
X481210D01*
X486220D02*
X506040D01*
X568180D02*
X596990D01*
X617580D02*
X640240D01*
X660650D02*
X683310D01*
X704300D02*
X726960D01*
X742660D02*
X765030D01*
X839460D02*
X862120D01*
X896590D02*
X919240D01*
X954820D02*
X1001200D01*
X1024760D02*
X1047350D01*
X1053280D02*
X1074660D01*
X1103420D02*
X1126080D01*
X1160550D02*
X1183210D01*
X1206350D02*
X1229010D01*
X1266700D02*
X1289360D01*
X1323830D02*
X1346490D01*
X1361600D02*
X1383970D01*
X1473570D02*
X1519950D01*
X1535450D02*
X1558110D01*
X1594270D02*
X1640650D01*
X1688890D02*
X1712090D01*
X1774590D02*
X1797740D01*
X1836160D02*
X1859270D01*
X1912480D02*
X1935440D01*
X1968150D02*
X1991510D01*
X2012510D02*
X2072680D01*
X131040Y4585520D02*
X151810D01*
X158490D02*
X178220D01*
X188420D02*
X208690D01*
X215400D02*
X235220D01*
X266880D02*
X287650D01*
X294330D02*
X314060D01*
X324260D02*
X344530D01*
X351240D02*
X371060D01*
X402720D02*
X423490D01*
X430170D02*
X449900D01*
X460100D02*
X480370D01*
X487080D02*
X506900D01*
X569590D02*
X640240D01*
X660650D02*
X683310D01*
X704300D02*
X726960D01*
X742360D02*
X824080D01*
X839460D02*
X862120D01*
X896590D02*
X919240D01*
X946760D02*
X1000040D01*
X1023740D02*
X1046360D01*
X1054270D02*
X1075670D01*
X1103420D02*
X1126080D01*
X1160550D02*
X1183210D01*
X1206350D02*
X1229010D01*
X1266700D02*
X1289360D01*
X1323830D02*
X1346490D01*
X1361300D02*
X1443020D01*
X1465510D02*
X1518790D01*
X1535450D02*
X1558110D01*
X1586220D02*
X1639500D01*
X1688550D02*
X1711580D01*
X1774290D02*
X1797330D01*
X1836570D02*
X1859560D01*
X1912410D02*
X1935190D01*
X1968560D02*
X1991510D01*
X2012510D02*
X2070810D01*
X130180Y4587900D02*
X150980D01*
X159360D02*
X179110D01*
X187550D02*
X207850D01*
X216250D02*
X236090D01*
X266020D02*
X286820D01*
X295200D02*
X314950D01*
X323390D02*
X343690D01*
X352090D02*
X371930D01*
X401860D02*
X422660D01*
X431040D02*
X450790D01*
X459230D02*
X479530D01*
X487930D02*
X507770D01*
X571490D02*
X640240D01*
X660650D02*
X683310D01*
X704300D02*
X726960D01*
X742190D02*
X824220D01*
X839460D02*
X862120D01*
X896590D02*
X919240D01*
X942470D02*
X998250D01*
X1022710D02*
X1045380D01*
X1055260D02*
X1076680D01*
X1103420D02*
X1126080D01*
X1160550D02*
X1183210D01*
X1206350D02*
X1229010D01*
X1266700D02*
X1289360D01*
X1323830D02*
X1346490D01*
X1361140D02*
X1443170D01*
X1461220D02*
X1517000D01*
X1535450D02*
X1558110D01*
X1581920D02*
X1637700D01*
X1688380D02*
X1711310D01*
X1774130D02*
X1797060D01*
X1836840D02*
X1859700D01*
X1912410D02*
X1935070D01*
X1968760D02*
X1991510D01*
X2012510D02*
X2068930D01*
X129320Y4590280D02*
X150150D01*
X160220D02*
X180000D01*
X186690D02*
X207010D01*
X217100D02*
X236950D01*
X265160D02*
X285990D01*
X296060D02*
X315840D01*
X322530D02*
X342850D01*
X352940D02*
X372790D01*
X401000D02*
X421830D01*
X431900D02*
X451680D01*
X458370D02*
X478690D01*
X488780D02*
X508630D01*
X574110D02*
X640240D01*
X660650D02*
X683310D01*
X704300D02*
X726960D01*
X742190D02*
X824400D01*
X839460D02*
X862120D01*
X896590D02*
X919240D01*
X939570D02*
X995600D01*
X1021690D02*
X1044400D01*
X1056250D02*
X1077700D01*
X1103420D02*
X1126080D01*
X1160550D02*
X1183210D01*
X1206350D02*
X1229010D01*
X1266700D02*
X1289360D01*
X1323830D02*
X1346490D01*
X1361140D02*
X1443350D01*
X1458320D02*
X1514350D01*
X1535450D02*
X1558110D01*
X1579030D02*
X1635060D01*
X1688380D02*
X1711260D01*
X1774130D02*
X1797000D01*
X1836900D02*
X1859760D01*
X1912410D02*
X1935060D01*
X1968850D02*
X1991510D01*
X2012510D02*
X2067060D01*
X128460Y4592660D02*
X149320D01*
X161080D02*
X180900D01*
X185820D02*
X206170D01*
X217960D02*
X237820D01*
X264300D02*
X285160D01*
X296920D02*
X316740D01*
X321660D02*
X342010D01*
X353800D02*
X373660D01*
X400140D02*
X421000D01*
X432760D02*
X452580D01*
X457500D02*
X477850D01*
X489640D02*
X509500D01*
X577950D02*
X640240D01*
X660650D02*
X683310D01*
X704300D02*
X726960D01*
X742190D02*
X824310D01*
X839460D02*
X862200D01*
X896570D02*
X919240D01*
X937400D02*
X991980D01*
X1020670D02*
X1043410D01*
X1057250D02*
X1078710D01*
X1103420D02*
X1126160D01*
X1160530D02*
X1183210D01*
X1206350D02*
X1229010D01*
X1266700D02*
X1289440D01*
X1323810D02*
X1346490D01*
X1361140D02*
X1443260D01*
X1456150D02*
X1510730D01*
X1535450D02*
X1558110D01*
X1576850D02*
X1631430D01*
X1688380D02*
X1711370D01*
X1774130D02*
X1797130D01*
X1836770D02*
X1859670D01*
X1912410D02*
X1935060D01*
X1968850D02*
X1991510D01*
X2012510D02*
X2065190D01*
X127600Y4595040D02*
X148500D01*
X161940D02*
X181790D01*
X184960D02*
X205330D01*
X218810D02*
X238680D01*
X263440D02*
X284340D01*
X297780D02*
X317630D01*
X320800D02*
X341170D01*
X354650D02*
X374520D01*
X399280D02*
X420180D01*
X433620D02*
X453470D01*
X456640D02*
X477010D01*
X490490D02*
X510360D01*
X584430D02*
X640240D01*
X660650D02*
X683310D01*
X704300D02*
X726960D01*
X742440D02*
X824080D01*
X839460D02*
X862530D01*
X896420D02*
X919240D01*
X935900D02*
X985610D01*
X1019650D02*
X1042430D01*
X1058240D02*
X1079720D01*
X1103420D02*
X1126490D01*
X1160390D02*
X1183210D01*
X1206350D02*
X1229010D01*
X1266700D02*
X1289770D01*
X1323670D02*
X1346490D01*
X1361380D02*
X1443020D01*
X1454650D02*
X1504360D01*
X1535450D02*
X1558110D01*
X1575350D02*
X1625060D01*
X1688630D02*
X1711720D01*
X1774370D02*
X1797460D01*
X1836440D02*
X1859510D01*
X1912410D02*
X1935060D01*
X1968850D02*
X1991510D01*
X2012510D02*
X2063310D01*
X126740Y4597420D02*
X147670D01*
X162800D02*
X182680D01*
X184100D02*
X204490D01*
X219660D02*
X239540D01*
X262580D02*
X283510D01*
X298640D02*
X318520D01*
X319940D02*
X340330D01*
X355500D02*
X375380D01*
X398420D02*
X419350D01*
X434480D02*
X454360D01*
X455780D02*
X476170D01*
X491340D02*
X511220D01*
X617550D02*
X640150D01*
X660650D02*
X683310D01*
X704300D02*
X726960D01*
X742770D02*
X764770D01*
X802920D02*
X823770D01*
X839460D02*
X863030D01*
X896140D02*
X919150D01*
X935040D02*
X974670D01*
X1018620D02*
X1041450D01*
X1059230D02*
X1080730D01*
X1103420D02*
X1127000D01*
X1160110D02*
X1183120D01*
X1206350D02*
X1229010D01*
X1266700D02*
X1290280D01*
X1323390D02*
X1346400D01*
X1361710D02*
X1383710D01*
X1421870D02*
X1442710D01*
X1453790D02*
X1493420D01*
X1535450D02*
X1558110D01*
X1574500D02*
X1614120D01*
X1689020D02*
X1712300D01*
X1774690D02*
X1798000D01*
X1835900D02*
X1859140D01*
X1912410D02*
X1935060D01*
X1968850D02*
X1991510D01*
X2012510D02*
X2064270D01*
X125880Y4599800D02*
X146840D01*
X163670D02*
X203650D01*
X220520D02*
X240410D01*
X261720D02*
X282680D01*
X299510D02*
X339490D01*
X356360D02*
X376250D01*
X397560D02*
X418520D01*
X435350D02*
X475330D01*
X492200D02*
X512090D01*
X617340D02*
X640020D01*
X660650D02*
X683310D01*
X704300D02*
X726960D01*
X743240D02*
X765300D01*
X802370D02*
X823330D01*
X839460D02*
X863810D01*
X895700D02*
X919040D01*
X934460D02*
X962140D01*
X1017600D02*
X1040460D01*
X1060220D02*
X1081750D01*
X1103420D02*
X1127770D01*
X1159670D02*
X1183000D01*
X1206350D02*
X1229010D01*
X1266700D02*
X1291050D01*
X1322950D02*
X1346280D01*
X1362190D02*
X1384240D01*
X1421320D02*
X1442280D01*
X1453210D02*
X1480890D01*
X1535450D02*
X1558110D01*
X1573920D02*
X1601600D01*
X1689510D02*
X1713080D01*
X1775210D02*
X1798860D01*
X1835030D02*
X1858650D01*
X1912410D02*
X1935060D01*
X1968850D02*
X1991510D01*
X2012510D02*
X2035160D01*
X2037500D02*
X2066600D01*
X125010Y4602180D02*
X146020D01*
X164530D02*
X202810D01*
X221370D02*
X241270D01*
X260850D02*
X281860D01*
X300370D02*
X338650D01*
X357210D02*
X377110D01*
X396690D02*
X417700D01*
X436210D02*
X474490D01*
X493050D02*
X512950D01*
X616870D02*
X639790D01*
X660650D02*
X683310D01*
X704300D02*
X726960D01*
X743880D02*
X766170D01*
X801430D02*
X822720D01*
X839460D02*
X864900D01*
X894890D02*
X918810D01*
X934140D02*
X957020D01*
X1016580D02*
X1039480D01*
X1061220D02*
X1082760D01*
X1103420D02*
X1128860D01*
X1158850D02*
X1182770D01*
X1206350D02*
X1229010D01*
X1266700D02*
X1292140D01*
X1322130D02*
X1346050D01*
X1362830D02*
X1385120D01*
X1420370D02*
X1441670D01*
X1452890D02*
X1475770D01*
X1535450D02*
X1558110D01*
X1573590D02*
X1596480D01*
X1690140D02*
X1714330D01*
X1748370D02*
X1751810D01*
X1775890D02*
X1800040D01*
X1833850D02*
X1858010D01*
X1912410D02*
X1935060D01*
X1968850D02*
X1991510D01*
X2012510D02*
X2035160D01*
X2040000D02*
X2068930D01*
X124150Y4604560D02*
X145190D01*
X165390D02*
X201970D01*
X222220D02*
X242140D01*
X259990D02*
X281030D01*
X301230D02*
X337810D01*
X358060D02*
X377980D01*
X395830D02*
X416870D01*
X437070D02*
X473650D01*
X493900D02*
X513820D01*
X615850D02*
X639440D01*
X660650D02*
X683310D01*
X704300D02*
X726960D01*
X744730D02*
X767480D01*
X800160D02*
X821950D01*
X839460D02*
X866600D01*
X893560D02*
X918480D01*
X934000D02*
X955730D01*
X1015550D02*
X1038490D01*
X1062210D02*
X1083770D01*
X1103420D02*
X1130570D01*
X1157530D02*
X1182450D01*
X1206350D02*
X1229010D01*
X1266700D02*
X1293850D01*
X1320810D02*
X1345730D01*
X1363680D02*
X1386430D01*
X1419100D02*
X1440900D01*
X1452750D02*
X1474480D01*
X1535450D02*
X1558110D01*
X1573450D02*
X1595180D01*
X1690980D02*
X1716050D01*
X1746660D02*
X1756270D01*
X1776680D02*
X1801750D01*
X1832210D02*
X1857170D01*
X1912410D02*
X1935060D01*
X1968850D02*
X1991510D01*
X2012510D02*
X2035160D01*
X2042510D02*
X2071260D01*
X123290Y4606940D02*
X144360D01*
X166250D02*
X201130D01*
X223080D02*
X243000D01*
X259130D02*
X280200D01*
X302090D02*
X336970D01*
X358920D02*
X378840D01*
X394970D02*
X416040D01*
X437930D02*
X472810D01*
X494760D02*
X514680D01*
X576060D02*
X580240D01*
X614250D02*
X638940D01*
X660650D02*
X683310D01*
X704300D02*
X726960D01*
X745730D02*
X769270D01*
X798330D02*
X821050D01*
X839460D02*
X869110D01*
X891420D02*
X918030D01*
X934120D02*
X955790D01*
X1014530D02*
X1037510D01*
X1063200D02*
X1084790D01*
X1103420D02*
X1133070D01*
X1155390D02*
X1182000D01*
X1206350D02*
X1229010D01*
X1266700D02*
X1296350D01*
X1318670D02*
X1345280D01*
X1364680D02*
X1388220D01*
X1417270D02*
X1440000D01*
X1452870D02*
X1474540D01*
X1535450D02*
X1558110D01*
X1573570D02*
X1595240D01*
X1691970D02*
X1718440D01*
X1744380D02*
X1760730D01*
X1777660D02*
X1804000D01*
X1829990D02*
X1856180D01*
X1912410D02*
X1935060D01*
X1968850D02*
X1991510D01*
X2012510D02*
X2035160D01*
X2045020D02*
X2073590D01*
X122430Y4609320D02*
X143540D01*
X167120D02*
X200290D01*
X223930D02*
X243860D01*
X258270D02*
X279380D01*
X302960D02*
X336130D01*
X359770D02*
X379700D01*
X394110D02*
X415220D01*
X438800D02*
X471970D01*
X495610D02*
X515540D01*
X574840D02*
X585080D01*
X611430D02*
X638220D01*
X660650D02*
X683310D01*
X704300D02*
X726960D01*
X746880D02*
X771990D01*
X795670D02*
X819940D01*
X839460D02*
X873410D01*
X887760D02*
X917370D01*
X934430D02*
X957140D01*
X988140D02*
X993590D01*
X1013510D02*
X1036530D01*
X1064190D02*
X1085800D01*
X1103420D02*
X1137380D01*
X1151730D02*
X1181330D01*
X1206350D02*
X1229010D01*
X1266700D02*
X1300660D01*
X1315010D02*
X1344610D01*
X1365830D02*
X1390940D01*
X1414610D02*
X1438880D01*
X1453180D02*
X1475890D01*
X1506890D02*
X1512340D01*
X1535450D02*
X1558110D01*
X1573890D02*
X1596590D01*
X1627590D02*
X1633050D01*
X1693160D02*
X1722120D01*
X1740820D02*
X1765190D01*
X1778870D02*
X1807570D01*
X1826430D02*
X1855030D01*
X1912410D02*
X1935060D01*
X1968850D02*
X1991510D01*
X2012510D02*
X2035160D01*
X2047520D02*
X2075920D01*
X121570Y4611700D02*
X142710D01*
X167980D02*
X199450D01*
X224780D02*
X244730D01*
X257410D02*
X278550D01*
X303820D02*
X335290D01*
X360620D02*
X380570D01*
X393250D02*
X414390D01*
X439660D02*
X471130D01*
X496460D02*
X516410D01*
X573620D02*
X594070D01*
X604720D02*
X637330D01*
X660650D02*
X683310D01*
X704300D02*
X726960D01*
X748300D02*
X776490D01*
X791270D02*
X818600D01*
X839460D02*
X916540D01*
X935020D02*
X960850D01*
X981070D02*
X994700D01*
X1012490D02*
X1035540D01*
X1065190D02*
X1086810D01*
X1103420D02*
X1180500D01*
X1194340D02*
X1248440D01*
X1266700D02*
X1343780D01*
X1367250D02*
X1395440D01*
X1410220D02*
X1437540D01*
X1453770D02*
X1479600D01*
X1499820D02*
X1513450D01*
X1535450D02*
X1558110D01*
X1574480D02*
X1600310D01*
X1620520D02*
X1634160D01*
X1694660D02*
X1766040D01*
X1780300D02*
X1853600D01*
X1912410D02*
X1935060D01*
X1968850D02*
X1991510D01*
X2012510D02*
X2035160D01*
X2050030D02*
X2078250D01*
X120710Y4614080D02*
X141880D01*
X168840D02*
X198610D01*
X225640D02*
X245590D01*
X256550D02*
X277720D01*
X304680D02*
X334450D01*
X361480D02*
X381430D01*
X392390D02*
X413560D01*
X440520D02*
X470290D01*
X497320D02*
X517270D01*
X572400D02*
X636210D01*
X660650D02*
X683310D01*
X704300D02*
X726960D01*
X749950D02*
X817080D01*
X839460D02*
X915520D01*
X935990D02*
X995810D01*
X1011460D02*
X1034560D01*
X1066180D02*
X1087830D01*
X1103420D02*
X1179480D01*
X1194340D02*
X1248440D01*
X1266700D02*
X1342760D01*
X1368900D02*
X1436030D01*
X1454740D02*
X1514560D01*
X1535450D02*
X1558110D01*
X1575440D02*
X1635270D01*
X1696340D02*
X1764710D01*
X1781980D02*
X1851920D01*
X1912410D02*
X1935060D01*
X1968850D02*
X1991510D01*
X2012510D02*
X2035160D01*
X2052530D02*
X2080580D01*
X119850Y4616460D02*
X141050D01*
X169700D02*
X197770D01*
X226490D02*
X246450D01*
X255690D02*
X276890D01*
X305540D02*
X333600D01*
X362330D02*
X382290D01*
X391530D02*
X412730D01*
X441380D02*
X469440D01*
X498170D02*
X518130D01*
X571190D02*
X634860D01*
X660650D02*
X683310D01*
X704300D02*
X726960D01*
X751860D02*
X815280D01*
X839460D02*
X914210D01*
X937270D02*
X996930D01*
X1010440D02*
X1033570D01*
X1067170D02*
X1088840D01*
X1103420D02*
X1178170D01*
X1194340D02*
X1248440D01*
X1266700D02*
X1341450D01*
X1370810D02*
X1434220D01*
X1456020D02*
X1515680D01*
X1535450D02*
X1558110D01*
X1576720D02*
X1636390D01*
X1698330D02*
X1763090D01*
X1783890D02*
X1849930D01*
X1912410D02*
X1935060D01*
X1968850D02*
X1991510D01*
X2012510D02*
X2035160D01*
X2055040D02*
X2082910D01*
X118990Y4618840D02*
X140230D01*
X170560D02*
X196930D01*
X227340D02*
X247320D01*
X254830D02*
X276070D01*
X306400D02*
X332760D01*
X363180D02*
X383160D01*
X390670D02*
X411910D01*
X442240D02*
X468600D01*
X499020D02*
X519000D01*
X569970D02*
X633070D01*
X660650D02*
X683310D01*
X704300D02*
X726960D01*
X754090D02*
X813100D01*
X839460D02*
X912560D01*
X938950D02*
X998040D01*
X1009420D02*
X1032590D01*
X1068160D02*
X1089850D01*
X1103420D02*
X1176520D01*
X1194340D02*
X1248440D01*
X1266700D02*
X1339800D01*
X1373030D02*
X1432040D01*
X1457700D02*
X1516790D01*
X1535450D02*
X1558110D01*
X1578400D02*
X1637500D01*
X1700670D02*
X1761160D01*
X1786220D02*
X1847680D01*
X1912410D02*
X1935060D01*
X1968850D02*
X1991510D01*
X2012510D02*
X2035160D01*
X2057550D02*
X2085240D01*
X118130Y4621220D02*
X139400D01*
X171430D02*
X196090D01*
X228200D02*
X248180D01*
X253970D02*
X275240D01*
X307270D02*
X331920D01*
X364040D02*
X384020D01*
X389810D02*
X411080D01*
X443110D02*
X467760D01*
X499880D02*
X519860D01*
X569960D02*
X630670D01*
X660650D02*
X683310D01*
X704300D02*
X726960D01*
X756870D02*
X810410D01*
X839460D02*
X861040D01*
X862570D02*
X910430D01*
X941270D02*
X999150D01*
X1008390D02*
X1031610D01*
X1069160D02*
X1090870D01*
X1103420D02*
X1125010D01*
X1126540D02*
X1174390D01*
X1194340D02*
X1248440D01*
X1266700D02*
X1289360D01*
X1289820D02*
X1337680D01*
X1375820D02*
X1429360D01*
X1460020D02*
X1517900D01*
X1535450D02*
X1558110D01*
X1580720D02*
X1638610D01*
X1703590D02*
X1758690D01*
X1789100D02*
X1844800D01*
X1912410D02*
X1935060D01*
X1968850D02*
X1991510D01*
X2012510D02*
X2035160D01*
X2060050D02*
X2087570D01*
X117270Y4623600D02*
X138570D01*
X172290D02*
X195250D01*
X229050D02*
X249050D01*
X253110D02*
X274410D01*
X308130D02*
X331080D01*
X364890D02*
X384890D01*
X388950D02*
X410250D01*
X443970D02*
X466920D01*
X500730D02*
X520730D01*
X574010D02*
X627710D01*
X660650D02*
X683310D01*
X704300D02*
X726960D01*
X760330D02*
X807110D01*
X839460D02*
X861040D01*
X865420D02*
X907680D01*
X944330D02*
X999450D01*
X1007370D02*
X1030620D01*
X1070150D02*
X1091880D01*
X1103420D02*
X1125010D01*
X1129390D02*
X1171650D01*
X1194340D02*
X1248440D01*
X1266700D02*
X1289360D01*
X1292700D02*
X1334930D01*
X1379270D02*
X1426060D01*
X1463080D02*
X1518200D01*
X1535450D02*
X1558110D01*
X1583790D02*
X1638900D01*
X1707110D02*
X1755570D01*
X1792560D02*
X1841410D01*
X1912410D02*
X1935060D01*
X1968850D02*
X1991510D01*
X2012510D02*
X2035160D01*
X2062560D02*
X2089900D01*
X116410Y4625980D02*
X137750D01*
X173150D02*
X194410D01*
X229900D02*
X249910D01*
X252250D02*
X273590D01*
X308990D02*
X330240D01*
X365740D02*
X385750D01*
X388090D02*
X409430D01*
X444830D02*
X466080D01*
X501580D02*
X521590D01*
X579260D02*
X623530D01*
X660650D02*
X683310D01*
X704300D02*
X726960D01*
X764700D02*
X802770D01*
X839460D02*
X861040D01*
X869230D02*
X904100D01*
X948690D02*
X994330D01*
X1006350D02*
X1029640D01*
X1071140D02*
X1092890D01*
X1103420D02*
X1125010D01*
X1133190D02*
X1168070D01*
X1194340D02*
X1248440D01*
X1266700D02*
X1289360D01*
X1296450D02*
X1331350D01*
X1383640D02*
X1421720D01*
X1467440D02*
X1513080D01*
X1535450D02*
X1558110D01*
X1588140D02*
X1633780D01*
X1711670D02*
X1751320D01*
X1797120D02*
X1836880D01*
X1912410D02*
X1935060D01*
X1968850D02*
X1991510D01*
X2012510D02*
X2035160D01*
X2065060D02*
X2092230D01*
X115550Y4628360D02*
X136920D01*
X174010D02*
X193570D01*
X230760D02*
X250770D01*
X251390D02*
X272760D01*
X309850D02*
X329400D01*
X366600D02*
X386610D01*
X387230D02*
X408600D01*
X445690D02*
X465240D01*
X502440D02*
X522450D01*
X587360D02*
X616970D01*
X660650D02*
X683310D01*
X704300D02*
X726960D01*
X770980D02*
X796450D01*
X839460D02*
X861040D01*
X875170D02*
X898430D01*
X955470D02*
X985910D01*
X1005320D02*
X1028660D01*
X1072130D02*
X1093910D01*
X1103420D02*
X1125010D01*
X1139130D02*
X1162390D01*
X1206350D02*
X1229010D01*
X1266700D02*
X1289360D01*
X1302310D02*
X1325670D01*
X1389920D02*
X1415400D01*
X1474220D02*
X1504660D01*
X1535450D02*
X1558110D01*
X1594920D02*
X1625360D01*
X1718380D02*
X1744950D01*
X1803630D02*
X1830300D01*
X1912410D02*
X1935060D01*
X1968850D02*
X1991510D01*
X2012510D02*
X2035160D01*
X2067570D02*
X2094560D01*
X660650Y4630740D02*
X683310D01*
X704300D02*
X726960D01*
X1206350D02*
X1229010D01*
X1266700D02*
X1289360D01*
X2012510D02*
X2035160D01*
X660650Y4633120D02*
X683310D01*
X704300D02*
X726960D01*
X1206350D02*
X1229010D01*
X1266700D02*
X1289360D01*
X2012510D02*
X2035160D01*
X660650Y4635500D02*
X683310D01*
X704300D02*
X726960D01*
X1206350D02*
X1229010D01*
X1266700D02*
X1289360D01*
X2012510D02*
X2035160D01*
X660650Y4637880D02*
X683310D01*
X704300D02*
X726960D01*
X1206350D02*
X1229010D01*
X1266700D02*
X1289360D01*
X2012510D02*
X2035160D01*
X660650Y4640260D02*
X683310D01*
X704300D02*
X726960D01*
X1206350D02*
X1229010D01*
X1266700D02*
X1289360D01*
X1542390D02*
X1550650D01*
X2012510D02*
X2035160D01*
X660650Y4642640D02*
X683310D01*
X704300D02*
X726960D01*
X1206350D02*
X1229010D01*
X1266700D02*
X1289360D01*
X1537550D02*
X1555870D01*
X2012510D02*
X2035160D01*
X660650Y4645020D02*
X683310D01*
X704300D02*
X726960D01*
X1206350D02*
X1229010D01*
X1266700D02*
X1289360D01*
X1535120D02*
X1558270D01*
X2012510D02*
X2035160D01*
X660650Y4647400D02*
X683310D01*
X704300D02*
X726960D01*
X1266700D02*
X1289360D01*
X1533740D02*
X1559730D01*
X2012510D02*
X2035160D01*
X660650Y4649780D02*
X683310D01*
X704300D02*
X726960D01*
X1266700D02*
X1289360D01*
X1532930D02*
X1560470D01*
X2012510D02*
X2035160D01*
X660650Y4652160D02*
X683310D01*
X704300D02*
X726960D01*
X1266700D02*
X1289360D01*
X1532720D02*
X1560800D01*
X2012510D02*
X2035160D01*
X660650Y4654540D02*
X683310D01*
X704300D02*
X726960D01*
X1266700D02*
X1289360D01*
X1532850D02*
X1560680D01*
X2012510D02*
X2035160D01*
X660650Y4656920D02*
X683310D01*
X704300D02*
X726960D01*
X1266700D02*
X1289360D01*
X1533520D02*
X1560110D01*
X2012510D02*
X2035160D01*
X1534750Y4659300D02*
X1558870D01*
X1536990Y4661680D02*
X1556750D01*
X1541050Y4664060D02*
X1552740D01*
X0Y0D02*
M02*
