G04 DesignSpark PCB Gerber Version 9.0 Build 5138 *
%FSLAX35Y35*%
%MOMM*%
%ADD10C,0.12700*%
%ADD14C,0.25400*%
%ADD13C,0.30480*%
X0Y0D02*
D02*
D10*
X397740Y3956740D02*
X1412740D01*
X399240Y4460240D02*
Y3960240D01*
X606550Y8564240D02*
X701800D01*
Y8619800*
X693870Y8635680*
X677990Y8643620*
X662120Y8635680*
X654180Y8619800*
Y8564240*
Y8619800D02*
X606550Y8643620D01*
Y8754740D02*
Y8691240D01*
X662120Y8746800*
X677990Y8754740*
X693870Y8746800*
X701800Y8730930*
Y8707120*
X693870Y8691240*
X630370Y8818240D02*
X646240Y8826180D01*
X654180Y8842050*
Y8857930*
X646240Y8873800*
X630370Y8881740*
X614490Y8873800*
X606550Y8857930*
Y8842050*
X614490Y8826180*
X630370Y8818240*
X654180*
X677990Y8826180*
X693870Y8842050*
X701800Y8857930*
X969050Y9285740D02*
X1064300D01*
Y9341300*
X1056370Y9357180*
X1040490Y9365120*
X1024620Y9357180*
X1016680Y9341300*
Y9285740*
Y9341300D02*
X969050Y9365120D01*
Y9476240D02*
Y9412740D01*
X1024620Y9468300*
X1040490Y9476240*
X1056370Y9468300*
X1064300Y9452430*
Y9428620*
X1056370Y9412740*
X969050Y9579430D02*
X1064300D01*
X1000800Y9539740*
Y9603240*
X1131550Y6314240D02*
X1226800D01*
Y6369800*
X1218870Y6385680*
X1202990Y6393620*
X1187120Y6385680*
X1179180Y6369800*
Y6314240*
Y6369800D02*
X1131550Y6393620D01*
Y6504740D02*
Y6441240D01*
X1187120Y6496800*
X1202990Y6504740*
X1218870Y6496800*
X1226800Y6480930*
Y6457120*
X1218870Y6441240*
X1131550Y6568240D02*
X1226800Y6631740D01*
Y6568240*
X1240240Y7419740D02*
G75*
G03X1557740Y7737240J317500D01*
G01*
G75*
G03X1240240Y8054740I-317500*
G01*
X1202140*
G75*
G03X1049740Y7991240I450J-215710*
G01*
Y7483240*
G75*
G03X1202140Y7419740I152850J152210*
G01*
X1240240*
X1410800Y7651740D02*
X1442550D01*
X1458430Y7659680*
X1466370Y7667620*
X1474300Y7683490*
Y7699370*
X1466370Y7715240*
X1458430Y7723180*
X1442550Y7731120*
X1410800*
X1394930Y7723180*
X1386990Y7715240*
X1379050Y7699370*
Y7683490*
X1386990Y7667620*
X1394930Y7659680*
X1410800Y7651740*
X1402870Y7707300D02*
X1379050Y7731120D01*
Y7794620D02*
Y7826370D01*
Y7810490D02*
X1474300D01*
X1458430Y7794620*
X1381550Y9650740D02*
X1476800D01*
Y9706300*
X1468870Y9722180*
X1452990Y9730120*
X1437120Y9722180*
X1429180Y9706300*
Y9650740*
Y9706300D02*
X1381550Y9730120D01*
Y9841240D02*
Y9777740D01*
X1437120Y9833300*
X1452990Y9841240*
X1468870Y9833300*
X1476800Y9817430*
Y9793620*
X1468870Y9777740*
X1389490Y9904740D02*
X1381550Y9920620D01*
Y9944430*
X1389490Y9960300*
X1405370Y9968240*
X1413300*
X1429180Y9960300*
X1437120Y9944430*
Y9904740*
X1476800*
Y9968240*
X1412740Y4460240D02*
X397740D01*
X1416240Y3960240D02*
Y4460240D01*
X1482740Y6543740D02*
Y6480240D01*
Y6988240D02*
Y6924740D01*
X1531430Y6866740D02*
X1436180D01*
Y6819110*
X1444110Y6803240*
X1452050Y6795300*
X1467930Y6787360*
X1499680*
X1515550Y6795300*
X1523490Y6803240*
X1531430Y6819110*
Y6866740*
Y6723860D02*
Y6692110D01*
Y6707990D02*
X1436180D01*
X1452050Y6723860*
X1609740Y6924740D02*
X1355740D01*
Y6543740*
X1609740*
Y6924740*
X2399240Y9275240D02*
Y8260240D01*
X2402740Y8256740D02*
X2902740D01*
Y8260240D02*
Y9275240D01*
Y9273740D02*
X2402740D01*
D02*
D13*
X557740Y8090240D02*
Y9340240D01*
X757740*
Y8090240*
X557740*
X920240Y8811740D02*
Y10061740D01*
X1120240*
Y8811740*
X920240*
X1082740Y5840240D02*
Y7090240D01*
X1282740*
Y5840240*
X1082740*
X1332740Y9176740D02*
Y10426740D01*
X1532740*
Y9176740*
X1332740*
D02*
D14*
X1363360Y6632640D02*
X1602120D01*
X0Y0D02*
M02*
